<svg width="12" height="16" viewBox="0 0 12 16" fill="none" xmlns="http://www.w3.org/2000/svg">
<path d="M6 0C2.7 0 -7.62939e-06 2.63653 -7.62939e-06 5.85895C-7.62939e-06 8.98373 3.3 13.085 5.4 15.2333C5.6 15.4286 5.8 15.4286 6 15.4286C6.2 15.4286 6.4 15.3309 6.6 15.2333C8.7 13.085 12 8.98373 12 5.85895C12 2.63653 9.3 0 6 0ZM6 3.22242C4.5 3.22242 3.3 4.39422 3.3 5.9566C3.2 6.64015 3.5 7.32369 4 7.81194C4.5 8.30018 5.2 8.59313 6 8.59313C6.8 8.59313 7.4 8.30018 7.9 7.81194C8.4 7.32369 8.7 6.64015 8.7 5.85895C8.7 4.39422 7.5 3.22242 6 3.22242ZM6 7.03075C5.3 7.03075 4.8 6.5425 4.8 5.85895C4.8 5.17541 5.3 4.68716 6 4.68716C6.6 4.68716 7.2 5.27306 7.2 5.85895C7.2 6.5425 6.6 7.03075 6 7.03075ZM6 13.4756C4.4 11.7179 1.69999 8.39783 1.69999 5.9566C1.69999 3.61302 3.59999 1.75769 6 1.75769C8.4 1.75769 10.3 3.51537 10.3 5.85895C10.3 8.30019 7.6 11.7179 6 13.4756Z" fill="currentColor"/>
</svg>
