<svg width="25" height="28" viewBox="0 0 25 28" fill="none" xmlns="http://www.w3.org/2000/svg">
<path d="M6.48949 14.2107C6.48949 13.4639 5.9709 13.0182 5.05574 13.0182C4.68243 13.0182 4.4295 13.0542 4.29688 13.0903V15.4884C4.45367 15.524 4.64642 15.5362 4.91078 15.5362C5.88717 15.5362 6.48949 15.0423 6.48949 14.2107Z" fill="currentColor"/>
<path d="M12.1521 13.0421C11.742 13.0421 11.4775 13.0782 11.3203 13.1144V18.4277C11.4772 18.4644 11.7303 18.4645 11.9593 18.4645C13.6218 18.4761 14.7062 17.5608 14.7062 15.6208C14.7184 13.9334 13.7301 13.0421 12.1521 13.0421Z" fill="currentColor"/>
<path d="M23.0073 9.92045H22.3413V6.70714C22.3413 6.6871 22.3381 6.66691 22.3355 6.64661C22.3344 6.51902 22.2938 6.39369 22.2065 6.2944L16.8592 0.186003C16.8575 0.184442 16.856 0.183888 16.8549 0.182176C16.823 0.146577 16.7858 0.116969 16.7466 0.0913399C16.7349 0.0835352 16.7232 0.0769894 16.711 0.0702421C16.677 0.0516619 16.6409 0.036254 16.6037 0.025126C16.5936 0.0223063 16.5846 0.0181773 16.5745 0.015559C16.5341 0.00599198 16.4922 0 16.4497 0H3.30797C2.70787 0 2.22035 0.488069 2.22035 1.08767V9.9202H1.55454C0.696076 9.9202 0 10.616 0 11.4747V19.5586C0 20.4168 0.696076 21.113 1.55454 21.113H2.22041V26.6467C2.22041 27.2462 2.70792 27.7343 3.30802 27.7343H21.2537C21.8533 27.7343 22.3414 27.2463 22.3414 26.6467V21.113H23.0073C23.8655 21.113 24.5618 20.4168 24.5618 19.5586V11.475C24.5617 10.6163 23.8655 9.92045 23.0073 9.92045ZM3.30797 1.08787H15.9059V6.6525C15.9059 6.95296 16.1496 7.19631 16.4497 7.19631H21.2537V9.9208H3.30797V1.08787ZM16.6595 15.5602C16.6595 17.1148 16.0933 18.1868 15.309 18.8499C14.4545 19.5607 13.1529 19.8979 11.563 19.8979C10.6113 19.8979 9.93671 19.8376 9.4783 19.7776V11.8009C10.153 11.6927 11.0331 11.6324 11.9609 11.6324C13.5023 11.6324 14.5026 11.9098 15.2861 12.4998C16.1292 13.1265 16.6595 14.1263 16.6595 15.5602ZM2.47715 19.8138V11.8009C3.04317 11.7051 3.83879 11.6324 4.95934 11.6324C6.09183 11.6324 6.89928 11.8494 7.44128 12.2834C7.95951 12.6928 8.3081 13.3677 8.3081 14.163C8.3081 14.9585 8.04375 15.6332 7.56142 16.0907C6.93493 16.6813 6.00728 16.9465 4.92259 16.9465C4.682 16.9465 4.46438 16.9343 4.29645 16.9101V19.814H2.47715V19.8138ZM21.2537 26.3523H3.30797V21.113H21.2537V26.3523H21.2537ZM22.8296 13.1988H19.7083V15.0544H22.6244V16.5485H19.7083V19.8138H17.8658V11.6927H22.8296V13.1988Z" fill="currentColor"/>
</svg>
