<svg width="54" height="23" viewBox="0 0 54 23" fill="none" xmlns="http://www.w3.org/2000/svg">
<path d="M0.618706 10.0832C0.619339 10.0827 0.619865 10.082 0.620605 10.0815L11.6425 0.534619C12.4682 -0.18057 13.8038 -0.177909 14.6257 0.54086C15.4475 1.25954 15.4443 2.42196 14.6186 3.13724L7.21851 9.54686H51.8906C53.0556 9.54686 54 10.3688 54 11.3828C54 12.3968 53.0556 13.2187 51.8906 13.2187H7.21862L14.6185 19.6284C15.4442 20.3436 15.4474 21.5061 14.6256 22.2247C13.8037 22.9436 12.468 22.9461 11.6424 22.231L0.620499 12.6841C0.619865 12.6836 0.619339 12.6829 0.618599 12.6824C-0.207539 11.9647 -0.204899 10.7985 0.618706 10.0832Z" fill="currentColor"/>
</svg>
