<svg width="139" height="139" viewBox="0 0 139 139" fill="none" xmlns="http://www.w3.org/2000/svg">
<path d="M92.4255 66.7825L63.5626 45.8014C62.5034 45.0335 61.0972 44.9179 59.9362 45.5146C58.766 46.1067 58.0352 47.3093 58.0352 48.609V90.5574C58.0352 91.8711 58.766 93.0691 59.9362 93.6611C60.4312 93.9109 60.9723 94.0358 61.5181 94.0358C62.2305 94.0358 62.952 93.8091 63.5626 93.3605L92.4255 72.3978C93.3367 71.7271 93.8687 70.691 93.8687 69.5902C93.8733 68.4708 93.3275 67.4393 92.4255 66.7825Z" fill="currentColor"/>
<path d="M69.5023 0.00932252C31.1109 0.00932252 0 31.1202 0 69.5116C0 107.889 31.1109 138.991 69.5023 138.991C107.884 138.991 139 107.885 139 69.5116C139.005 31.1202 107.884 0.00932252 69.5023 0.00932252ZM69.5023 127.395C37.5311 127.395 11.6099 101.488 11.6099 69.5116C11.6099 37.5496 37.5311 11.61 69.5023 11.61C101.469 11.61 127.385 37.545 127.385 69.5116C127.39 101.488 101.469 127.395 69.5023 127.395Z" fill="currentColor"/>
</svg>
