<svg width="47" height="61" viewBox="0 0 47 61" fill="none" xmlns="http://www.w3.org/2000/svg">
<path d="M23.5 0C10.575 0 0 10.3264 0 22.9476C0 35.1862 12.925 51.2495 21.15 59.6636C21.9333 60.4286 22.7167 60.4286 23.5 60.4286C24.2833 60.4286 25.0667 60.0461 25.85 59.6636C34.075 51.2495 47 35.1862 47 22.9476C47 10.3264 36.425 0 23.5 0Z" fill="white"/>
<path d="M23.5 0C10.575 0 0 10.3264 0 22.9476C0 35.1863 12.925 51.2495 21.15 59.6636C21.9333 60.4286 22.7167 60.4286 23.5 60.4286C24.2833 60.4286 25.0667 60.0461 25.85 59.6636C34.075 51.2495 47 35.1863 47 22.9476C47 10.3264 36.425 0 23.5 0ZM23.5 12.6212C17.625 12.6212 12.925 17.2107 12.925 23.33C12.5333 26.0072 13.7083 28.6844 15.6667 30.5967C17.625 32.509 20.3667 33.6564 23.5 33.6564C26.6333 33.6564 28.9833 32.509 30.9417 30.5967C32.9 28.6844 34.075 26.0072 34.075 22.9476C34.075 17.2107 29.375 12.6212 23.5 12.6212ZM23.5 27.5371C20.7583 27.5371 18.8 25.6248 18.8 22.9476C18.8 20.2703 20.7583 18.358 23.5 18.358C25.85 18.358 28.2 20.6528 28.2 22.9476C28.2 25.6248 25.85 27.5371 23.5 27.5371ZM23.5 52.7794C17.2333 45.8951 6.65834 32.8915 6.65834 23.33C6.65834 14.151 14.1 6.88427 23.5 6.88427C32.9 6.88427 40.3417 13.7685 40.3417 22.9476C40.3417 32.509 29.7667 45.8951 23.5 52.7794Z" fill="#07112E"/>
</svg>
