<svg width="82" height="91" viewBox="0 0 82 91" fill="none" xmlns="http://www.w3.org/2000/svg">
<path fill-rule="evenodd" clip-rule="evenodd" d="M26.0903 55.7709C24.9968 55.3335 25.5436 54.3493 25.6529 53.6931C26.1997 52.2715 26.6371 50.7406 26.6371 49.2096C26.6371 48.6628 26.9652 47.8973 27.1839 47.3506C27.84 45.0541 28.2774 42.6483 29.2616 40.5706C28.8242 39.3677 30.1364 39.149 30.3552 38.2741C30.7926 37.2899 31.7768 36.4151 31.7768 35.3216C31.8861 34.1187 33.4171 33.6812 32.8703 32.5877C33.8545 31.3848 34.7293 30.2912 35.7135 29.0883C36.151 28.5416 36.151 27.6667 37.1351 27.448C37.5726 27.448 38.1193 26.6825 38.1193 26.2451C38.5568 24.3861 40.1971 23.73 41.5093 22.7458C42.0561 22.3084 42.3842 21.4335 42.9309 21.1055C43.5871 20.7774 43.5871 19.3558 44.79 19.9026C45.2274 19.1371 45.3367 18.2622 46.4303 18.1529C46.8677 18.0435 47.3051 17.8248 47.7425 17.4967V17.6061C47.7425 17.6061 47.8519 17.6061 47.8519 17.4967C48.18 17.278 48.3987 17.0593 48.7267 16.8406C49.0548 16.7313 49.4922 16.6219 49.7109 16.2938L49.8203 16.1845C50.4764 15.8564 51.0232 15.419 51.6793 15.0909C52.1167 14.8722 52.1167 14.2161 53.3196 14.4348C53.7571 14.4348 54.3038 13.7787 54.8506 13.56C56.3816 13.0132 57.8032 12.6851 59.3341 12.2477C59.9903 12.029 60.537 11.8103 60.9745 11.5916C61.0838 11.4822 61.1932 11.3729 61.1932 11.3729C61.0838 11.2635 60.9745 11.1542 60.6464 11.0448C59.4435 10.9355 58.1312 10.8261 56.9283 10.8261C56.9283 10.8261 56.9283 10.8261 57.0377 10.8261C57.0377 10.9355 56.819 11.0448 56.819 11.0448C56.819 11.0448 56.7096 11.0448 56.6003 10.9355C56.7096 10.8261 56.7096 10.8261 57.0377 10.8261C57.5845 10.17 58.5687 10.0606 59.6622 9.84192C60.209 9.73257 60.6464 9.62321 61.3025 9.51386C61.4119 9.51386 61.5212 9.51386 61.6306 9.4045C62.1774 10.17 62.8335 10.9355 63.3803 11.8103C63.7083 12.3571 63.8177 13.2319 64.1458 13.4506C65.2393 13.9974 64.9112 14.5442 65.1299 14.9816C65.458 15.7471 65.6767 16.4032 66.0048 17.0593V17.1687C66.0048 17.4967 66.2235 17.9342 66.5516 18.2622C66.6609 18.5903 66.6609 18.9184 66.8796 19.3558C66.8796 19.3558 66.8796 19.4651 66.989 19.4651L67.0983 19.3558C67.317 19.9026 67.5357 20.34 67.8638 20.668C68.6293 21.4335 68.3012 22.3084 68.1919 23.0738C69.3948 23.2925 68.6293 24.4954 68.9574 25.1516C69.2854 25.6983 68.9574 26.5732 69.1761 27.3387C69.6135 28.979 70.5977 30.4006 69.8322 32.2596C69.6135 32.5877 69.6135 33.5719 69.9415 33.7906C70.707 34.5561 70.1603 35.2122 70.1603 35.9777C70.2696 37.5087 70.2696 39.0396 70.379 40.5706C69.2854 41.2267 70.2696 42.4296 69.7228 43.5232C69.1761 44.398 69.3948 45.7103 69.1761 46.6944C68.9574 47.5693 69.7228 48.5535 68.7386 49.319C68.4106 51.6154 67.317 53.6931 66.5516 55.9896C66.4422 56.6457 66.2235 57.4112 65.8954 57.8486C65.0206 59.1609 64.4738 60.5825 64.1458 62.1135C63.927 62.6602 63.8177 63.8631 62.6148 63.5351C62.5054 63.8631 62.6148 64.0818 62.6148 63.5351C62.3961 64.4099 62.1774 65.1754 61.0838 65.1754C59.9903 66.7064 58.8967 68.456 57.3658 69.4402C56.6003 69.987 56.0535 70.9712 55.0693 70.9712C54.4132 71.9554 53.7571 72.6115 52.5542 72.5021C52.1167 73.2676 51.57 73.5957 50.9138 73.2676C50.1484 73.0489 50.2577 72.9396 49.9296 73.377C49.9296 73.5957 50.039 73.8144 50.039 74.0331C49.9296 73.9238 49.7109 73.9238 49.6016 73.9238C49.2735 74.1425 49.1642 75.0173 48.508 74.5799C48.2893 74.5799 47.9613 74.6892 47.7425 74.6892C47.6332 74.7986 47.5238 74.908 47.5238 75.0173C47.4145 74.7986 47.3051 74.5799 47.0864 74.2518L46.8677 73.8144L46.7584 73.705C46.9771 73.1583 47.0864 72.8302 47.3051 72.5021C47.4145 72.5021 47.4145 72.3928 47.4145 72.2834C47.4145 72.1741 47.3051 72.0647 47.3051 71.9554C47.5238 71.4086 47.7425 70.8618 48.0706 70.5338L47.9613 69.987L48.3987 69.5496L48.0706 69.1122L48.2893 68.6747L48.18 68.5654C48.0706 68.456 48.18 68.3467 48.3987 68.2373C48.3987 68.0186 48.508 67.6905 48.6174 67.4718L48.7267 67.1438L48.9455 66.7064C48.8361 66.597 48.8361 66.3783 48.9455 66.1596C49.0548 65.9409 49.0548 65.7222 48.9455 65.6128C48.9455 65.3941 48.9454 64.9567 49.0548 64.4099C49.1642 63.8631 49.2735 63.4257 49.2735 63.0976C49.3829 63.0976 49.3829 62.9883 49.3829 62.8789C49.3829 62.7696 49.3829 62.6602 49.4922 62.5509C49.6016 62.4415 49.7109 62.3322 49.6016 62.2228C49.6016 62.1135 49.6016 62.1135 49.7109 62.0041C49.8203 62.0041 49.9296 61.8947 49.8203 61.676C49.8203 61.5667 49.8203 61.4573 49.9296 61.4573C49.9296 61.1293 50.039 60.8012 50.1484 60.3638L50.2577 59.9264L50.3671 59.5983L50.4764 59.4889L50.9138 59.1609C51.0232 59.0515 51.0232 58.9422 50.9138 58.9422L51.0232 58.8328H51.1325C51.2419 58.8328 51.2419 58.8328 51.3513 58.8328C51.898 58.3954 52.5542 57.8486 53.2103 57.1925L55.1787 55.5522C56.819 54.0212 58.1312 52.9277 59.0061 52.1622C59.0061 52.0528 59.0061 51.9435 59.1154 51.8341L59.4435 51.6154C59.4435 51.5061 59.8809 51.0686 60.6464 50.1938C61.3025 49.4283 61.8493 48.9909 62.068 48.8815C61.9587 48.7722 62.068 48.6628 62.1774 48.5535L62.3961 48.3348L62.5054 48.2254C62.6148 48.1161 62.6148 48.1161 62.7241 48.0067C62.7241 47.8974 62.8335 47.8974 62.7241 47.788L63.599 47.1319V46.9132L63.927 46.6944L64.0364 46.3664C64.1458 46.257 64.2551 46.1477 64.3645 45.929C64.4738 45.7103 64.5832 45.6009 64.6925 45.6009C64.5832 45.4915 64.6925 45.3822 64.8019 45.2728L65.0206 45.1635L65.1299 45.0541C65.1299 45.0541 65.2393 44.9448 65.3487 44.7261C65.458 44.6167 65.458 44.5074 65.5674 44.398C65.458 44.2886 65.5674 44.1793 65.5674 44.1793L65.7861 43.9606C65.8954 43.8512 65.8954 43.8512 65.8954 43.7419L66.0048 43.3045L66.4422 42.9764L66.6609 42.6483L66.989 42.2109C67.2077 41.8828 67.4264 41.6641 67.6451 41.4454L67.5357 41.2267L67.8638 40.6799C67.7545 40.5706 67.8638 40.3519 67.9732 40.2425L68.0825 40.1332L68.1919 40.0238C68.1919 39.9145 68.3012 39.8051 68.4106 39.8051C68.4106 39.8051 68.4106 39.5864 68.4106 39.2583C68.5199 38.9303 68.5199 38.8209 68.6293 38.7116L68.3012 38.1648H68.1919H68.0825C68.0825 38.1648 68.1919 37.9461 68.4106 37.618C68.6293 37.2899 68.848 37.1806 68.9574 37.0712C69.0667 36.9619 69.0667 36.8525 69.0667 36.8525H68.7386L68.4106 36.7432C68.1919 36.7432 67.9732 36.7432 67.7545 36.9619C67.6451 37.0712 67.5357 37.1806 67.4264 37.0712C67.317 36.9619 67.2077 37.0712 66.8796 37.2899C66.7703 37.3993 66.6609 37.3993 66.5516 37.3993C66.4422 37.3993 66.4422 37.3993 66.3328 37.3993C66.2235 37.5087 66.0048 37.618 65.7861 37.7274C65.6767 37.5087 65.458 37.5087 65.3487 37.618C65.3487 37.618 65.2393 37.7274 65.1299 37.8367L64.9112 38.1648L63.7083 38.8209C63.7083 38.7116 63.599 38.7116 63.4896 38.8209C63.3803 38.8209 63.3803 38.9303 63.2709 39.0396V38.8209C63.2709 38.7116 63.1616 38.8209 62.9429 38.9303L62.7241 38.7116L61.6306 39.5864L60.537 40.4612C60.3183 40.8986 60.209 41.1174 59.9903 41.2267C59.9903 41.3361 59.9903 41.4454 59.8809 41.5548L59.5529 41.7735L59.4435 42.1016C59.2248 42.2109 59.0061 42.4296 58.7874 42.6483C58.5687 42.867 58.35 43.0857 58.2406 43.3045C58.35 43.4138 58.1312 43.5232 57.9125 43.8512L57.5845 43.9606L57.3658 44.1793C57.147 44.398 56.819 44.7261 56.2722 45.2728L55.7254 45.8196C55.5067 46.0383 55.288 46.257 55.1787 46.3664C55.288 46.5851 55.288 46.6944 55.0693 46.9132C54.96 46.6944 54.8506 46.6944 54.6319 46.9132L54.5225 47.0225C54.4132 47.1319 54.3038 47.1319 54.3038 47.1319C54.3038 47.1319 54.3038 47.0225 54.4132 46.9132L55.3974 46.1477L55.7254 45.7103C55.8348 45.6009 56.0535 45.3822 56.2722 45.1635L56.4909 44.9448L56.7096 44.7261C56.7096 44.6167 56.819 44.5074 56.9283 44.398L57.2564 44.1793C57.3658 44.0699 57.5845 43.7419 58.0219 43.3045C58.2406 43.0857 58.4593 42.867 58.5687 42.7577C58.7874 42.539 58.8967 42.3203 59.0061 42.1016H59.2248V41.9922L59.3341 41.8828V41.6641L58.8967 41.3361L58.678 41.5548C58.5687 41.6641 58.5687 41.7735 58.4593 41.8828C58.35 41.9922 58.35 42.1016 58.2406 42.1016C58.35 42.2109 58.2406 42.3203 58.1312 42.4296L57.8032 42.539C57.9125 42.6483 57.6938 42.7577 57.4751 43.0857L57.1471 43.3045L56.9283 43.5232L56.819 43.8512C56.7096 43.9606 56.3816 44.2886 55.9441 44.8354C55.5067 45.2728 55.288 45.6009 55.1787 45.8196L54.8506 46.0383L54.6319 46.1477C54.3038 46.3664 54.0851 46.4757 53.8664 46.5851C53.6477 46.8038 53.3196 47.1319 52.8822 47.5693V47.2412C52.8822 47.1319 52.8822 47.1319 52.7729 47.0225C52.7729 46.8038 52.7729 46.8038 52.7729 46.6944L53.1009 46.257L53.2103 45.6009C53.2103 45.3822 53.2103 45.0541 53.3196 44.8354L53.2103 44.2886H53.3196C53.5383 44.1793 53.5383 44.0699 53.429 43.7419C53.429 43.5232 53.429 43.1951 53.429 42.867C53.429 42.6483 53.5383 42.3203 53.6477 41.9922C53.6477 41.8828 53.5383 41.7735 53.5383 41.6641C53.5383 41.5548 53.5383 41.4454 53.5383 41.3361L53.6477 41.2267C53.8664 41.1174 53.8664 41.008 53.7571 40.7893L53.8664 40.4612L53.6477 40.0238C53.7571 40.0238 53.7571 39.9145 53.7571 39.8051V39.6957V39.5864C53.8664 39.477 53.9758 39.477 53.8664 39.2583C53.8664 39.149 53.8664 39.0396 54.0851 39.0396C54.0851 38.9303 54.0851 38.7116 54.0851 38.3835L54.1945 37.618C54.3038 36.9619 54.3038 36.6338 54.1945 36.4151V35.9777C54.0851 35.759 54.1945 35.5403 54.4132 35.5403C54.4132 35.4309 54.4132 35.3216 54.4132 35.2122C54.4132 35.1029 54.4132 34.9935 54.4132 34.9935C54.5225 34.9935 54.5225 34.8841 54.4132 34.6654C54.4132 34.5561 54.4132 34.4467 54.5225 34.4467C54.5225 34.1187 54.6319 33.5719 54.6319 32.9158L54.3038 32.697C54.3038 32.8064 54.3038 32.8064 54.3038 32.8064C54.3038 32.8064 54.1945 32.8064 54.1945 32.697L54.0851 32.5877C54.1945 32.4783 54.3038 32.2596 54.3038 31.9316V31.4941V31.1661C54.1945 31.0567 54.3038 30.838 54.4132 30.6193C54.5225 30.4006 54.6319 30.1819 54.5225 30.0725C54.5225 30.0725 54.5225 29.9632 54.5225 29.8538C54.5225 29.7445 54.6319 29.6351 54.6319 29.5258C54.6319 29.1977 54.7412 28.7603 54.7412 28.5416C54.8506 27.5574 54.96 27.0106 54.96 27.0106C54.96 26.9013 54.8506 26.9013 54.7412 27.0106L54.1945 27.9948C54.1945 28.1042 54.3038 28.2135 54.1945 28.3229C54.1945 28.5416 54.1945 28.5416 54.1945 28.6509L53.6477 29.1977L53.5383 29.4164L53.429 29.7445C53.3196 30.0725 53.2103 30.1819 53.1009 30.2912C53.1009 30.4006 53.1009 30.51 53.1009 30.6193C53.1009 30.7287 53.1009 30.838 53.1009 30.9474C52.8822 31.2754 52.6635 31.6035 52.6635 31.8222C52.6635 31.9316 52.7729 32.0409 52.7729 32.0409C52.7729 32.1503 52.7729 32.2596 52.6635 32.2596C52.7729 32.369 52.6635 32.5877 52.5542 32.8064L52.3354 33.0251L52.1167 33.2438C52.1167 33.3532 52.1167 33.3532 52.1167 33.4625C52.1167 33.5719 52.1167 33.5719 52.1167 33.6812C51.898 33.7906 51.7887 33.8999 52.0074 34.1187C52.0074 34.1187 51.7887 34.5561 51.57 35.2122C51.4606 35.5403 51.3513 35.759 51.2419 35.9777C51.1325 36.1964 51.0232 36.3058 51.0232 36.4151C51.0232 36.5245 51.0232 36.5245 51.0232 36.6338V36.9619C51.0232 37.1806 50.9138 37.3993 50.8045 37.3993L50.4764 37.9461C50.4764 38.0554 50.5858 38.1648 50.4764 38.2741C50.4764 38.3835 50.4764 38.4928 50.4764 38.6022L50.039 39.5864V40.2425L49.9296 40.4612H49.6016V40.7893V41.008V41.2267C49.4922 41.6641 49.3829 41.8828 49.2735 41.9922C49.2735 41.9922 49.1642 41.9922 49.0548 41.8828L48.9455 41.7735C48.9455 41.6641 48.9455 41.5548 48.9455 41.4454C48.9455 41.3361 48.9455 41.2267 48.9455 41.2267C49.0548 41.2267 49.0548 41.1174 48.9455 40.8987V40.7893L49.0548 40.6799L49.1642 39.5864C49.2735 39.477 49.3829 38.9303 49.3829 38.0554C49.4922 37.1806 49.4922 36.6338 49.4922 36.5245C49.7109 36.4151 49.7109 36.4151 49.6016 36.3058L49.4922 36.1964L49.3829 36.087C49.6016 35.8683 49.6016 35.5403 49.6016 35.1028C49.6016 34.9935 49.6016 34.9935 49.6016 34.8841C49.6016 34.7748 49.6016 34.6654 49.6016 34.5561L49.7109 34.3374V34.1187C49.7109 33.8999 49.7109 33.7906 49.7109 33.6812C49.7109 33.5719 49.6016 33.5719 49.4922 33.5719C49.4922 33.5719 49.3829 33.5719 49.2735 33.5719L49.1642 33.7906L49.0548 34.1187C49.0548 34.3374 49.0548 34.5561 49.0548 34.6654C48.8361 34.7748 48.8361 34.8841 48.7267 35.1028C48.7267 35.3216 48.7267 35.5403 48.8361 35.6496L48.2893 36.7432C48.2893 36.8525 48.2893 36.9619 48.2893 37.1806L48.18 37.3993L48.0706 37.618C48.18 37.8367 48.18 38.0554 48.0706 38.4928L47.8519 39.0396V39.2583L47.7425 39.477C47.7425 39.5864 47.7425 39.6957 47.7425 39.6957C47.7425 39.8051 47.7425 39.9145 47.7425 39.9145C47.6332 39.9145 47.5238 40.3519 47.1958 41.1174C46.9771 41.8828 46.7584 42.2109 46.649 42.2109C46.649 42.3203 46.5396 42.3203 46.5396 42.4296V42.7577C46.5396 42.9764 46.5396 43.0857 46.3209 43.1951C46.2116 43.1951 46.2116 43.1951 46.2116 43.0857C46.1022 42.867 46.1022 42.6483 46.2116 42.2109L46.3209 41.6641C46.4303 41.5548 46.4303 41.3361 46.4303 41.2267C46.4303 41.1174 46.4303 41.1174 46.4303 41.008C46.4303 40.8986 46.4303 40.7893 46.4303 40.7893H46.5396C46.649 40.7893 46.649 40.6799 46.649 40.6799C46.649 40.6799 46.5396 40.6799 46.5396 40.5706H46.4303L46.2116 40.0238L46.3209 39.5864L46.4303 39.3677L46.649 38.2741C46.5396 38.0554 46.4303 38.0554 46.3209 37.9461L46.2116 37.8367H46.1022C45.8835 37.9461 45.7742 38.0554 45.7742 38.2741C45.7742 38.3835 45.7742 38.6022 45.7742 38.7116L45.5555 39.0396C45.4461 39.3677 45.4461 39.5864 45.5555 39.9145L45.4461 40.2425C45.5555 40.4612 45.4461 40.5706 45.3367 40.4612V40.5706V40.6799C45.3367 40.6799 45.2274 40.6799 45.2274 40.5706C45.118 40.3519 45.118 40.1332 45.118 39.9145C45.118 39.8051 45.118 39.8051 45.118 39.6957C45.118 39.5864 45.118 39.477 45.118 39.477H45.2274C45.3367 39.3677 45.3367 39.3677 45.3367 39.3677H45.2274L45.118 39.2583C45.118 39.149 44.8993 39.149 44.5713 39.149C44.3526 39.149 44.1338 39.0396 44.0245 38.9303C43.9151 38.2741 44.0245 37.618 44.2432 36.8525C44.2432 36.7432 44.3526 36.7432 44.3526 36.6338L44.6806 37.2899C44.79 37.2899 44.79 37.1806 44.79 37.0712C44.6806 36.9619 44.79 36.8525 44.8993 36.7432C44.79 36.6338 44.79 36.4151 44.8993 36.1964C44.8993 35.9777 44.8993 35.759 44.8993 35.6496C44.6806 35.759 44.6806 35.8683 44.5713 36.1964C44.5713 36.4151 44.5713 36.6338 44.6806 36.7432C44.5713 36.8525 44.4619 36.9619 44.4619 37.2899C44.4619 37.5087 44.3526 37.7274 44.2432 37.8367C44.0245 38.3835 43.9151 39.0396 43.6964 39.9145C43.6964 40.0238 43.6964 40.0238 43.6964 40.1332L43.5871 40.3519C43.4777 40.5706 43.4777 40.7893 43.4777 40.8987C43.4777 41.5548 43.259 42.1016 43.0403 42.539L43.1497 42.867C43.1497 42.9764 43.1497 43.0857 43.1497 43.1951C43.259 43.4138 43.1497 43.5232 43.0403 43.7419C42.9309 43.9606 42.9309 44.0699 42.9309 44.1793L42.8216 45.2728C42.7122 45.2728 42.7122 45.4915 42.8216 45.7103C42.8216 45.929 42.8216 46.1477 42.6029 46.257V46.6944L42.7122 46.9132C42.7122 47.0225 42.7122 47.0225 42.6029 47.1319L42.4935 47.788C42.2748 47.8974 42.2748 48.0067 42.3842 48.3348L42.2748 48.7722L42.1655 49.2096C42.1655 49.5377 42.1655 49.8657 42.2748 49.9751L41.9468 50.4125C41.8374 50.5219 41.728 50.6312 41.8374 50.9593C41.9468 51.178 41.8374 51.3967 41.6187 51.5061C41.5093 51.5061 41.5093 51.6154 41.6187 51.8341C41.6187 51.9435 41.6187 51.9435 41.5093 51.9435L41.4 52.1622C41.4 52.2715 41.4 52.3809 41.4 52.4902C41.4 52.5996 41.4 52.709 41.4 52.8183V53.3651L41.1813 53.8025C41.2906 53.9119 41.2906 54.1306 41.1813 54.3493C41.0719 54.568 41.0719 54.6773 41.1813 54.7867C41.0719 55.0054 40.8532 55.2241 40.6345 55.6615V56.2083C40.5251 56.2083 40.5251 56.3177 40.5251 56.5364L40.3064 56.3177L40.0877 55.9896C40.0877 55.8802 39.9784 55.5522 39.7597 55.1148C39.541 54.6773 39.4316 54.3493 39.3222 54.2399V54.0212L39.1035 53.8025L38.8848 53.5838C38.6661 53.3651 38.6661 53.1464 38.6661 53.1464L38.4474 52.9277C38.338 52.8183 38.338 52.709 38.4474 52.709C38.4474 52.709 38.338 52.5996 38.338 52.4902C38.338 52.3809 38.2287 52.2715 38.2287 52.2715L38.1193 51.9435L37.9006 51.7248L37.7913 51.9435L37.9006 52.0528C37.9006 52.1622 37.9006 52.1622 37.9006 52.1622L38.1193 52.2715C38.1193 52.4902 38.2287 52.709 38.338 52.9277C38.4474 53.1464 38.5568 53.2557 38.6661 53.4744C38.8848 53.9119 39.1035 54.2399 39.1035 54.3493L39.3222 54.568C39.4316 54.6773 39.4316 54.7867 39.4316 54.896L39.5409 55.1148L39.6503 55.3335C39.7597 55.5522 39.869 55.7709 39.9784 55.8802L40.0877 56.3177L40.6345 57.0831V57.1925L40.5251 57.0831C40.4158 56.9738 40.3064 56.8644 40.1971 56.9738C40.0877 56.7551 40.0877 56.6457 40.1971 56.5364C40.0877 56.427 39.9784 56.2083 39.869 55.9896L39.5409 55.4428C39.3222 54.896 39.1035 54.568 38.8848 54.3493L38.7755 54.1306L38.5568 53.9119C38.3381 53.5838 38.338 53.4744 38.338 53.3651C38.338 53.2557 38.2287 53.037 38.01 52.709C37.9006 52.4902 37.7913 52.3809 37.5726 52.1622V51.9435L37.3539 51.7248C37.2445 51.6154 37.2445 51.5061 37.3539 51.5061C37.2445 51.3967 37.1351 51.0686 37.1351 50.7406L36.479 49.8657L35.8229 48.9909L35.6042 49.1003C35.4948 48.9909 35.3855 48.8815 35.3855 48.9909L35.2761 49.1003C35.2761 48.9909 35.1668 48.9909 35.1668 48.8815C35.0574 48.7722 35.0574 48.7722 34.9481 48.8815L34.1826 48.1161L34.0732 47.8973C34.0732 47.788 33.9639 47.6786 33.9639 47.6786C33.8545 47.5693 33.7452 47.5693 33.6358 47.6786C33.5264 47.4599 33.4171 47.3506 33.3077 47.3506C33.1984 47.2412 33.1984 47.2412 33.089 47.2412C32.9797 47.2412 32.8703 47.2412 32.8703 47.1319C32.6516 46.9132 32.5423 46.8038 32.4329 46.8038C32.3235 46.8038 32.2142 46.8038 32.2142 46.5851C32.1048 46.4757 31.9955 46.3664 31.7768 46.257H31.5581H31.3393C31.23 46.257 31.23 46.3664 31.3393 46.4757C31.4487 46.5851 31.5581 46.6944 31.6674 47.0225C31.7768 47.3506 31.8861 47.4599 31.8861 47.4599C31.8861 47.4599 31.8861 47.4599 31.7768 47.4599H31.6674L31.23 47.788C31.23 47.788 31.23 48.0067 31.23 48.2254C31.23 48.4441 31.23 48.5535 31.1206 48.5535C31.1206 48.6628 31.23 48.6628 31.23 48.7722V48.8815V48.9909C31.3394 49.1002 31.3394 49.2096 31.23 49.319L31.3393 49.7564L31.23 49.8657C31.3394 49.9751 31.4487 50.3032 31.5581 50.5219L31.7768 50.9593L31.8861 51.2873L32.1048 51.6154V51.9435V52.0528L32.2142 52.2715C32.2142 52.3809 32.2142 52.3809 32.2142 52.4902C32.2142 52.5996 32.3235 52.709 32.3235 52.709C32.3235 52.8183 32.4329 52.9277 32.4329 52.9277L32.5423 53.037L32.6516 53.1464C32.761 53.2557 32.761 53.3651 32.6516 53.3651C32.6516 53.4744 32.761 53.5838 32.8703 53.6931C32.9797 53.9119 32.9797 54.0212 33.089 54.0212V54.2399L33.3077 54.4586V54.6773L33.8545 55.4428V55.5522C33.8545 55.6615 33.8545 55.6615 33.9639 55.7709L34.0732 55.8802L34.2919 56.0989C34.4013 56.2083 34.4013 56.3177 34.2919 56.427C34.4013 56.6457 34.7293 57.0831 35.1668 57.7393C35.6042 58.5047 35.8229 58.9422 35.8229 59.0515L36.0416 59.2702C36.151 59.3796 36.151 59.4889 36.0416 59.4889C36.5884 60.2544 37.3539 61.348 38.338 62.8789L39.1035 63.9725C38.9942 64.0818 38.9942 64.1912 39.1035 64.4099C39.1035 64.5193 39.1035 64.6286 39.1035 64.6286C39.1035 64.738 38.9942 64.738 38.8848 64.738C38.9942 64.8473 38.8848 65.066 38.7755 65.2847V65.6128L38.1193 66.2689C38.2287 66.3783 38.2287 66.597 38.1193 66.8157C38.01 67.0344 38.1193 67.2531 38.1193 67.3625L38.7755 67.2531V67.5812L38.9942 68.2373C38.6661 68.3467 38.5568 68.6747 38.5568 69.2215L38.01 70.4244C37.9006 70.5338 37.7913 70.6431 37.9006 71.0805V71.4086C37.9006 71.518 37.7913 71.6273 37.7913 71.6273L37.6819 72.1741C37.5726 72.1741 37.4632 72.2834 37.3539 72.1741C37.2445 72.0647 37.1351 72.1741 37.0258 72.1741C36.9164 71.9554 37.0258 71.7367 37.2445 71.518H37.0258C36.9164 71.6273 36.8071 71.6273 36.9164 71.846C36.8071 71.9554 36.6977 72.0647 36.6977 72.3928C36.6977 72.7209 36.5884 72.8302 36.479 72.9396V73.1583V73.4863C36.479 73.705 36.3697 73.9238 36.2603 73.9238C36.2603 74.0331 36.151 74.2518 36.151 74.5799L35.9322 75.0173V75.3454C34.8387 75.3454 33.7452 75.3454 32.5423 75.236C32.3235 75.1267 32.1048 75.0173 31.7768 74.908C31.6674 74.908 31.6674 74.3612 31.6674 73.9238C31.5581 73.8144 31.23 73.4863 31.1206 73.377C30.2458 73.377 30.6832 72.6115 30.5739 72.1741C30.4645 72.1741 30.2458 72.0647 30.1364 72.0647C30.2458 71.9554 30.4645 71.7367 30.5739 71.6273C30.5739 71.0805 30.5739 71.1899 29.9177 70.8618C29.2616 70.7525 28.9335 70.0963 29.0429 69.2215C28.0587 68.6747 27.9494 67.5812 27.9494 66.4876C27.0745 65.9409 27.2932 64.738 26.9652 63.8631C26.309 62.1135 26.4184 60.0357 26.4184 58.1767C25.4342 57.5206 25.7623 56.7551 26.0903 55.7709C25.7623 56.3177 25.8716 56.0989 26.0903 55.7709ZM14.3894 50.5219C13.7332 49.319 13.0771 48.0067 12.6397 46.6944C11.6555 46.257 12.3116 45.2728 11.9836 44.6167C11.6555 43.7419 11.7649 42.6483 11.2181 41.9922C10.6713 41.2267 11.3274 40.0238 10.3433 39.6957C10.2339 38.3835 10.1245 37.1806 10.1245 35.8683C10.0152 35.2122 9.57777 34.7748 10.1245 34.0093C10.3433 33.7906 10.3433 33.0251 10.0152 32.697C9.031 31.3848 9.68713 29.9632 9.90583 28.6509C10.0152 27.9948 9.68713 27.3387 9.90583 26.7919C10.1245 26.1358 9.35906 25.2609 10.3433 25.0422C10.1245 24.3861 9.79648 23.73 10.3433 22.9645C10.562 22.6364 10.6713 22.199 10.7807 21.7616L10.89 21.8709V21.7616C10.9994 21.4335 10.9994 21.1055 11.1087 20.8867C11.3274 20.5587 11.4368 20.2306 11.4368 19.9026V19.7932C11.6555 19.1371 11.7649 18.5903 11.9836 18.0435C12.2023 17.6061 11.7649 17.278 12.6397 16.6219C12.8584 16.4032 12.8584 15.6377 13.1865 15.2003C13.5145 14.5442 13.8426 13.9974 14.1707 13.4506C14.6081 13.56 15.1549 13.6693 15.5923 13.7787C16.9045 13.9974 18.2168 14.1068 19.6384 14.3255C20.1852 14.4348 20.7319 14.8722 21.06 14.8722C22.0442 14.5442 22.1536 15.0909 22.591 15.2003C23.2471 15.419 23.7939 15.6377 24.3407 15.9658L24.45 16.0751C24.6687 16.2938 24.9968 16.2938 25.3248 16.4032C25.6529 16.5126 25.8716 16.7313 26.1997 16.8406H26.309V16.7313C26.7465 16.95 27.1839 17.0593 27.5119 17.0593C28.4961 17.0593 28.7148 17.7155 29.1523 18.2622C29.4803 18.0435 29.699 18.0435 29.8084 18.1529C29.2616 18.6996 28.7148 19.4651 28.2774 20.1213C25.8716 23.0738 23.4658 25.8077 21.7161 29.0883C19.7478 32.4783 18.1074 35.9777 16.7952 39.5864C16.1391 41.8828 15.3736 44.2886 14.8268 46.8038C14.7174 47.1319 14.7174 47.5693 14.7174 47.788C14.7174 48.6628 14.7174 49.5377 14.3894 50.5219ZM37.3539 12.1384C37.2445 12.029 37.1351 12.029 36.9164 11.9197C35.3855 11.2635 33.9639 10.2793 32.4329 9.62321C30.5739 8.74837 28.4961 8.2016 26.6371 7.54547C25.2155 7.10805 23.5752 6.9987 22.0442 6.56128V6.77999C21.8255 6.88934 21.7161 6.9987 21.4974 7.10805C21.2787 6.88934 21.2787 6.67064 21.06 6.56128C20.5132 6.34257 19.7478 6.34257 19.0916 6.12386C17.7794 5.68644 16.139 6.12386 15.0455 5.68644C14.9361 5.68644 14.4987 5.7958 14.1707 5.90515C14.0613 5.90515 13.8426 6.01451 13.7332 6.12386C13.8426 6.12386 13.952 6.12386 14.1707 6.23322C14.7174 6.23322 15.0455 6.34257 15.5923 6.34257C15.0455 6.45193 14.4987 6.67064 14.0613 6.67064V6.77999C14.0613 6.67063 14.0613 6.56128 14.0613 6.56128C13.8426 6.12386 13.7332 5.57709 12.7491 5.90515C12.421 6.12386 12.2023 6.34257 11.8742 6.45193C11.6555 6.56128 10.89 6.77999 11.7649 6.01451C11.7649 6.01451 11.8742 5.68644 11.9836 5.57709C12.0929 5.46773 11.9836 5.35838 12.0929 5.24902C11.9836 5.35838 11.8742 5.35838 11.7649 5.46773C11.5462 5.68644 11.2181 5.90515 10.89 6.23322C10.4526 6.45193 10.1245 6.77999 9.68713 7.10805C10.0152 6.67064 10.2339 6.34257 10.4526 5.90515C10.4526 5.7958 10.562 5.68644 10.6713 5.57709C10.4526 5.57709 10.2339 5.68644 10.1245 5.68644C10.0152 5.90515 9.57777 6.12386 9.46842 6.23322C9.031 7.43612 7.71874 8.42031 7.28132 9.73257C7.06261 10.2793 6.62519 10.9355 6.40648 11.4822C6.29713 11.701 6.51584 11.9197 6.62519 12.1384C6.40648 12.2477 6.18777 12.3571 5.96907 12.4664L5.85971 12.2477C5.31294 13.6693 4.32875 14.9816 3.78197 16.5126C3.01649 18.3716 2.25101 20.34 1.81359 22.3084C1.37617 23.9487 1.26681 25.6983 0.829396 27.3387C0.501332 28.7603 0.720041 30.1819 0.173268 31.7129C-0.154796 32.697 0.0639133 33.9 0.173268 34.8841C0.391977 38.0554 0.501332 41.2267 1.15746 44.2886C1.92294 47.4599 2.79778 50.6312 4.21939 53.5838C5.09423 55.4428 6.07842 57.1925 7.17197 59.0515C7.28132 59.2702 7.50003 59.5983 7.71874 59.7077C8.26551 60.3638 8.92164 60.9106 9.24971 61.7854C9.46842 62.4415 10.2339 62.8789 10.89 63.3164C11.2181 63.5351 11.7649 63.5351 12.0929 63.6444C12.7491 63.9725 11.6555 64.1912 11.9836 64.6286C12.5303 65.2847 12.9678 66.1596 13.7332 66.2689C15.1549 66.597 15.4829 68.3467 17.0139 68.456C17.7794 70.7525 18.8729 72.8302 19.9665 74.5799C21.2787 76.4389 22.8097 78.4073 24.3407 80.157C25.981 81.9066 28.8242 82.6721 27.7306 83.7657C29.9177 85.1873 29.9177 86.6089 37.4632 89.4521V89.6708C37.5726 89.8895 37.6819 89.9989 38.01 89.8895C38.1193 89.8895 38.1193 89.7802 38.2287 89.7802C38.6661 89.9989 39.2129 90.1083 39.7597 90.327C40.1971 89.7802 40.6345 89.4521 41.2906 90.2176C41.4 90.327 42.1655 90.1083 42.6029 89.7802C43.1497 89.3428 43.6964 88.3586 44.4619 88.3586C45.3367 88.2492 44.79 86.7183 45.8835 87.1557C45.8835 87.1557 46.2116 86.6089 46.3209 86.2808C46.4303 85.8434 46.1022 85.406 45.7742 84.9686C46.1022 83.9844 48.3987 84.8592 50.5858 84.5312C52.7729 84.0937 55.1787 83.4376 57.2564 82.7815C60.7558 81.4692 64.6925 78.9541 67.5357 75.8921C69.1761 75.5641 69.3948 73.4863 70.9257 72.8302C71.8006 72.6115 72.1286 71.4086 72.6754 70.5338C73.0035 70.0963 71.6912 69.987 72.4567 69.4402C72.7848 69.2215 73.4409 69.1122 73.769 68.7841C74.4251 68.128 75.1906 67.4718 75.4093 66.7064C75.628 65.6128 76.2841 64.8473 76.8309 63.9725C77.0496 63.7538 77.2683 63.4257 77.2683 63.0976C78.2525 60.8012 79.018 58.3954 79.7835 56.0989C80.877 52.3809 81.5331 48.5535 81.8612 44.6167C82.1893 40.8986 81.8612 37.1806 81.6425 33.3532C81.6425 32.1503 81.7519 30.7287 81.2051 29.5258C80.3302 27.7761 80.4396 26.0264 79.7835 24.3861C79.018 22.5271 78.6899 20.4493 77.9244 18.5903C77.159 16.2938 75.8467 14.1068 74.7532 12.029C73.8783 10.3887 72.6754 8.96708 71.6912 7.32676L71.4725 7.54547C71.2538 7.43612 71.0351 7.43612 70.8164 7.32676C70.8164 6.9987 71.0351 6.77999 70.9257 6.45193C70.5977 5.7958 70.0509 5.13967 69.7228 4.48354C68.9574 3.06193 67.317 2.07774 66.6609 0.765483C66.5516 0.656128 66.1141 0.328064 65.8954 0.218709C65.7861 0.109355 65.458 0.109355 65.3487 0.109355C65.458 0.218709 65.5674 0.328064 65.6767 0.546773C66.1141 0.984192 66.3328 1.42161 66.7703 1.85903C66.2235 1.42161 65.6767 1.2029 65.2393 0.874837C64.9112 0.656128 64.4738 0.437419 64.1458 0.109355C64.0364 0 63.927 0 63.7083 0C63.8177 0.109355 63.7083 0.218709 63.8177 0.437419C63.927 0.546773 64.0364 0.874837 64.1458 0.984192C65.1299 1.74967 64.3645 1.64032 64.0364 1.53097C63.599 1.42161 63.2709 1.09355 62.9429 0.984192C61.8493 0.656128 61.8493 1.31226 61.6306 1.85903C61.4119 2.29645 62.068 2.51516 62.3961 2.84322C62.8335 3.28064 63.1616 3.6087 63.3803 3.93677L63.2709 4.37419C63.1616 4.37419 63.0522 4.48354 62.9429 4.37419C62.6148 4.15548 62.1774 3.93677 61.8493 3.6087C61.1932 3.17129 60.6464 2.95258 60.3183 3.28064C60.209 3.17129 59.9903 3.17129 59.8809 3.17129C59.6622 3.17129 59.1154 3.06193 58.8967 3.06193C57.6938 3.71806 55.7254 3.49935 54.3038 4.26483C53.6477 4.5929 52.7729 4.81161 52.2261 5.03031C51.898 5.13967 52.0074 5.57709 51.7887 5.7958C51.57 5.68644 51.4606 5.57709 51.2419 5.57709V5.24902C49.6016 6.01451 47.7425 6.34257 46.1022 7.10805C44.0245 8.09225 41.728 9.18579 39.7597 10.498C38.9942 11.0448 38.2287 11.5916 37.3539 12.1384ZM14.4987 12.7945C14.7174 12.4664 14.9361 12.029 15.1549 11.7009C16.0297 11.8103 16.9045 11.8103 17.4513 12.2477C17.67 12.2477 17.67 12.2477 17.8887 12.3571C17.7794 12.4664 17.67 12.4664 17.67 12.4664C17.67 12.3571 17.4513 12.3571 17.4513 12.2477C17.5607 12.2477 17.5607 12.2477 17.5607 12.2477L14.4987 12.7945ZM13.6239 11.4822L12.8584 12.1384C12.8584 12.1384 12.8584 12.1384 12.9678 12.029C12.9678 12.1384 12.9678 12.2477 12.9678 12.2477C12.9678 12.2477 12.8584 12.3571 12.7491 12.3571C12.8584 12.2477 12.8584 12.2477 12.9678 12.029C12.9678 11.8103 12.9678 11.5916 13.0771 11.3729C13.1865 11.4822 13.4052 11.4822 13.6239 11.4822ZM13.8426 10.0606C13.8426 9.95127 13.952 9.95128 13.952 9.84192C14.0613 9.84192 14.0613 9.73257 14.1707 9.62321C14.3894 9.62321 14.6081 9.62321 14.9361 9.62321H15.0455C14.9361 9.73257 14.9361 9.84192 14.8268 9.84192L13.8426 10.0606ZM14.1707 7.54547C14.0613 7.65483 13.952 7.65483 13.8426 7.76418C13.5145 7.87354 13.2958 7.98289 12.9678 8.09225C13.0771 7.87354 13.1865 7.65483 13.4052 7.43612C13.4052 7.43612 13.4052 7.43612 13.5145 7.32676H13.6239C14.28 7.32676 14.28 7.43612 14.1707 7.54547ZM51.3513 55.4428C51.3513 55.3335 51.4606 55.2241 51.4606 55.2241L51.57 54.7867L51.6793 54.6773H51.898C52.0074 54.568 52.2261 54.4586 52.4448 54.3493L52.7729 54.2399L52.9916 54.1306L52.1167 54.896C51.7887 55.0054 51.57 55.2241 51.3513 55.4428ZM51.6793 53.1464C51.7887 53.037 51.6793 53.1464 51.6793 53.1464V53.1464ZM40.0877 67.0344L40.1971 66.4876C40.0877 66.3783 39.9784 66.1596 39.869 66.0502C39.7597 66.4876 39.6503 66.7064 39.4316 66.8157L39.2129 65.9409C39.3222 65.9409 39.4316 65.9409 39.4316 65.8315C39.541 65.7222 39.5409 65.6128 39.5409 65.6128L39.6503 65.5034L39.2129 64.9567V64.8473V64.9567C39.3222 65.066 39.3222 65.1754 39.2129 65.2847C39.2129 65.3941 39.1035 65.5034 38.9942 65.5034L38.8848 66.0502L38.7755 66.597L39.2129 66.9251C39.3222 66.9251 39.3222 66.9251 39.3222 67.0344C39.3222 67.0344 39.3222 67.2531 39.2129 67.5812V67.9093V68.0186C39.2129 68.128 39.2129 68.128 39.2129 68.2373C39.2129 68.3467 39.2129 68.3467 39.1035 68.3467C38.9942 68.6747 38.8848 69.0028 38.9942 69.2215L38.6661 69.8776V70.315L39.2129 70.0963C39.3222 70.0963 39.3222 69.8776 39.3222 69.5496C39.3222 69.2215 39.3222 69.0028 39.2129 68.8934L39.4316 68.456C39.4316 68.3467 39.4316 68.3467 39.4316 68.3467H39.5409L39.6503 68.456C39.7597 68.456 39.869 68.456 39.869 68.456V68.3467C39.869 68.2373 39.9784 68.128 39.869 68.0186C39.869 67.9093 39.869 67.7999 39.7597 67.7999C39.869 67.6905 39.9784 67.3625 40.0877 67.0344ZM46.5396 56.5364L46.8677 56.2083V56.0989C46.9771 56.0989 46.9771 55.9896 46.9771 55.9896L46.7584 56.2083H46.649L46.5396 56.5364C46.649 56.427 46.649 56.5364 46.5396 56.5364ZM47.5238 53.037C47.4145 53.037 47.3051 53.1464 47.1958 53.2557L47.3051 52.8183L47.6332 52.5996C47.6332 52.3809 47.5238 52.2715 47.5238 52.0528C47.7425 51.9435 47.7425 51.8341 47.8519 51.7248C47.8519 51.5061 47.8519 51.5061 47.9613 51.3967L47.8519 51.0686C47.8519 50.9593 47.7425 50.9593 47.7425 50.8499C47.6332 50.8499 47.6332 50.7406 47.5238 50.8499C47.5238 50.9593 47.6332 51.0686 47.5238 51.2873C47.5238 51.5061 47.5238 51.6154 47.5238 51.7248C47.3051 51.9435 47.1958 52.1622 47.3051 52.3809L47.1958 52.5996C47.1958 52.709 47.1958 52.709 47.1958 52.8183C47.1958 52.9277 47.1958 52.9277 47.0864 52.9277C46.9771 53.1464 46.9771 53.2557 47.0864 53.3651C47.0864 53.4744 47.1958 53.4744 47.3051 53.4744C47.4145 53.2557 47.5238 53.1464 47.5238 53.037ZM46.649 51.5061V51.7248C46.7584 51.8341 46.7584 51.9435 46.7584 51.9435L46.649 51.6154V51.5061ZM53.7571 53.2557L53.8664 53.037C53.8664 52.9277 53.9758 52.8183 53.8664 52.8183C53.8664 52.8183 53.8664 52.8183 53.7571 52.8183C53.3196 53.2557 53.1009 53.5838 53.2103 53.5838C53.2103 53.5838 53.3196 53.5838 53.3196 53.4744L53.7571 53.2557ZM54.0851 47.4599L53.6477 47.6786L53.3196 47.8973V48.0067L53.6477 47.788L54.0851 47.4599ZM47.3051 75.236C47.1958 75.3454 47.0864 75.4547 46.9771 75.4547C46.649 75.3454 46.4303 75.3454 46.2116 75.236C46.3209 74.9079 46.3209 74.5799 46.4303 74.2518L46.9771 75.0173C47.1958 75.1267 47.3051 75.236 47.3051 75.236ZM39.7597 61.8947V61.676V61.5667C39.7597 61.5667 39.7597 61.5667 39.869 61.4573C40.0877 61.8947 40.1971 62.1135 40.1971 62.2228C40.1971 62.2228 40.1971 62.2228 40.0877 62.1135L39.7597 61.8947ZM37.4632 75.3454H36.9164C36.9164 75.3454 36.9164 75.3454 36.9164 75.236L37.0258 75.1267C37.0258 75.0173 37.0258 74.908 37.1351 74.5799C37.1351 74.3612 37.2445 74.1425 37.3539 73.8144C37.5726 73.0489 37.6819 72.6115 37.6819 72.6115L37.7913 72.5021C37.9006 72.3928 38.01 72.5021 38.1193 72.6115C38.1193 72.7209 38.1193 72.7209 38.1193 72.8302C38.1193 72.8302 38.1193 72.9396 38.1193 73.0489C38.01 73.1583 37.9006 73.377 37.6819 73.9238L37.5726 74.2518L37.4632 74.4705C37.4632 74.6892 37.3539 74.7986 37.3539 74.7986C37.5726 74.9079 37.5726 75.0173 37.4632 75.3454C37.4632 75.236 37.4632 75.236 37.4632 75.3454ZM49.2735 43.8512C49.0548 44.0699 48.9455 44.2886 48.9455 44.5074L48.7267 44.398C48.6174 44.6167 48.6174 44.8354 48.7267 45.0541C48.8361 45.2728 48.7267 45.3822 48.6174 45.6009C48.508 45.8196 48.508 46.0383 48.508 46.1477C48.3987 46.257 48.3987 46.3664 48.3987 46.4757C48.2893 46.5851 48.2893 46.6944 48.3987 46.8038C48.3987 46.9132 48.508 46.9132 48.6174 46.9132L48.7267 46.8038C48.7267 46.8038 48.8361 46.6944 48.8361 46.4757L49.0548 46.1477C49.1642 45.8196 49.2735 45.4915 49.1642 45.2728V44.7261C49.3829 44.6167 49.3829 44.5074 49.3829 44.2886C49.2735 44.1793 49.2735 44.0699 49.2735 43.8512ZM37.5726 69.5496L37.4632 69.1122L37.7913 68.8934C37.7913 68.6747 37.7913 68.456 38.01 68.2373L37.7913 67.7999L38.2287 67.5812V67.4718C38.2287 67.3625 38.2287 67.3625 38.2287 67.3625C38.2287 67.3625 38.338 67.3625 38.4474 67.4718L38.5568 67.5812V68.0186C38.7755 68.3467 38.5568 68.6747 38.01 68.8934L37.5726 69.5496ZM37.4632 69.5496L37.6819 70.0963C37.6819 70.2057 37.6819 70.315 37.5726 70.315C37.5726 70.4244 37.4632 70.4244 37.3539 70.4244L37.4632 69.5496ZM46.7584 50.8499C46.8677 50.8499 46.8677 50.7406 46.8677 50.7406C46.8677 50.6312 46.9771 50.6312 46.8677 50.5219C46.8677 50.4125 46.7584 50.4125 46.7584 50.3032C46.649 50.1938 46.5396 50.1938 46.5396 50.1938V50.3032L46.649 50.4125L46.7584 50.5219C46.7584 50.6312 46.7584 50.7406 46.649 50.7406L46.7584 50.8499H46.8677C46.8677 51.0686 46.8677 50.9593 46.7584 50.8499ZM49.6016 43.0857C49.4922 42.9764 49.4922 42.867 49.2735 42.9764C49.1642 43.0857 49.0548 43.0857 49.1642 43.1951L49.6016 43.0857ZM43.3684 52.8183C43.3684 52.8183 43.259 52.709 43.3684 52.8183C43.259 52.709 43.259 52.5996 43.1497 52.709C43.0403 52.8183 43.0403 52.709 43.0403 52.8183V52.9277C43.1497 52.9277 43.259 52.9277 43.3684 52.8183ZM43.0403 54.568C42.9309 54.568 42.9309 54.568 43.0403 54.568C42.9309 54.4586 42.9309 54.3493 42.8216 54.4586C42.7122 54.568 42.7122 54.4586 42.7122 54.568V54.6773C42.8216 54.6773 42.8216 54.6773 43.0403 54.568ZM43.0403 54.1306C42.9309 54.0212 42.9309 53.9119 42.8216 54.0212V54.1306C42.8216 54.2399 42.9309 54.2399 43.0403 54.1306ZM45.0087 46.3664C45.0087 46.257 44.8993 46.257 44.79 46.257C44.8993 46.3664 44.8993 46.4757 45.0087 46.3664C45.0087 46.3664 45.118 46.3664 45.0087 46.3664ZM40.6345 68.456C40.5251 68.456 40.5251 68.456 40.6345 68.456C40.5251 68.5654 40.6345 68.5654 40.7439 68.5654H40.8532C40.8532 68.5654 40.8532 68.5654 40.8532 68.456H40.6345ZM45.0087 44.6167C45.0087 44.5074 45.0087 44.5074 45.0087 44.6167C44.8993 44.5074 44.8993 44.398 44.79 44.5074C44.79 44.5074 44.6806 44.5074 44.6806 44.6167V44.7261L45.0087 44.6167ZM39.5409 72.2834C39.4316 72.2834 39.4316 72.2834 39.5409 72.2834C39.4316 72.1741 39.4316 72.0647 39.3222 72.1741C39.3222 72.1741 39.2129 72.1741 39.2129 72.2834V72.3928L39.5409 72.2834ZM54.4132 29.9632C54.3038 29.8538 54.3038 29.7445 54.1945 29.8538C54.0851 29.9632 54.0851 29.8538 54.0851 29.9632V30.0725L54.4132 29.9632ZM54.5225 33.3532C54.5225 33.3532 54.4132 33.2438 54.5225 33.3532C54.4132 33.2438 54.4132 33.1345 54.3038 33.2438C54.1945 33.3532 54.1945 33.2438 54.1945 33.3532V33.4625L54.5225 33.3532ZM48.0706 49.4283C47.9613 49.4283 47.9613 49.319 48.0706 49.4283C47.9613 49.319 47.9613 49.2096 47.8519 49.319C47.8519 49.319 47.7425 49.319 47.7425 49.4283V49.5377L48.0706 49.4283ZM54.1945 34.228C54.0851 34.228 53.9758 34.228 54.0851 34.3374C54.0851 34.4467 54.1945 34.4467 54.1945 34.4467C54.1945 34.4467 54.1945 34.3374 54.1945 34.228ZM47.8519 49.9751C47.7425 49.8657 47.7425 49.7564 47.6332 49.8657C47.6332 49.8657 47.5238 49.8657 47.5238 49.9751V50.0844L47.8519 49.9751ZM48.9455 48.3348C48.8361 48.2254 48.8361 48.1161 48.7267 48.1161V48.2254C48.7267 48.4441 48.8361 48.4441 48.9455 48.3348ZM39.6503 71.518C39.6503 71.4086 39.541 71.4086 39.4316 71.518C39.4316 71.6273 39.4316 71.6273 39.6503 71.518ZM41.9468 57.0831C41.9468 56.9738 41.8374 56.9738 41.728 57.0831C41.728 57.0831 41.8374 57.0831 41.9468 57.0831ZM60.537 8.09225H59.8809C59.7716 8.09225 59.7716 7.98289 59.6622 7.87354L59.7716 7.76418C59.8809 7.76418 60.0996 7.76418 60.209 7.65483C60.3183 7.76418 60.4277 7.87354 60.537 8.09225ZM61.8493 7.54547C62.1774 7.54547 62.5054 7.54547 62.5054 7.21741C62.5054 7.10805 62.5054 7.10805 62.5054 6.9987C62.9428 7.43612 63.2709 7.98289 63.2709 8.52966C63.4896 8.74837 63.4896 8.74837 63.599 8.96708C63.4896 8.96708 63.3803 8.85773 63.3803 8.85773C63.3803 8.74837 63.3803 8.63902 63.3803 8.52966C63.4896 8.63902 63.4896 8.63902 63.4896 8.63902L61.8493 7.54547ZM61.1932 5.46773C60.9745 5.46773 60.8651 5.35838 60.6464 5.35838C60.4277 5.24902 59.6622 4.92096 60.6464 4.81161C60.8651 5.03031 61.0838 5.24902 61.1932 5.46773ZM60.209 4.15548C59.6622 4.15548 59.1154 3.93677 58.35 3.93677C58.8967 3.82741 59.4435 3.71806 59.9903 3.49935C60.0996 3.49935 60.0996 3.49935 60.209 3.39C60.0996 3.71806 60.0996 3.93677 60.209 4.15548Z" fill="#AFF406"/>
</svg>
