<svg width="78" height="80" viewBox="0 0 78 80" fill="none" xmlns="http://www.w3.org/2000/svg">
<path fill-rule="evenodd" clip-rule="evenodd" d="M65.0247 17.7412V19.7682C65.0247 20.7411 64.2139 21.5519 63.241 21.5519H59.2681C58.2952 21.5519 57.4844 20.7411 57.4844 19.7682V17.7412H65.0247Z" fill="#AFF406"/>
<path d="M66.1591 17.7412V19.7681C66.1591 20.5789 65.8348 21.3086 65.3483 21.7951C64.8619 22.2816 64.1322 22.6059 63.3214 22.6059H59.2674C58.4567 22.6059 57.7269 22.2816 57.2405 21.7951C56.754 21.3086 56.4297 20.5789 56.4297 19.7681V17.7412C56.4297 17.1736 56.9162 16.6061 57.5648 16.6061H65.1862C65.6726 16.6872 66.1591 17.1736 66.1591 17.7412ZM63.97 19.7681V18.8763H58.5377V19.7681C58.5377 19.9303 58.6188 20.1735 58.781 20.2546C58.9431 20.4168 59.1053 20.4979 59.2674 20.4979H63.2403C63.4025 20.4979 63.6457 20.4168 63.7268 20.2546C63.8889 20.1735 63.97 20.0114 63.97 19.7681Z" fill="#201E1E"/>
<path d="M68.1037 25.8491V27.4707C68.1037 28.3625 67.6983 29.1733 67.1308 29.8219C66.5632 30.3895 65.7524 30.7949 64.7795 30.7949H57.4824C56.5905 30.7949 55.7798 30.3895 55.1312 29.8219C54.5636 29.2544 54.1582 28.4436 54.1582 27.4707V25.8491C54.1582 25.2815 54.6446 24.714 55.2933 24.714H66.9686C67.6173 24.7951 68.1037 25.2815 68.1037 25.8491ZM65.9146 27.4707V26.9031H56.4284V27.4707C56.4284 27.795 56.5906 28.0382 56.7527 28.2815C56.9149 28.4436 57.2392 28.6058 57.5635 28.6058H64.8606C65.1849 28.6058 65.4282 28.4436 65.6714 28.2815C65.8335 28.1193 65.9146 27.795 65.9146 27.4707Z" fill="#201E1E"/>
<path d="M59.1077 28.6058H63.0806C63.6482 28.6058 64.2157 29.0923 64.2157 29.7409V34.3624C64.2157 34.93 63.7292 35.4975 63.0806 35.4975C62.8374 35.4975 62.6752 35.4164 62.513 35.3354C62.3509 35.2543 62.1076 35.1732 61.9455 35.0921C61.7022 35.0111 61.459 35.0111 61.2158 35.0111C60.8915 35.0111 60.6482 35.0111 60.3239 35.0921C60.0807 35.1732 59.8374 35.2543 59.6753 35.3354C59.1888 35.6597 58.4591 35.4975 58.1348 35.0111C58.0537 34.8489 57.9727 34.6057 57.9727 34.4435V29.822C58.0537 29.0923 58.5402 28.6058 59.1077 28.6058ZM62.0266 30.795H60.2428V32.8219C60.5672 32.7408 60.8915 32.7408 61.2158 32.7408C61.459 32.7408 61.7834 32.7408 62.0266 32.8219V30.795Z" fill="#201E1E"/>
<path d="M77.7548 33.6327V37.6866C77.7548 38.2541 77.2683 38.8217 76.6197 38.8217H72.6468C72.0793 38.8217 71.5117 38.3352 71.5117 37.6866V33.6327C71.5117 33.0651 71.9982 32.4976 72.6468 32.4976H76.6197C77.2683 32.5786 77.7548 33.0651 77.7548 33.6327ZM75.5657 36.6326V34.7678H73.782V36.6326H75.5657Z" fill="#201E1E"/>
<path d="M73.5391 29.6598C73.5391 29.0922 74.0256 28.5247 74.6742 28.5247C75.3228 28.5247 75.8093 29.0111 75.8093 29.6598V33.6326C75.8093 34.2002 75.3228 34.7677 74.6742 34.7677C74.0256 34.7677 73.5391 34.2812 73.5391 33.6326V29.6598Z" fill="#201E1E"/>
<path d="M67.0516 32.4975C67.5381 32.1731 68.2678 32.3353 68.5922 32.8218C68.9165 33.3083 68.7543 34.038 68.2678 34.3623L64.9436 36.4703C64.4571 36.7946 63.7274 36.6325 63.4031 36.146C63.0788 35.6595 63.241 34.9298 63.7274 34.6055L67.0516 32.4975Z" fill="#201E1E"/>
<path d="M69.4003 52.5239C68.8328 52.6861 68.1841 52.4428 68.022 51.8753C67.8598 51.3077 68.103 50.6591 68.6706 50.497C70.2922 49.9294 71.4273 49.1997 72.2381 48.1457C73.0489 47.0917 73.4542 45.7944 73.5353 44.0917C73.5353 43.5242 74.0218 43.0377 74.6704 43.0377C75.3191 43.0377 75.7244 43.5242 75.7244 44.1728C75.6434 46.3619 75.0758 48.0646 74.0218 49.524C72.9678 50.8213 71.4273 51.7942 69.4003 52.5239Z" fill="#201E1E"/>
<path fill-rule="evenodd" clip-rule="evenodd" d="M61.1338 33.7948C63.2418 33.7948 64.9445 35.4975 64.9445 37.6055C64.9445 39.7135 63.2418 41.4162 61.1338 41.4162C59.0258 41.4162 57.3231 39.7135 57.3231 37.6055C57.242 35.5785 58.9447 33.7948 61.1338 33.7948Z" fill="#AFF406"/>
<path d="M61.1333 32.7407C62.5116 32.7407 63.7278 33.3083 64.6197 34.2001C65.5115 35.092 66.0791 36.3082 66.0791 37.6865C66.0791 39.0649 65.5115 40.281 64.6197 41.1729C63.7278 42.0648 62.5116 42.6323 61.1333 42.6323C59.7549 42.6323 58.5388 42.0648 57.6469 41.1729C56.755 40.281 56.1875 39.0649 56.1875 37.6865C56.1875 36.3082 56.755 35.092 57.6469 34.2001C58.5388 33.3083 59.7549 32.7407 61.1333 32.7407ZM63.0792 35.7406C62.5927 35.2542 61.863 34.9298 61.1333 34.9298C60.4036 34.9298 59.6739 35.2542 59.1874 35.7406C58.7009 36.2271 58.3766 36.9568 58.3766 37.6865C58.3766 38.4162 58.7009 39.1459 59.1874 39.6324C59.6739 40.1189 60.4036 40.4432 61.1333 40.4432C61.863 40.4432 62.5927 40.1189 63.0792 39.6324C63.5657 39.1459 63.89 38.4162 63.89 37.6865C63.89 36.9568 63.5657 36.2271 63.0792 35.7406Z" fill="#201E1E"/>
<path d="M54.4025 50.1726C54.889 50.497 55.1322 51.1456 54.8079 51.6321C54.4836 52.1185 53.8349 52.3618 53.3485 52.0374C52.3755 51.4699 51.4026 50.7402 50.6729 49.8483C49.9432 48.9565 49.2945 47.9835 48.9702 47.0106C48.3216 45.0647 48.4027 42.9566 48.4837 41.0107C48.4837 40.281 48.5648 39.5513 48.5648 38.9027C48.5648 37.9298 48.6459 37.0379 48.9702 36.3082C49.2945 35.4974 49.781 34.7677 50.5107 34.1191C51.0783 33.6326 51.6458 33.3083 52.2945 33.065C52.9431 32.8218 53.5917 32.7407 54.3214 32.7407C55.2944 32.7407 56.1862 33.065 56.9159 33.5515C57.5645 33.9569 58.1321 34.4434 58.6186 34.9298C59.024 35.3352 59.1051 36.0649 58.6186 36.4703C58.2132 36.8757 57.4835 36.9568 57.0781 36.4703C56.6727 36.0649 56.2673 35.6596 55.7808 35.4163C55.3754 35.1731 54.889 34.9298 54.3214 34.9298C53.916 34.9298 53.5106 35.0109 53.1052 35.092C52.6998 35.2542 52.3755 35.4163 52.0512 35.7406C51.5647 36.146 51.3215 36.5514 51.0783 37.0379C50.9161 37.5244 50.835 38.173 50.835 38.8216C50.835 39.5513 50.835 40.281 50.7539 41.0107C50.6729 42.7945 50.5918 44.6593 51.1593 46.2809C51.4026 47.0106 51.808 47.7403 52.3755 48.3889C52.9431 49.1186 53.5917 49.6862 54.4025 50.1726Z" fill="#201E1E"/>
<path d="M59.3499 20.4979H63.0796C63.6471 20.4979 64.2146 20.9844 64.2146 21.633V25.9302C64.2146 26.4977 63.7282 27.0653 63.0796 27.0653H59.3499C58.7824 27.0653 58.2148 26.5788 58.2148 25.9302V21.633C58.2959 20.9844 58.7824 20.4979 59.3499 20.4979ZM62.0256 22.6871H60.485V24.7951H62.0256V22.6871Z" fill="#201E1E"/>
<path d="M62.2663 17.7412C62.2663 18.3088 61.7798 18.8763 61.1312 18.8763C60.5636 18.8763 59.9961 18.3898 59.9961 17.7412V13.9305C59.9961 13.363 60.4825 12.7954 61.1312 12.7954C61.6987 12.7954 62.2663 13.2819 62.2663 13.9305V17.7412Z" fill="#201E1E"/>
<path d="M63.5633 12.8765C64.1308 12.8765 64.6984 13.3629 64.6984 14.0116C64.6984 14.5791 64.2119 15.1467 63.5633 15.1467H58.7797C58.2121 15.1467 57.6445 14.6602 57.6445 14.0116C57.6445 13.3629 58.131 12.8765 58.7797 12.8765H63.5633Z" fill="#201E1E"/>
<path d="M77.7518 33.6327V42.1459C77.7518 42.9567 77.4275 43.7675 76.86 44.335C76.2924 44.9026 75.5627 45.2269 74.6708 45.2269C73.86 45.2269 73.0492 44.9026 72.4817 44.335C71.9141 43.7675 71.5898 43.0378 71.5898 42.1459V33.6327C71.5898 33.0651 72.0763 32.4976 72.7249 32.4976H76.6978C77.2653 32.5786 77.7518 33.0651 77.7518 33.6327ZM75.5627 42.1459V34.7678H73.779V42.1459C73.779 42.3892 73.86 42.6324 74.0222 42.7135C74.1844 42.8756 74.4276 42.9567 74.6708 42.9567C74.9141 42.9567 75.1573 42.8756 75.3194 42.7135C75.4816 42.5513 75.5627 42.3892 75.5627 42.1459Z" fill="#201E1E"/>
<path d="M15.4837 19.4438C15.6459 19.4438 15.8081 19.4438 16.0513 19.4438C16.2135 19.4438 16.4567 19.5249 16.6189 19.5249C17.1053 19.606 17.4296 20.0925 17.4296 20.579V22.3627V22.5248C17.4296 22.6059 17.4296 22.687 17.4296 22.687V22.9302V26.5788C17.4296 27.1463 17.0242 27.5517 16.5378 27.6328C16.3756 27.6328 16.2135 27.7139 16.0513 27.7139C15.8891 27.7139 15.727 27.7139 15.4837 27.7139C14.2676 27.7139 13.2135 27.2274 12.4028 26.4977C11.592 25.768 11.1055 24.714 11.1055 23.4978C11.1055 22.3627 11.592 21.3087 12.4028 20.4979C13.2135 19.8492 14.2676 19.4438 15.4837 19.4438ZM15.2405 22.2005V21.633C14.754 21.7141 14.2675 21.8762 13.9432 22.2005C13.5378 22.5248 13.2946 23.0924 13.2946 23.5789C13.2946 24.0653 13.5378 24.6329 13.9432 24.9572C14.2675 25.2815 14.754 25.5247 15.2405 25.5247V23.1735V22.5248C15.2405 22.687 15.2405 22.2005 15.2405 22.2005Z" fill="#201E1E"/>
<path d="M45.6479 19.4438C45.81 19.4438 45.9722 19.4438 46.2154 19.4438C47.4316 19.4438 48.4856 19.9303 49.2964 20.66C50.1072 21.3897 50.5937 22.4438 50.5937 23.6599C50.5937 24.795 50.1072 25.8491 49.2964 26.6599C48.4856 27.3896 47.4316 27.876 46.2154 27.876C46.0533 27.876 45.8911 27.876 45.6479 27.876C45.4857 27.876 45.3235 27.795 45.1614 27.795C44.6749 27.7139 44.2695 27.2274 44.2695 26.7409V23.0924V22.8492C44.2695 22.7681 44.2695 22.687 44.2695 22.687V22.5248V20.7411C44.2695 20.2546 44.5938 19.7682 45.0803 19.6871C45.2425 19.5249 45.4046 19.4438 45.6479 19.4438ZM46.4587 21.633V22.2005V22.687V23.3356V25.6869C46.9451 25.6058 47.4316 25.4437 47.7559 25.1194C48.1613 24.795 48.4045 24.2275 48.4045 23.741C48.4045 23.2545 48.1613 22.687 47.7559 22.3627C47.4316 21.8762 46.9451 21.7141 46.4587 21.633Z" fill="#201E1E"/>
<path fill-rule="evenodd" clip-rule="evenodd" d="M16.375 16.8494V8.09289C16.375 4.68758 19.1317 1.93091 22.537 1.93091H39.2392C42.6445 1.93091 45.4012 4.68758 45.4012 8.09289V17.7413C43.7796 18.3088 41.9959 18.1466 39.8878 17.9034C36.4014 17.498 32.4286 17.0926 29.9963 15.6332C29.1855 15.1467 25.9423 12.9576 25.7802 13.1198C25.0504 13.9306 23.1045 15.39 20.8343 16.444C19.1317 17.1737 17.1858 18.0656 16.375 16.8494Z" fill="#C5C7B1"/>
<path d="M57.726 76.9286C58.0504 76.9286 58.4558 76.7665 58.6179 76.5232C58.8612 76.28 59.0233 75.9557 59.0233 75.6314V72.9558C58.7801 73.0369 58.5368 73.0369 58.2936 73.0369H52.2938C51.2398 73.0369 50.3479 72.6315 49.6182 71.9018C48.9695 71.2531 48.4831 70.2802 48.4831 69.2262V68.5775H38.0239C37.2942 68.5775 36.6456 68.2532 36.1591 67.8478C35.6726 67.3613 35.4294 66.7127 35.4294 65.983V62.7399C35.4294 62.0102 35.7537 61.3615 36.1591 60.8751C36.6456 60.3886 37.2942 60.1453 38.0239 60.1453H51.8884C51.8073 60.0643 51.7262 59.9832 51.6451 59.821C50.9154 58.767 50.429 57.5508 50.3479 56.0914C50.3479 55.686 50.3479 55.1995 50.5101 54.7131C50.5911 54.2266 50.7533 53.7401 50.9155 53.3347C51.2398 52.6861 51.5641 52.1186 52.0505 51.551L52.2127 51.3078C50.9965 50.8213 49.456 50.3348 47.8345 49.8484C46.6183 49.443 45.321 49.0376 44.0238 48.6322C43.0508 48.3079 42.24 48.0646 41.5103 47.8214C39.159 47.0917 37.6996 46.6863 36.8888 44.9026C36.6456 44.335 36.5645 43.7675 36.5645 43.1188C35.9159 43.4431 35.1862 43.6053 34.5375 43.8485C33.3214 44.1728 32.0241 44.335 30.6458 44.335C29.2674 44.335 28.0513 44.1728 26.754 43.8485C26.0243 43.6864 25.3757 43.4431 24.727 43.1188C24.727 43.8485 24.6459 44.335 24.4027 44.9026C23.5919 46.7674 22.1325 47.1728 19.7812 47.8214C19.0515 48.0646 18.2407 48.3079 17.2678 48.6322C15.9705 49.1186 14.6733 49.443 13.4571 49.8484C11.349 50.497 9.40317 51.1456 8.10591 51.7132C6.56542 52.4429 5.02491 53.4969 3.88981 54.9563C2.83579 56.4157 2.10606 58.3616 2.3493 60.9561V75.3881C2.3493 75.7125 2.51146 76.1178 2.75469 76.28V76.3611C2.99793 76.6043 3.32227 76.6854 3.64659 76.6854L57.726 76.9286ZM60.2395 78.0637C59.5909 78.7124 58.699 79.1178 57.726 79.1178H3.64659C2.75472 79.1178 1.86286 78.7124 1.21423 78.1448L1.13312 78.0637C0.484488 77.4151 0.0791044 76.5232 0.0791044 75.5503V61.1994C-0.083053 58.0373 0.727734 55.686 2.10607 53.8212C3.48441 51.9564 5.26815 50.7402 7.13296 49.9294C8.59238 49.2808 10.6193 48.6322 12.8085 47.9025C14.1057 47.4971 15.403 47.0917 16.5381 46.6863C17.511 46.362 18.4029 46.1187 19.1326 45.8755C20.9163 45.389 21.9704 45.0647 22.3757 44.0918C22.5379 43.7675 22.5379 43.3621 22.5379 42.6323C22.5379 42.227 22.5379 41.8216 22.619 41.3351C22.7 40.7675 23.1865 40.2811 23.8351 40.3621C23.9973 40.3621 24.1595 40.4432 24.2405 40.5243C25.2135 41.0919 26.2675 41.4972 27.3215 41.8216C28.3755 42.1459 29.5107 42.227 30.6458 42.308C31.7809 42.308 32.916 42.1459 33.97 41.8216C35.024 41.4972 36.078 41.0919 36.9699 40.6054C37.1321 40.5243 37.2942 40.4432 37.4564 40.4432C38.0239 40.3621 38.5915 40.8486 38.5915 41.4162C38.5915 41.8216 38.6725 42.308 38.6725 42.7134C38.6725 43.3621 38.7536 43.8485 38.8347 44.1728C39.2401 45.0647 40.2941 45.389 42.0779 45.9566C42.8076 46.1998 43.6994 46.443 44.6724 46.7674C45.8075 47.1728 47.1047 47.5781 48.402 47.9835C50.5911 48.6322 52.6181 49.2808 54.0775 50.0105L54.4829 50.2537C54.645 50.3348 54.7261 50.4159 54.8072 50.497C55.2126 50.9835 55.1316 51.6321 54.7262 52.0375C54.3208 52.3618 53.9154 52.7672 53.591 53.1726C53.2667 53.578 53.0235 53.9834 52.7803 54.3888C52.6992 54.632 52.537 54.9563 52.4559 55.2806C52.3748 55.6049 52.3749 55.8482 52.3749 56.0914C52.3749 57.0644 52.6992 57.8751 53.1856 58.6049C53.7532 59.3346 54.4829 59.9021 55.3748 60.2264C55.7802 60.3886 56.1045 60.794 56.1045 61.2804C56.1045 61.848 55.618 62.4156 54.9694 62.4156H37.6996C37.6186 62.4156 37.4564 62.4966 37.3753 62.4966C37.2942 62.5777 37.2942 62.6588 37.2942 62.8209V66.0641C37.2942 66.1452 37.3753 66.3073 37.3753 66.3884C37.4564 66.4695 37.5375 66.4695 37.6996 66.4695H48.0777V65.4965C48.0777 64.929 48.5641 64.3614 49.2128 64.3614H49.2939C49.8614 64.3614 50.429 64.8479 50.429 65.4965V69.3072C50.429 69.7126 50.5911 70.118 50.9155 70.3613C51.1587 70.6045 51.5641 70.8477 51.9695 70.8477H57.9693C58.2125 70.8477 58.3747 70.8477 58.5368 70.7667C58.699 70.6856 58.8612 70.6045 59.0233 70.4423C59.1855 70.1991 59.5098 70.118 59.8341 70.118C60.4017 70.118 60.9692 70.6045 60.9692 71.2531V75.7125C61.2124 76.5232 60.8071 77.4151 60.2395 78.0637Z" fill="#201E1E"/>
<path d="M38.2671 46.6862L38.1049 46.5241L38.0238 46.443C37.5374 46.0376 37.213 45.6322 36.9698 44.9836C36.7266 44.416 36.6455 43.8485 36.6455 43.1999C35.9968 43.5242 35.2671 43.6863 34.6185 43.9296C33.4023 44.2539 32.1051 44.416 30.7267 44.416C29.3484 44.416 28.1322 44.2539 26.835 43.9296C26.1053 43.7674 25.4566 43.5242 24.808 43.1999C24.808 43.9296 24.7269 44.416 24.4837 44.9836C24.2404 45.5511 23.9162 45.9565 23.5108 46.2808L23.4297 46.3619L23.5108 46.443C23.754 46.6862 23.9972 46.8484 24.2404 47.0105C24.4026 47.0105 24.5648 47.0105 24.727 47.0916L28.6998 48.551C28.943 48.3889 29.1052 48.3078 29.3484 48.1457C29.8349 47.9024 30.4024 47.8213 30.8889 47.8213C31.5375 47.8213 32.1051 47.9835 32.6727 48.2267C32.8348 48.3078 32.9969 48.3889 33.1591 48.551L37.132 47.0916C37.3752 47.0105 37.5374 47.0105 37.7806 47.0105C37.9428 47.0105 38.1049 46.8484 38.2671 46.6862ZM39.4832 44.8214C39.7265 44.9836 40.0508 45.2268 40.4562 45.3079C40.5373 45.3079 40.6994 45.389 40.7805 45.4701C41.267 45.8754 41.3481 46.5241 40.9427 47.0105C40.6184 47.4159 40.213 47.8213 39.8076 48.2267C39.4022 48.6321 38.9157 48.9564 38.4292 49.2808C38.1049 49.4429 37.7806 49.524 37.4563 49.3618L34.1321 50.578C33.9699 50.9023 33.7266 51.1456 33.4023 51.2266C32.9969 51.3077 32.5105 51.1456 32.1862 50.8212C32.024 50.578 31.8619 50.4159 31.6186 50.3348C31.3754 50.2537 31.1321 50.1726 30.8889 50.1726C30.6457 50.1726 30.4024 50.2537 30.2403 50.3348C29.9971 50.4159 29.8349 50.578 29.6727 50.7402L29.5917 50.8212C29.1863 51.2266 28.5376 51.2266 28.1322 50.9023L24.3216 49.524C23.9972 49.6051 23.6729 49.6051 23.4297 49.3618C22.9432 49.0375 22.4567 48.6321 22.0513 48.2267C21.6459 47.8213 21.2406 47.4159 20.9162 47.0105C20.8352 46.9295 20.7541 46.8484 20.7541 46.7673C20.5108 46.1998 20.7541 45.5511 21.3216 45.3079C21.646 45.1457 21.8892 45.0647 22.0513 44.8214C22.2135 44.6593 22.3756 44.4971 22.4567 44.2539C22.6189 43.9296 22.6189 43.5242 22.6189 42.7945C22.6189 42.3891 22.6189 41.9837 22.7 41.4972C22.7811 40.9296 23.2675 40.4432 23.9162 40.5243C24.0783 40.5243 24.2405 40.6053 24.3216 40.6864C25.2945 41.254 26.3485 41.6594 27.4025 41.9837C28.4566 42.308 29.5916 42.3891 30.7267 42.4701C31.8618 42.4701 32.997 42.308 34.051 41.9837C35.105 41.6594 36.159 41.254 37.0509 40.7675C37.213 40.6864 37.3752 40.6053 37.5374 40.6053C38.1049 40.5243 38.6724 41.0107 38.6724 41.5783C38.6724 41.9837 38.7536 42.4701 38.7536 42.8755C38.7536 43.5242 38.8346 44.0106 38.9157 44.3349C39.0779 44.416 39.24 44.6593 39.4832 44.8214Z" fill="#201E1E"/>
<path d="M27.5663 35.8218C27.0798 35.4164 26.9987 34.7678 27.4041 34.2813C27.8095 33.7949 28.4581 33.7138 28.9446 34.1192C29.6743 34.6867 30.3229 34.93 30.8905 34.93C31.5391 34.93 32.1877 34.6867 32.8364 34.2003C33.3228 33.8759 34.0525 34.0381 34.3768 34.5246C34.7012 35.011 34.539 35.7408 34.0526 36.0651C32.9985 36.7137 31.9445 37.1191 30.8905 37.1191C29.7554 37.038 28.6203 36.6326 27.5663 35.8218Z" fill="#201E1E"/>
<path fill-rule="evenodd" clip-rule="evenodd" d="M10.8623 49.6862L16.0514 47.9835C17.754 57.8751 25.943 68.01 30.8888 71.9828V77.9826H10.7812V67.7667C14.3487 61.6858 14.9973 56.3346 10.8623 49.6862Z" fill="#AFF406"/>
<path d="M10.5394 48.7132L15.7284 47.0917C16.2959 46.9295 16.9446 47.2538 17.1067 47.8214C17.1067 47.9025 17.1067 47.9025 17.1067 47.9835C17.8364 52.1185 19.7823 56.4157 22.0525 60.1453C25.1335 65.0911 28.782 69.1451 31.5387 71.2531C31.7819 71.4964 31.9441 71.8207 31.9441 72.145V78.1448C31.9441 78.7124 31.4577 79.2799 30.809 79.2799H10.7015C10.1339 79.2799 9.56641 78.7934 9.56641 78.1448V78.0637V67.9289C9.56641 67.7667 9.64749 67.5235 9.72857 67.3613C11.4312 64.4425 12.4041 61.7669 12.4852 59.0102C12.5663 56.3346 11.7555 53.4969 9.80963 50.4159C9.48532 49.9294 9.64749 49.1997 10.134 48.8754C10.3772 48.7132 10.4583 48.7132 10.5394 48.7132ZM15.2419 49.443L12.5663 50.3348C14.269 53.3347 14.9176 56.1725 14.8365 58.9292C14.7554 61.9291 13.7014 64.929 11.9177 68.01V76.8475H29.8361V72.4693C26.9983 70.118 23.2687 65.983 20.2688 61.1183C17.9986 57.5508 16.1338 53.4969 15.2419 49.443Z" fill="#201E1E"/>
<path fill-rule="evenodd" clip-rule="evenodd" d="M30.7288 56.9022C31.3775 56.9022 31.8639 57.3887 31.8639 58.0373C31.8639 58.686 31.3775 59.1724 30.7288 59.1724C30.0802 59.1724 29.5938 58.686 29.5938 58.0373C29.5938 57.3887 30.0802 56.9022 30.7288 56.9022Z" fill="#201E1E"/>
<path fill-rule="evenodd" clip-rule="evenodd" d="M30.7288 61.4426C31.3775 61.4426 31.8639 61.9291 31.8639 62.5777C31.8639 63.2264 31.3775 63.7128 30.7288 63.7128C30.0802 63.7128 29.5938 63.2264 29.5938 62.5777C29.5938 61.9291 30.0802 61.4426 30.7288 61.4426Z" fill="#201E1E"/>
<path fill-rule="evenodd" clip-rule="evenodd" d="M30.7288 66.0641C31.3775 66.0641 31.8639 66.5506 31.8639 67.1992C31.8639 67.8478 31.3775 68.3343 30.7288 68.3343C30.0802 68.3343 29.5938 67.8478 29.5938 67.1992C29.5938 66.6316 30.0802 66.0641 30.7288 66.0641Z" fill="#201E1E"/>
<path d="M22.5414 27.3085C21.9738 27.3085 21.4062 26.8221 21.4062 26.1734C21.4062 25.5248 21.8927 25.0383 22.5414 25.0383H26.0277C26.5953 25.0383 27.1629 25.5248 27.1629 26.1734C27.1629 26.8221 26.6764 27.3085 26.0277 27.3085H22.5414Z" fill="#201E1E"/>
<path d="M35.428 27.3085C34.8605 27.3085 34.293 26.8221 34.293 26.1734C34.293 25.5248 34.7794 25.0383 35.428 25.0383H38.9145C39.482 25.0383 40.0495 25.5248 40.0495 26.1734C40.0495 26.8221 39.5631 27.3085 38.9145 27.3085H35.428Z" fill="#201E1E"/>
<path fill-rule="evenodd" clip-rule="evenodd" d="M50.9171 49.8484L45.728 48.1458C44.9172 52.6862 42.7281 57.3076 40.2147 61.3616H48.4036C47.5928 57.713 48.3226 54.0645 50.9171 49.8484ZM36.6472 66.3074C34.6202 68.8208 32.5122 70.8478 30.8906 72.2261V78.2259H50.9981V71.8207C50.1873 71.3343 49.6198 70.5235 49.6198 69.4694V67.6857H38.1877C37.3769 67.6046 36.7283 67.0371 36.6472 66.3074Z" fill="#AFF406"/>
<path d="M49.2939 50.497L46.6183 49.6051C46.2129 51.4699 45.5643 53.2537 44.8346 55.0374C44.1049 56.8211 43.1319 58.6049 42.159 60.3075H47.1048C46.9426 58.767 47.0237 57.2265 47.348 55.605C47.6723 53.9023 48.321 52.2807 49.2939 50.497ZM46.0508 47.1728L51.2398 48.7943C51.3208 48.7943 51.402 48.8754 51.483 48.8754C51.9695 49.1997 52.1316 49.8484 51.8073 50.4159C50.5911 52.3618 49.7804 54.2266 49.375 56.0104C48.9696 57.713 49.0506 59.4157 49.375 61.0372C49.375 61.1183 49.4561 61.1994 49.4561 61.3615C49.4561 61.9291 48.9696 62.4966 48.3209 62.4966H40.132C39.9699 62.4966 39.7266 62.4156 39.5645 62.3345C39.078 62.0102 38.9158 61.3615 39.2401 60.794C40.5374 58.6859 41.7536 56.4968 42.7265 54.1455C43.6184 52.1186 44.267 50.0105 44.5913 47.9836C44.5913 47.9025 44.5913 47.9025 44.5913 47.8214C44.9157 47.2539 45.4832 46.9295 46.0508 47.1728ZM36.5645 68.1722C35.9159 68.9829 35.1862 69.7127 34.5376 70.3613C33.6457 71.2531 32.8349 72.0639 32.0241 72.7126V77.0908H49.9425V72.3072C49.6182 72.0639 49.2939 71.6585 49.0507 71.3342C48.7264 70.7667 48.5642 70.118 48.5642 69.4694V68.8208H38.1861C37.5375 68.7397 36.9699 68.4965 36.5645 68.1722ZM32.916 68.8208C33.8889 67.8478 34.8619 66.7938 35.7537 65.5776C35.9159 65.3344 36.1592 65.1722 36.4835 65.1722C37.051 65.0912 37.6186 65.5776 37.6997 66.1452C37.6997 66.2263 37.7807 66.3073 37.8618 66.3884C37.9429 66.4695 38.024 66.4695 38.1051 66.4695H49.5371C50.1047 66.4695 50.6722 66.956 50.6722 67.6046V69.3883C50.6722 69.7126 50.7533 69.9559 50.9155 70.1991C51.0776 70.4424 51.2398 70.6045 51.483 70.7667C51.8074 70.9288 52.0505 71.3342 52.0505 71.7396V78.0638V78.1448C52.0505 78.7124 51.5641 79.2799 50.9155 79.2799H30.889C30.3215 79.2799 29.7539 78.7935 29.7539 78.1448V72.145C29.7539 71.8207 29.9161 71.4964 30.1593 71.2531C31.0512 70.6856 31.9431 69.7937 32.916 68.8208Z" fill="#201E1E"/>
<path fill-rule="evenodd" clip-rule="evenodd" d="M30.8895 49.0376C32.43 49.0376 33.6462 50.2538 33.6462 51.7943C33.6462 53.3348 32.43 54.551 30.8895 54.551C29.349 54.551 28.1328 53.3348 28.1328 51.7943C28.1328 50.2538 29.349 49.0376 30.8895 49.0376Z" fill="#AFF406"/>
<path d="M30.8927 47.9025C31.9468 47.9025 32.9197 48.3079 33.5683 49.0376L33.6494 49.1186C34.2981 49.8484 34.7034 50.7402 34.7034 51.7942C34.7034 52.8483 34.298 53.8212 33.5683 54.4698C32.8386 55.1995 31.9468 55.6049 30.8927 55.6049C29.8387 55.6049 28.8658 55.1995 28.2172 54.4698C27.4874 53.7401 27.082 52.8483 27.082 51.7942C27.082 50.7402 27.4874 49.7673 28.2172 49.1186L28.2982 49.0376C28.9468 48.3079 29.8387 47.9025 30.8927 47.9025ZM32.0279 50.5781C31.7035 50.2538 31.2981 50.0916 30.8927 50.0916C30.4873 50.0916 30.0819 50.2538 29.7576 50.497L29.6766 50.5781C29.3522 50.9024 29.1901 51.3078 29.1901 51.7132C29.1901 52.1996 29.3522 52.605 29.6766 52.8483C30.0009 53.1726 30.4063 53.3347 30.8117 53.3347C31.2982 53.3347 31.7035 53.1726 31.9468 52.8483C32.2711 52.524 32.4333 52.1186 32.4333 51.7132C32.5143 51.3078 32.3522 50.9024 32.0279 50.5781Z" fill="#201E1E"/>
<path fill-rule="evenodd" clip-rule="evenodd" d="M24.3225 48.2268L28.4575 49.6862C28.6197 49.7673 28.7818 49.8484 28.8629 49.9294C28.4575 50.4159 28.2143 51.0645 28.2143 51.7132C28.2143 52.3618 28.4575 52.9294 28.7819 53.3347C28.7008 53.4969 28.5386 53.578 28.2954 53.6591L24.3225 54.9563C24.0793 55.0374 23.836 54.7131 23.836 54.4698V48.6322C23.7549 48.47 23.9982 48.1457 24.3225 48.2268Z" fill="#AFF406"/>
<path d="M24.7281 47.2539L28.7821 48.7133C28.9442 48.7944 29.0253 48.7944 29.1875 48.8754L29.2685 48.9565C29.4307 49.0376 29.5118 49.1187 29.6739 49.2808C30.0793 49.6862 30.0793 50.3348 29.6739 50.7402C29.5928 50.9024 29.4307 51.0646 29.4307 51.2267C29.3496 51.3889 29.3496 51.6321 29.3496 51.7943C29.3496 51.9564 29.3496 52.1997 29.4307 52.2807C29.5118 52.4429 29.5928 52.605 29.6739 52.7672C29.9171 53.0915 29.9172 53.4969 29.8361 53.8212C29.6739 54.1455 29.5118 54.3077 29.2685 54.4699C29.1064 54.632 28.8631 54.7131 28.701 54.7131L24.7281 56.0104C24.566 56.0914 24.4038 56.0914 24.3227 56.0914C23.9173 56.0914 23.593 55.9293 23.3498 55.686C23.1876 55.5239 23.0255 55.2806 22.9444 54.9563C22.8633 54.7942 22.8633 54.632 22.8633 54.4699V48.6322C22.8633 48.47 22.8633 48.2268 22.9444 48.0646C23.0255 47.8214 23.1876 47.5782 23.3498 47.416C23.593 47.1728 23.9173 47.0106 24.3227 47.0106C24.3227 47.1728 24.4849 47.1728 24.7281 47.2539ZM27.2416 50.497L24.8902 49.6051V53.6591L27.2416 52.9294C27.1605 52.524 27.0794 52.1997 27.0794 51.7943C27.0794 51.3078 27.1605 50.9024 27.2416 50.497Z" fill="#201E1E"/>
<path fill-rule="evenodd" clip-rule="evenodd" d="M37.4584 48.2268L33.3234 49.6862C33.1612 49.7673 32.999 49.8484 32.918 49.9294C33.3234 50.4159 33.5666 51.0645 33.5666 51.7132C33.5666 52.3618 33.3233 52.9294 32.999 53.3347C33.0801 53.4969 33.2423 53.578 33.4855 53.6591L37.4584 54.9563C37.7016 55.0374 37.9449 54.7131 37.9449 54.4698V48.6322C37.9449 48.47 37.7016 48.1457 37.4584 48.2268Z" fill="#AFF406"/>
<path d="M36.8904 49.6051L34.5391 50.497C34.7012 50.9024 34.7823 51.3077 34.7823 51.7942C34.7823 52.1996 34.7012 52.605 34.6201 52.9293L36.9714 53.659V49.6051H36.8904ZM32.9986 48.7132L37.1336 47.2538C37.2958 47.1727 37.4579 47.1727 37.6201 47.1727C38.0255 47.1727 38.3498 47.3349 38.593 47.5781C38.7552 47.7403 38.9173 47.9835 38.9984 48.2268C39.0795 48.3889 39.0795 48.5511 39.0795 48.7943V54.632C39.0795 54.7941 39.0795 54.9563 38.9984 55.1184C38.9173 55.3617 38.7552 55.6049 38.593 55.8482C38.3498 56.0914 38.0255 56.2535 37.6201 56.2535C37.4579 56.2535 37.3768 56.2535 37.2147 56.1725L33.2418 54.8752C33.0797 54.7941 32.8364 54.7131 32.6743 54.632C32.431 54.4698 32.2689 54.2266 32.1067 53.9833C31.9446 53.659 32.0257 53.2536 32.2689 52.9293C32.35 52.7672 32.431 52.605 32.5121 52.4428C32.5932 52.2807 32.5932 52.1185 32.5932 51.9564C32.5932 51.7131 32.5932 51.551 32.5121 51.3888C32.431 51.2267 32.35 51.0645 32.2689 50.9024C31.8635 50.497 31.8635 49.8483 32.2689 49.4429C32.35 49.2808 32.5121 49.1997 32.6743 49.1186L32.7553 49.0375C32.7553 48.7943 32.8364 48.7943 32.9986 48.7132Z" fill="#201E1E"/>
<path d="M16.4569 18.7952C15.8894 18.8763 15.3218 18.4709 15.2407 17.8223C15.1597 17.2547 15.5651 16.6872 16.2137 16.6061C18.1596 16.3629 19.619 15.8764 20.9163 15.1467C22.2946 14.417 23.5918 13.444 25.0513 12.2278C25.4566 11.9035 26.1053 11.9035 26.5107 12.3089C27.3214 13.0386 28.2944 13.6062 29.2674 14.0927C30.3214 14.5791 31.3754 14.9845 32.5105 15.3899C33.0781 15.5521 33.4024 16.2007 33.2402 16.7683C33.0781 17.3358 32.4294 17.6601 31.8619 17.498C30.6457 17.0926 29.4295 16.6872 28.2944 16.1196C27.4025 15.7142 26.5107 15.1467 25.6999 14.498C24.4026 15.471 23.2675 16.3629 21.8892 17.0926C20.4298 17.9034 18.7271 18.4709 16.4569 18.7952Z" fill="#201E1E"/>
<path d="M35.9998 18.4709C35.4323 18.3899 35.0269 17.8223 35.108 17.1737C35.1891 16.6061 35.7566 16.2007 36.4052 16.2818C37.7025 16.5251 39.3241 16.6872 40.9457 16.7683C42.324 16.8494 43.7023 16.7683 44.7563 16.6061C45.3239 16.5251 45.8915 16.9304 46.0536 17.498C46.1347 18.0655 45.7293 18.6331 45.1617 18.7953C43.9455 19.0385 42.4862 19.0385 40.9457 19.0385C39.0809 18.9574 37.3782 18.7142 35.9998 18.4709Z" fill="#201E1E"/>
<path d="M38.1062 60.1453H72.4836C73.2133 60.1453 73.8619 60.4696 74.3484 60.875L74.4295 60.9561C74.8349 61.4425 75.1592 62.0101 75.1592 62.7398V65.9829C75.1592 66.7126 74.8349 67.3613 74.4295 67.8477C73.943 68.3342 73.2944 68.5774 72.5647 68.5774H60.8893C60.3218 68.5774 59.7542 68.091 59.7542 67.4423V66.4694H50.6734V67.4423C50.6734 68.0099 50.187 68.5774 49.5383 68.5774H38.1062C37.3765 68.5774 36.7279 68.2531 36.2414 67.8477C35.7549 67.3613 35.5117 66.7126 35.5117 65.9829V62.7398C35.5117 62.0101 35.836 61.3614 36.2414 60.875C36.8089 60.4696 37.4576 60.1453 38.1062 60.1453ZM72.4836 62.3344H38.1062C38.0252 62.3344 37.863 62.4155 37.7819 62.4155C37.7008 62.4965 37.7009 62.5776 37.7009 62.7398V65.9829C37.7009 66.064 37.7819 66.2262 37.7819 66.3072C37.863 66.3883 37.9441 66.3883 38.1062 66.3883H48.4843V65.4154C48.4843 64.8478 48.9708 64.2803 49.6194 64.2803H60.8893C61.4569 64.2803 62.0245 64.7667 62.0245 65.4154V66.3883H72.5647C72.6458 66.3883 72.8079 66.3072 72.889 66.3072C72.9701 66.3072 72.9701 66.1451 72.9701 65.9829V62.7398C72.9701 62.6587 72.9701 62.5776 72.889 62.4965C72.7268 62.4155 72.6457 62.3344 72.4836 62.3344Z" fill="#201E1E"/>
<path d="M62.0236 65.4966V69.3072C62.0236 70.3613 61.6182 71.2531 60.8885 71.9828C60.2399 72.6315 59.2669 73.1179 58.2129 73.1179H52.2131C51.159 73.1179 50.2672 72.7126 49.5375 71.9828C48.8888 71.3342 48.4023 70.3613 48.4023 69.3072V65.4966C48.4023 64.929 48.8888 64.3615 49.5375 64.3615H60.8074C61.5371 64.3615 62.0236 64.8479 62.0236 65.4966ZM59.8345 69.3072V66.6316H50.7536V69.3072C50.7536 69.7126 50.9158 70.118 51.2401 70.3613C51.4833 70.6045 51.8888 70.8477 52.2942 70.8477H58.294C58.6993 70.8477 59.1047 70.6856 59.348 70.3613C59.6723 70.118 59.8345 69.7126 59.8345 69.3072Z" fill="#201E1E"/>
<path fill-rule="evenodd" clip-rule="evenodd" d="M53.4302 60.2265C52.5384 59.6589 51.8898 58.9292 51.4844 57.9563V53.578H70.2135C70.5378 54.2266 70.7 55.1185 70.7 55.7671C70.6189 57.713 69.727 59.1724 68.2676 60.1454L53.4302 60.2265Z" fill="#C5C7B1"/>
<path d="M61.3762 62.4155H61.2952C59.6736 62.3344 58.052 62.4155 56.4305 62.4155C56.3494 62.4155 56.2683 62.4155 56.1872 62.4155C54.5657 62.0101 53.1873 61.1993 52.1333 60.0642C51.1603 59.0102 50.5928 57.5508 50.5117 55.9292C50.5117 55.5238 50.5117 55.0373 50.6739 54.5509C50.755 54.0644 50.9171 53.5779 51.0793 53.1725C51.8901 51.3888 53.2684 50.2537 54.6467 49.0375C56.3494 47.6592 58.052 46.1997 58.052 43.6863L58.1331 40.9296C58.1331 40.3621 58.6196 39.8756 59.2682 39.8756C59.4304 39.8756 59.6736 39.9567 59.8358 40.0378C60.079 40.1999 60.2412 40.281 60.4844 40.3621C60.7276 40.4432 60.9709 40.4432 61.2141 40.4432C61.4574 40.4432 61.7006 40.4432 61.9438 40.3621C62.187 40.281 62.3492 40.1999 62.5924 40.1188C63.0789 39.7945 63.8086 40.0378 64.0519 40.5242C64.1329 40.6864 64.214 40.8486 64.214 41.0107L64.2951 43.7674C64.2951 46.2808 65.9978 47.6592 67.7004 49.1186C69.0788 50.2537 70.4571 51.4699 71.2678 53.2536C71.43 53.659 71.5922 54.1455 71.6732 54.6319C71.7543 55.1184 71.8354 55.6049 71.8354 56.0103C71.7543 57.7129 71.1868 59.0913 70.2138 60.1453C69.2409 61.2804 67.7815 62.0912 66.1599 62.4966C66.0788 62.4966 65.9166 62.4966 65.8356 62.4966L61.3762 62.4155ZM61.133 60.2264C62.6735 60.2264 64.214 60.2264 65.7545 60.2264C66.8896 59.902 67.8626 59.3345 68.5923 58.6048C69.2409 57.8751 69.6463 56.9832 69.6463 55.8481C69.6463 55.6049 69.6463 55.3616 69.5652 55.0373C69.4841 54.713 69.403 54.3887 69.2409 54.1455C68.6733 52.8482 67.4571 51.7942 66.241 50.8212C64.1329 49.1186 62.0249 47.3348 62.0249 43.8485V42.6323C61.7817 42.7134 61.4574 42.7134 61.2141 42.7134C60.8898 42.7134 60.5655 42.7134 60.3222 42.6323V43.8485C60.3222 47.4159 58.2142 49.1186 56.1061 50.8212C54.8899 51.7942 53.6738 52.8482 53.1062 54.1455C53.0252 54.3887 52.863 54.713 52.7819 55.0373C52.7008 55.3616 52.7009 55.6049 52.7009 55.8481C52.7819 56.9832 53.1062 57.8751 53.7549 58.6048C54.4035 59.4156 55.4575 59.902 56.5926 60.2264H60.9708H61.0519H61.133Z" fill="#201E1E"/>
<path d="M60.4828 54.8753C59.9152 54.8753 59.3477 54.3888 59.3477 53.7402C59.3477 53.1727 59.8341 52.6051 60.4828 52.6051H70.1312C70.6987 52.6051 71.2662 53.0916 71.2662 53.7402C71.2662 54.3078 70.7798 54.8753 70.1312 54.8753H60.4828Z" fill="#201E1E"/>
<path d="M52.053 54.8753C51.4855 54.8753 50.918 54.3888 50.918 53.7402C50.918 53.1727 51.4044 52.6051 52.053 52.6051H57.6475C58.215 52.6051 58.7826 53.0916 58.7826 53.7402C58.7826 54.3078 58.2961 54.8753 57.6475 54.8753H52.053Z" fill="#201E1E"/>
<path d="M46.4585 22.687V23.3356V29.0111C46.4585 33.3083 44.6747 37.2001 41.918 40.0378C39.0803 42.8756 35.1885 44.5782 30.8913 44.5782C26.5942 44.5782 22.7024 42.7945 19.8647 40.0378C17.0269 37.2001 15.3242 33.3083 15.3242 29.0111V23.3356V22.687V22.2005V8.09283C15.3242 6.06587 16.135 4.28214 17.4323 2.98488C18.7296 1.68762 20.5133 0.876831 22.5402 0.876831H39.2424C41.2694 0.876831 43.0531 1.68762 44.3504 2.98488C45.6476 4.28214 46.4585 6.06587 46.4585 8.09283V22.2005V22.687ZM44.2693 23.0113V22.7681C44.2693 22.687 44.2693 22.6059 44.2693 22.6059V22.4438V8.09283C44.2693 6.7145 43.7018 5.41724 42.8099 4.52537C41.918 3.63351 40.6208 3.06596 39.2424 3.06596H22.5402C21.1619 3.06596 19.8646 3.63351 18.9728 4.52537C18.0809 5.41724 17.5134 6.7145 17.5134 8.09283V22.4438V22.6059V22.687V23.0113V28.9301C17.5134 32.5786 19.0539 35.9839 21.4862 38.4163C23.9186 40.8486 27.2428 42.3891 30.9724 42.3891C34.6209 42.3891 38.0263 40.8486 40.4586 38.4163C42.891 35.9839 44.4315 32.6597 44.4315 28.9301L44.2693 23.0113Z" fill="#201E1E"/>
</svg>
