<svg width="76" height="73" viewBox="0 0 76 73" fill="none" xmlns="http://www.w3.org/2000/svg">
<path d="M54.1857 57.4155C54.1857 56.8479 54.6722 56.2804 55.3208 56.2804C55.8884 56.2804 56.4559 56.7669 56.4559 57.4155V69.6584C56.4559 70.5502 56.0505 71.4421 55.483 72.0097C54.8343 72.6583 54.0236 72.9826 53.1317 72.9826H4.16016C3.2683 72.9826 2.37643 72.5772 1.80888 72.0097C1.16025 71.361 0.835938 70.5502 0.835938 69.6584V3.98463C0.835938 3.09276 1.24133 2.20089 1.80888 1.63334L1.88996 1.55226C2.45751 0.984714 3.34938 0.6604 4.24124 0.6604H53.0506C53.9425 0.6604 54.8343 1.06579 55.4019 1.63334C56.0505 2.28197 56.3748 3.09276 56.3748 3.98463V26.9299C56.3748 27.4974 55.8884 28.065 55.2397 28.065C54.6722 28.065 54.1046 27.5785 54.1046 26.9299V4.0657C54.1046 3.74139 53.9425 3.41707 53.7803 3.25492C53.5371 3.01168 53.2939 2.9306 52.9695 2.9306H4.16016C3.83585 2.9306 3.59261 3.01168 3.34938 3.25492L3.2683 3.336C3.02506 3.57923 2.94398 3.82247 2.94398 4.14678V69.8205C2.94398 70.1448 3.10614 70.4692 3.2683 70.6313C3.51153 70.8745 3.75477 70.9556 4.07909 70.9556H52.8885C53.2128 70.9556 53.5371 70.7935 53.6992 70.6313C53.9425 70.3881 54.0236 70.1448 54.0236 69.8205V57.4155H54.1857Z" fill="#201E1E"/>
<path d="M16.4056 19.876C15.838 19.876 15.3516 19.3896 15.3516 18.7409C15.3516 18.0923 15.838 17.6058 16.4056 17.6058H40.7292C41.2967 17.6058 41.7832 18.0923 41.7832 18.7409C41.7832 19.3896 41.2967 19.876 40.7292 19.876H16.4056Z" fill="#201E1E"/>
<path d="M21.1868 28.3082C20.6193 28.3082 20.1328 27.8217 20.1328 27.1731C20.1328 26.6055 20.6193 26.038 21.1868 26.038H48.0239C48.5914 26.038 49.0779 26.5244 49.0779 27.1731C49.0779 27.7406 48.5914 28.3082 48.0239 28.3082H21.1868Z" fill="#201E1E"/>
<path d="M10.3236 35.6053C9.756 35.6053 9.26953 35.1188 9.26953 34.4702C9.26953 33.8216 9.756 33.3351 10.3236 33.3351H34.7282C35.2958 33.3351 35.7823 33.8216 35.7823 34.4702C35.7823 35.1188 35.2958 35.6053 34.7282 35.6053H10.3236Z" fill="#201E1E"/>
<path d="M39.3509 35.6053C38.7833 35.6053 38.2969 35.1188 38.2969 34.4702C38.2969 33.8216 38.7833 33.3351 39.3509 33.3351H48.0263C48.5939 33.3351 49.0803 33.8216 49.0803 34.4702C49.0803 35.1188 48.5939 35.6053 48.0263 35.6053H39.3509Z" fill="#201E1E"/>
<path d="M10.3236 41.6052C9.756 41.6052 9.26953 41.1187 9.26953 40.4701C9.26953 39.9025 9.756 39.335 10.3236 39.335H22.6475C23.2151 39.335 23.7015 39.8214 23.7015 40.4701C23.7015 41.0376 23.2151 41.6052 22.6475 41.6052H10.3236Z" fill="#201E1E"/>
<path d="M27.2689 41.6052C26.7013 41.6052 26.2148 41.1187 26.2148 40.4701C26.2148 39.9025 26.7013 39.335 27.2689 39.335H36.0254C36.5929 39.335 37.0794 39.8214 37.0794 40.4701C37.0794 41.0376 36.5929 41.6052 36.0254 41.6052H27.2689Z" fill="#201E1E"/>
<path d="M31.8904 62.7667C31.6472 63.3343 30.9986 63.5775 30.431 63.3343C29.8635 63.091 29.6202 62.4424 29.8635 61.8749C30.0256 61.5505 30.2688 60.9019 30.5121 60.01C30.8364 58.956 31.2418 57.7398 31.6472 56.6858C31.7283 56.3615 31.8904 55.875 32.0526 55.4696C32.2958 54.5778 32.6201 53.6859 32.8634 52.9562C33.1066 52.3886 33.4309 51.9833 33.8363 51.74C34.3228 51.4157 34.8903 51.2535 35.3768 51.3346C35.62 51.3346 35.8633 51.4157 36.1065 51.5779L36.1876 51.6589C36.4308 51.8211 36.6741 52.0643 36.9173 52.3887C37.4848 53.2805 37.5659 54.5778 37.5659 56.0372C37.5659 56.6858 37.647 57.3345 37.7281 57.9831C37.7281 58.1452 37.8092 58.3074 37.8092 58.4696C37.8092 58.5506 37.8902 58.6317 37.8902 58.6317C37.8902 58.6317 37.8902 58.6317 37.9713 58.6317C38.0524 58.6317 38.0524 58.6317 38.0524 58.6317C38.0524 58.5506 38.1335 58.4696 38.2146 58.3885C38.6199 57.6588 39.1875 56.6858 40.4848 56.7669C41.9442 56.848 42.2685 57.8209 42.5928 58.7939C42.6739 58.956 42.755 59.1993 42.755 59.2803C42.836 59.3614 42.836 59.4425 42.9171 59.6047C42.9982 59.7668 43.1604 60.0911 43.2414 60.1722C43.3225 60.1722 43.3225 60.1722 43.3225 60.1722H43.4036C43.4847 60.1722 43.4847 60.0911 43.5657 60.0911C44.2144 59.4425 45.1873 58.1452 45.836 57.1723L45.9981 56.9291C46.3224 56.4426 47.0521 56.3615 47.5386 56.6858C48.0251 57.0101 48.1062 57.7398 47.7818 58.2263L47.6197 58.4696C46.89 59.5236 45.917 60.9019 45.1062 61.7127C44.7819 62.037 44.3765 62.2803 44.0522 62.3613C43.7279 62.4424 43.4036 62.4424 43.2414 62.4424C43.0793 62.4424 42.755 62.4424 42.4307 62.2802C42.1874 62.1992 41.9442 62.037 41.7009 61.7938C41.2955 61.3884 41.0523 60.9019 40.8902 60.5776L40.8091 60.4154C40.6469 60.1722 40.5658 59.8479 40.4848 59.6047C40.4037 59.3614 40.3226 59.0371 40.3226 59.0371C40.2415 59.0371 40.2415 59.3614 40.0794 59.6047C39.9983 59.7668 39.9172 59.929 39.7551 60.0911L39.674 60.1722C39.3497 60.5776 38.7821 60.9019 38.2146 60.983C37.647 61.0641 37.0795 60.983 36.593 60.6587L36.5119 60.5776C36.1876 60.3344 35.9444 60.01 35.7822 59.6047C35.62 59.2803 35.539 58.8749 35.4579 58.4696C35.3768 57.8209 35.3768 57.0912 35.2957 56.3615C35.2146 55.2264 35.2146 54.1724 34.8903 53.6859C34.8093 53.767 34.7282 53.8481 34.6471 54.0102C34.4039 54.5778 34.1606 55.3886 33.9174 56.1993C33.8363 56.6047 33.6741 57.0101 33.512 57.4966C33.1066 58.7939 32.7012 60.01 32.3769 60.9019C32.2958 61.7127 32.0526 62.4424 31.8904 62.7667Z" fill="#201E1E"/>
<path d="M48.6731 52.1454L48.1866 55.9561L51.3487 53.6859L48.6731 52.1454ZM45.9164 56.2804L46.7272 49.8752C46.7272 49.3076 47.2137 48.9022 47.7001 48.8211C48.2677 48.7401 48.8352 49.2265 48.8352 49.7941L53.2946 52.2264C53.6999 52.1454 54.1864 52.2264 54.4297 52.6318C54.754 53.1183 54.6729 53.7669 54.1864 54.1723L48.8352 57.983C48.5109 58.2263 48.1866 58.3884 47.7812 58.4695H47.7001C47.3758 58.4695 46.9704 58.4695 46.7272 58.3073C46.4029 58.1452 46.1596 57.9019 45.9975 57.5776C45.9164 57.1722 45.8353 56.7668 45.9164 56.2804Z" fill="#201E1E"/>
<path fill-rule="evenodd" clip-rule="evenodd" d="M66.673 17.9301L71.2134 20.4436C71.6998 20.6868 71.862 21.3354 71.6188 21.8219L54.2679 52.8751C54.0247 53.3615 53.3761 53.5237 52.8896 53.2805L48.3492 50.767C47.8627 50.5238 47.7005 49.8751 47.9438 49.3887L65.2135 18.3355C65.5379 17.8491 66.1865 17.6058 66.673 17.9301Z" fill="#AFF406"/>
<path d="M67.1587 16.9571L71.6991 19.4706C72.1856 19.7138 72.5099 20.2003 72.6721 20.6868C72.8342 21.1732 72.7532 21.7408 72.5099 22.3083L55.2402 53.2804C55.2402 53.3615 55.1591 53.4426 55.1591 53.4426C54.8348 53.848 54.4294 54.1723 53.9429 54.3344C53.4564 54.4966 52.9699 54.4155 52.4835 54.1723C52.4024 54.1723 52.3213 54.0912 52.3213 54.0912L47.862 51.6588C47.3755 51.4156 47.0512 50.9291 46.8891 50.4426C46.7269 49.9562 46.808 49.3886 47.0512 48.8211L64.321 17.7679C64.5642 17.2815 65.0507 16.9571 65.5372 16.795C66.1047 16.6328 66.6723 16.6328 67.1587 16.9571ZM70.564 21.3354L66.1858 18.903L48.9971 49.794L53.3753 52.2264L70.564 21.3354Z" fill="#201E1E"/>
<path fill-rule="evenodd" clip-rule="evenodd" d="M70.969 15.2546L71.05 15.3357C72.1041 15.9033 72.5094 17.2816 71.9419 18.3356L70.8879 20.2004L66.9961 18.0113L68.0501 16.1465C68.5366 15.0114 69.9149 14.6871 70.969 15.2546Z" fill="#C5C7B1"/>
<path d="M71.537 14.2816C72.3478 14.7681 72.9153 15.4978 73.1585 16.2275C73.4018 17.0383 73.3207 17.9302 72.9153 18.741L71.8613 20.6058C71.537 21.1733 70.8883 21.3355 70.4019 21.0112L66.5101 18.8221C66.0236 18.4977 65.7804 17.8491 66.1047 17.3626L67.1587 15.4978C67.5641 14.687 68.2938 14.2006 69.1046 13.9573C69.7532 13.7952 70.6451 13.8763 71.537 14.2816ZM70.483 16.2275L70.4019 16.1465C70.1586 15.9843 69.8343 15.9843 69.5911 16.0654C69.3479 16.1465 69.1046 16.3086 68.9425 16.5518L68.456 17.4437L70.483 18.5788L70.9694 17.6059C71.1316 17.3626 71.1316 17.0383 71.0505 16.7951C70.9694 16.6329 70.8073 16.3897 70.483 16.2275Z" fill="#201E1E"/>
<path d="M57.1859 33.0918C56.6994 32.7675 56.4562 32.1189 56.7805 31.6324C57.1048 31.1459 57.7534 30.9027 58.2399 31.227L64.4019 34.6323C64.8884 34.9566 65.1316 35.6053 64.8073 36.0917C64.483 36.5782 63.8343 36.8214 63.3479 36.4971L57.1859 33.0918Z" fill="#201E1E"/>
<path d="M71.2128 23.2812C70.7263 22.9569 70.5641 22.3083 70.8074 21.8218C71.1317 21.3354 71.7803 21.1732 72.2668 21.4164L75.0234 23.038C75.5099 23.3623 75.6721 24.011 75.4288 24.4974L67.8074 38.3619C67.4831 38.9294 66.8345 39.0916 66.348 38.7673C65.7805 38.443 65.6183 37.7943 65.9426 37.3079L72.9965 24.4163L71.2128 23.2812Z" fill="#201E1E"/>
<path fill-rule="evenodd" clip-rule="evenodd" d="M13.0781 9.09253H44.2934V14.0383H13.0781V9.09253Z" fill="#C5C7B1"/>
<path d="M44.1346 12.9843C44.7022 12.9843 45.2697 13.4707 45.2697 14.0383C45.2697 14.6059 44.7832 15.0923 44.1346 15.0923H13.0815C12.6761 15.0923 12.3518 14.9302 12.1085 14.6869C11.8653 14.4437 11.7031 14.1194 11.7031 13.714V9.33574C11.7031 8.93034 11.8653 8.60603 12.1085 8.36279C12.3518 8.11955 12.6761 7.9574 13.0815 7.9574H44.1346C44.7022 7.9574 45.2697 8.44387 45.2697 9.01142C45.2697 9.57897 44.7832 10.0654 44.1346 10.0654H13.9733V12.9032L44.1346 12.9843Z" fill="#201E1E"/>
<path fill-rule="evenodd" clip-rule="evenodd" d="M15.9169 49.0643C20.7816 49.0643 24.7545 53.0372 24.7545 57.9019C24.7545 62.7666 20.7816 66.7395 15.9169 66.7395C11.0522 66.7395 7.07934 62.7666 7.07934 57.9019C6.99827 53.0372 10.9711 49.0643 15.9169 49.0643Z" fill="#C5C7B1"/>
<path d="M23.9449 57.983C23.9449 57.4154 24.4313 56.9289 24.9989 56.9289C25.5665 56.9289 26.0529 57.4154 26.0529 57.983V58.1451C26.0529 60.9829 24.9178 63.4963 23.053 65.3611C21.1882 67.2259 18.6748 68.361 15.837 68.361C12.9993 68.361 10.4858 67.2259 8.62101 65.3611C6.7562 63.4963 5.62109 60.9829 5.62109 58.1451C5.62109 55.3074 6.7562 52.7939 8.62101 50.9291C10.4858 49.0643 12.9993 47.9292 15.837 47.9292C16.9721 47.9292 18.1072 48.0914 19.0802 48.4967C20.1342 48.8211 21.1071 49.3886 21.999 50.0372C22.4855 50.3616 22.5665 51.0913 22.2422 51.5777C21.9179 52.0642 21.1882 52.1453 20.7017 51.821C20.0531 51.3345 19.2423 50.848 18.4315 50.6048C17.6207 50.3616 16.7289 50.1994 15.837 50.1994C13.6479 50.1994 11.6209 51.0913 10.1615 52.5507C8.70208 54.0101 7.81022 56.0371 7.81022 58.2262C7.81022 60.4153 8.70208 62.4423 10.1615 63.9017C11.6209 65.3611 13.6479 66.253 15.837 66.253C18.0261 66.253 20.0531 65.3611 21.5125 63.9017C22.9719 62.4423 23.8638 60.4153 23.8638 58.2262L23.9449 57.983Z" fill="#201E1E"/>
<path d="M11.3783 58.064C10.9729 57.6586 10.9729 57.01 11.3783 56.6046C11.7837 56.1992 12.4323 56.1992 12.8377 56.6046L15.5944 59.2802L20.1348 54.8209C20.5402 54.4155 21.1888 54.4155 21.5942 54.8209C21.9996 55.2263 21.9996 55.8749 21.5942 56.2803L16.3241 61.3883C15.9187 61.7937 15.27 61.7937 14.8646 61.3883L11.3783 58.064Z" fill="#201E1E"/>
</svg>
