<svg width="126" height="97" viewBox="0 0 126 97" fill="none" xmlns="http://www.w3.org/2000/svg">
<path fill-rule="evenodd" clip-rule="evenodd" d="M71.8486 56.7056C71.9592 56.7056 72.0697 56.8161 72.0697 56.8161V57.0372C71.9592 57.0372 71.9592 57.0372 71.8486 57.0372V56.7056ZM45.3197 66.5434L45.9829 66.6539L46.0935 66.5434L46.6462 66.6539L47.3094 66.7645C47.8621 66.875 48.1937 66.9855 48.5253 66.9855L48.6358 66.875L48.9674 66.9855L49.078 67.0961C49.1885 67.0961 49.1885 67.0961 49.1885 67.0961C49.1885 67.0961 49.2991 66.9855 49.1885 66.9855L50.1834 67.2066C50.0728 67.3172 49.9623 67.3172 49.8517 67.3172C49.7412 67.2066 49.6307 67.2066 49.5201 67.3172H49.4096H49.1885C49.078 67.3172 48.8569 67.3172 48.8569 67.3172L48.6358 67.4277L47.8621 67.2066C47.7515 67.2066 47.641 67.2066 47.5305 67.3172H47.0883C46.6462 67.3172 46.4251 67.3172 46.4251 67.3172C46.4251 67.3172 46.3146 67.4277 46.3146 67.5382C46.3146 67.6488 46.3146 67.7593 46.3146 67.7593C46.204 67.7593 46.0935 67.7593 45.7619 67.6488C45.4303 67.5382 45.3197 67.5382 45.2092 67.6488L45.0986 67.7593H44.8776L44.3249 68.312C44.2143 68.8647 43.9933 69.5279 43.5511 70.1911L42.9984 71.0754L42.4457 71.9597C42.2247 72.0703 42.1141 72.1808 42.0036 72.6229C41.8931 72.9546 41.7825 73.1756 41.5615 73.2862L40.7877 74.3915C40.7877 74.5021 40.7877 74.7232 40.5666 75.0548C40.4561 75.2758 40.3455 75.4969 40.4561 75.718L39.9034 76.0496C39.6823 76.3812 39.4612 76.6023 39.3507 76.9339C39.2402 76.9339 39.1296 76.9339 39.0191 76.9339C38.798 76.9339 38.6875 76.9339 38.6875 76.8234L37.4716 76.1601C37.361 76.1601 37.2505 76.1601 37.0294 76.0496L36.8084 75.9391H36.6978L36.5873 76.0496L36.4767 76.1601C36.0346 76.3812 35.8135 76.7128 35.703 77.0444C35.8135 77.2655 35.703 77.4866 35.3714 77.4866H35.2608L35.1503 77.8182L35.0398 78.1498C34.9292 78.3709 34.8187 78.4814 34.5976 78.5919C34.266 78.7025 34.1555 78.592 34.0449 78.2603V77.9287L34.1555 77.5971C34.1555 77.376 33.9344 77.376 33.6028 77.4866L32.6079 76.9339C32.4974 76.7128 32.4974 76.3812 32.3869 75.9391C32.2763 75.4969 32.2763 75.0548 32.1658 74.9442C32.0553 74.9442 31.9447 74.9442 31.8342 74.7232C31.7236 74.5021 31.8342 74.281 31.8342 73.8389C31.8342 73.7283 31.8342 73.5072 31.9447 73.2862C32.0553 73.0651 32.0553 72.9546 32.0553 72.844L32.1658 72.2913L32.3869 72.0703L32.6079 71.2965C32.4974 71.2965 32.3869 71.186 32.3869 71.186C32.3869 71.186 32.2763 71.0754 32.2763 70.9649L31.6131 71.0754L31.5026 70.7438C31.5026 70.6333 31.5026 70.6333 31.5026 70.5227C31.2815 70.8543 31.0604 71.0754 30.8393 71.0754C30.8393 71.186 30.8393 71.186 30.7288 71.186C30.6183 70.8544 30.6183 70.6333 30.6183 70.5227L31.171 69.4174C31.2815 69.3068 31.5026 69.0858 31.7236 68.6436L31.9447 68.0909C32.0553 67.9804 32.1658 67.7593 32.1658 67.7593C32.1658 67.6488 32.2763 67.5382 32.3869 67.2066L32.4974 66.7645L32.6079 66.3223L32.7185 66.1012C32.4974 66.2118 32.2763 66.2118 32.0553 66.3223H30.2867H28.5181L28.4075 65.8802C28.1865 65.8802 27.9654 65.8802 27.9654 65.7696V65.6591C27.8548 65.6591 27.7443 65.6591 27.6338 65.6591C27.5232 65.6591 27.4127 65.5486 27.4127 65.438L25.6441 65.1064L25.2019 65.2169C24.9809 65.2169 24.8703 65.2169 24.7598 65.2169C24.5387 65.2169 24.3176 65.1064 24.3176 64.7748C23.986 64.7748 23.765 64.6643 23.5439 64.6643C23.4334 64.6643 23.3228 64.5537 23.3228 64.5537C23.4334 64.1116 23.3228 64.1116 23.1017 64.1116C22.5491 64.1116 22.328 64.001 22.328 63.8905C22.328 63.78 22.1069 63.6694 21.8858 63.6694C21.5542 63.6694 21.3331 63.5589 21.1121 63.3378L20.891 63.0062L20.6699 62.6746C20.6699 62.5641 20.7805 62.4535 20.891 62.4535C21.1121 62.4535 21.3331 62.4535 21.8858 62.343C22.328 62.2324 22.5491 62.2324 22.5491 62.1219C22.5491 62.1219 22.5491 62.0114 22.4385 62.0114L22.328 61.9008V61.0165C22.4385 61.0165 22.5491 60.906 22.8807 60.6849C23.1017 60.4639 23.3228 60.3533 23.3228 60.2428C23.4334 60.2428 23.5439 60.2428 23.765 60.1322H23.986H24.2071C24.5387 60.1322 24.6493 60.0217 24.6493 59.8006L25.3125 59.5796L25.423 59.2479C25.7546 59.2479 26.0862 59.1374 26.5284 59.0269L27.1916 58.9163L27.7443 58.8058H28.4075L28.8497 58.4742C28.8497 58.3636 28.9602 58.3636 29.0707 58.3636H29.5129C29.6234 58.3636 29.734 58.2531 29.734 58.1426C29.8445 58.1426 29.955 58.1426 30.1761 58.032C30.3972 57.9215 30.5077 57.9215 30.6183 57.9215H30.8393H31.0604C31.2815 57.9215 31.392 57.811 31.392 57.7004C31.5026 57.7004 31.7236 57.7004 31.9447 57.5899C32.1658 57.4793 32.3869 57.4793 32.6079 57.4793L33.0501 57.2583H33.2712L33.4922 57.0372H34.8187C34.8187 56.9267 34.9292 56.9267 35.0398 56.9267C35.1503 56.9267 35.2608 56.9267 35.3714 56.9267H35.5924H36.0346C36.1451 56.9267 36.2557 56.9267 36.3662 56.8161C36.3662 56.7056 36.3662 56.595 36.4767 56.4845C36.5873 56.374 36.5873 56.2634 36.5873 56.1529L37.0294 55.8213C37.0294 55.7108 37.14 55.4897 37.2505 55.1581L37.4716 54.8265L37.6926 54.6054C37.6926 54.4948 37.8032 54.3843 37.9137 54.2738C38.0243 54.1632 38.0243 54.0527 38.0243 53.9422L38.2453 53.6105V53.5H38.3559V53.1684L38.4664 52.7262C38.5769 52.3946 38.6875 52.2841 38.9086 52.2841V52.063C38.9086 51.9525 38.798 51.842 38.6875 51.842H38.5769L38.9086 51.1787L39.0191 50.5155L39.2402 50.405C39.2402 50.2944 39.2402 50.1839 39.3507 50.1839C39.4612 50.1839 39.4612 50.1839 39.4612 50.2944L39.5718 50.405C39.6823 50.405 39.7929 50.405 39.9034 50.2944V50.1839C39.7929 49.8523 39.7929 49.7417 40.0139 49.6312C40.0139 49.6312 40.0139 49.6312 40.1245 49.6312H39.9034C39.7929 49.6312 39.4612 49.7417 38.798 49.8523C38.1348 49.9628 37.8032 50.0734 37.6926 50.1839L37.14 50.0734L37.0294 49.8523C37.0294 49.7417 37.0294 49.6312 37.14 49.5207H36.3662C35.8135 49.5207 35.1503 49.6312 34.3765 49.9628C34.266 49.8523 34.1555 49.7417 33.9344 49.8523L33.2712 50.405L33.0501 50.5155C32.9395 50.5155 32.9396 50.5155 32.9396 50.405L31.8342 50.7366C31.7236 50.8471 31.6131 50.8471 31.6131 50.8471C31.6131 50.8471 31.5026 50.8471 31.392 50.7366C31.171 50.8471 30.8393 50.8471 30.3972 50.9576V51.0682C30.1761 51.0682 29.955 51.1787 29.734 51.2893C29.734 51.2893 29.6234 51.1787 29.5129 51.1787L29.2918 51.2893L28.7391 51.3998H28.5181L27.0811 51.9525C27.0811 51.8419 26.9705 51.7314 26.6389 51.842C26.5284 51.9525 26.4179 51.9525 26.1968 52.063L25.9757 52.1736L25.8652 52.2841C25.423 52.1736 24.7598 52.1736 23.986 52.3946L22.9912 52.7262C22.5491 52.8368 22.328 52.8368 21.9964 52.8368C21.9964 52.7262 22.328 52.6157 22.9912 52.2841L23.3228 52.1736L23.6544 52.063L23.986 51.9525C23.986 52.063 24.2071 52.1736 24.5387 52.063L24.9809 51.842C25.0914 51.7314 25.2019 51.7314 25.2019 51.7314C25.423 51.7314 26.0862 51.6209 27.0811 51.2893C27.4127 51.1787 27.8548 51.0682 28.1865 50.9576C28.6286 50.8471 28.8497 50.8471 29.0707 50.7366L28.6286 50.405L27.6338 50.7366H27.5232L27.4127 50.626C27.4127 50.626 27.3022 50.626 27.1916 50.626L26.7495 50.5155L26.3073 50.9576L26.0862 50.8471L25.8652 50.626C25.7546 50.5155 25.6441 50.2944 25.6441 50.1839C25.6441 50.0734 25.7546 49.9628 25.8652 49.8523C26.0862 49.8523 26.1968 49.8523 26.3073 49.9628L26.5284 49.8523C26.7495 49.8523 26.7495 49.8523 26.86 49.9628L27.7443 49.6312H28.1865C28.4075 49.4101 28.6286 49.1891 28.9602 49.0785L29.5129 48.8574L29.955 48.7469C30.0656 48.8574 30.1761 48.8574 30.3972 48.6364L30.6183 48.4153C30.7288 48.3048 30.7288 48.3048 30.8393 48.3048L30.9499 47.9731C31.8342 47.1994 32.7185 46.7572 33.8238 46.8678L34.4871 46.5362C34.4871 46.5362 34.3765 46.5362 34.266 46.4256C34.0449 46.4256 34.0449 46.3151 34.0449 46.3151C34.0449 46.3151 34.266 46.2046 34.5976 45.9835L35.0398 45.8729L35.2608 45.7624C35.703 45.8729 36.1451 45.8729 36.6978 45.6519V45.3203L37.6926 44.9886C37.8032 44.9886 38.0243 44.9886 38.3559 44.7676L38.6875 44.657L39.1296 44.5465C39.2402 44.5465 39.3507 44.5465 39.4612 44.436L39.6823 44.1043C39.9034 43.7727 40.0139 43.6622 40.1245 43.6622H40.4561C40.5666 43.6622 40.6772 43.5517 40.6772 43.4411C41.0088 43.1095 41.3404 42.7779 41.7825 42.5568C42.1141 42.5568 42.3352 42.5568 42.4457 42.3358L43.4406 42.0041C43.4406 41.7831 43.5511 41.562 43.6617 41.562L43.7722 41.0093C44.1038 40.6777 44.3249 40.3461 44.546 40.125C44.546 40.0145 44.546 39.7934 44.6565 39.5723C44.767 39.3512 44.767 39.1302 44.767 39.0196L45.0986 38.5775L45.2092 38.0248C45.2092 37.9143 45.2092 37.8037 45.2092 37.6932C45.2092 37.5826 45.3197 37.4721 45.2092 37.3616L45.4303 36.8089C45.5408 36.8089 45.5408 36.6984 45.5408 36.6984C45.4303 36.4773 45.5408 36.3667 45.6513 36.3667C45.8724 36.2562 45.9829 36.1457 45.9829 35.8141C45.9829 35.4824 45.9829 35.2614 46.204 35.2614L46.6462 34.8192C46.5356 34.5981 46.6462 34.2665 46.7567 33.9349L46.9778 33.4928L47.1988 33.0506C47.0883 32.719 47.1988 32.4979 47.4199 32.4979L47.641 31.8347C47.7515 31.7242 47.7515 31.7242 47.7515 31.6136L47.641 31.3926L47.7515 30.9504C47.9726 30.8399 48.0831 30.7293 48.0831 30.3977C48.0831 30.0661 48.0831 29.845 48.1937 29.845L48.4148 28.7397C48.4148 28.6291 48.4148 28.4081 48.6358 28.2975C48.8569 28.0765 48.9674 27.9659 48.8569 27.7448C48.9674 27.6343 48.9674 27.5238 48.9674 27.4132L48.8569 27.0816C49.2991 26.6395 49.5201 26.0868 49.6307 25.313C49.6307 25.2025 49.6307 24.9814 49.7412 24.6498L49.9623 24.3182C50.0728 24.2076 50.0728 24.0971 50.0728 24.0971C50.2939 23.5444 50.515 22.9917 50.736 22.5496L47.641 22.4391L47.7515 22.218C48.1937 22.218 48.6358 22.218 49.1885 22.218L50.6255 21.9969L50.4044 21.8864L48.7464 21.9969H47.0883C45.7619 21.9969 44.6565 22.1074 43.8827 22.218L42.8879 22.3285L41.7825 22.5496L39.4612 22.1074C37.8032 22.3285 36.3662 22.4391 35.1503 22.4391C35.1503 22.5496 34.9292 22.6601 34.5976 22.7707L34.1555 22.8812H33.8238C33.7133 22.8812 33.6028 22.8812 33.4922 22.7707C33.3817 22.7707 33.3817 22.6601 33.3817 22.5496L34.7081 21.9969C34.9292 21.9969 35.2608 21.9969 35.703 21.8864L36.2557 21.7758L36.8084 21.6653H37.0294L37.2505 21.5548C37.4716 21.5548 37.5821 21.4442 37.5821 21.3337L37.361 21.2231L37.2505 21.1126C37.14 21.0021 37.0294 21.0021 36.9189 21.0021H36.8084H36.4767C36.8084 21.0021 37.2505 21.0021 37.5821 20.8915L38.6875 20.6705C38.6875 20.5599 38.9086 20.4494 39.2402 20.3388L39.6823 20.2283C39.6823 20.2283 39.6823 20.1178 39.5718 20.1178L39.4612 20.0072C39.4612 20.0072 39.4612 19.8967 39.4612 19.7862C39.4612 19.7862 39.3507 19.6756 39.2402 19.6756L37.5821 19.7862C36.9189 19.7862 36.3662 19.7862 35.9241 19.7862C36.5873 19.6756 37.14 19.5651 37.4716 19.5651H37.6926L38.0243 19.4545C38.3559 19.4545 38.4664 19.4545 38.4664 19.344C38.4664 19.2335 38.3559 19.0124 38.2453 19.0124L35.703 19.1229C35.703 19.2335 35.703 19.344 35.5924 19.344C35.5924 19.344 35.4819 19.344 35.4819 19.2335L35.3714 19.1229C34.8187 19.1229 33.8238 19.2335 32.6079 19.344L31.171 19.5651L29.734 19.6756L29.5129 19.8967L24.6493 20.1178L24.4282 20.6705C24.2071 20.6705 24.0966 20.5599 24.0966 20.4494C24.0966 20.0072 24.2071 19.7862 24.3176 19.7862C24.7598 19.7862 25.0914 19.6756 25.3125 19.5651H25.6441L26.5284 19.2335C26.5284 19.0124 26.6389 18.9019 26.9705 18.7913L27.4127 18.6808H28.7391L30.3972 18.0176C30.3972 18.0176 30.5077 17.907 30.6183 17.907H30.8393C30.9499 17.907 31.171 17.7965 31.5026 17.686L31.9447 17.5754L32.3869 17.4649C32.3869 17.3543 32.3869 17.2438 32.4974 17.1333C32.6079 17.0227 32.7185 16.9122 32.9396 16.9122C33.4922 16.9122 34.1555 16.8017 35.1503 16.6911C36.1451 16.5806 36.8083 16.3595 37.2505 16.249L37.6926 16.3595C37.8032 16.3595 37.9137 16.3595 38.1348 16.249C38.1348 16.1384 38.2453 16.0279 38.4664 16.0279L38.798 15.9174H39.2402L39.7929 15.5857C40.235 15.4752 40.7877 15.3647 41.5615 15.2541L42.1141 15.4752C42.3352 15.4752 42.6668 15.3647 42.9984 15.3647C43.2195 15.2541 43.33 15.1436 43.5511 15.1436H45.2092C45.7619 15.1436 46.3146 15.1436 46.7567 15.0331L47.3094 14.7014L47.9726 14.5909L48.1937 14.7014H48.5253C48.7464 14.7014 48.9674 14.7014 49.078 14.4804C49.1885 14.4804 49.4096 14.3698 49.6307 14.3698H50.1834C50.736 14.3698 51.1782 14.3698 51.5098 14.2593C51.7309 14.3698 52.0625 14.3698 52.5046 14.2593L52.9468 14.1488L53.3889 14.0382L56.9261 13.9277H57.4788L58.0315 14.0382V13.9277C58.142 13.8172 58.142 13.7066 58.2526 13.4855L58.3631 13.1539L58.8053 12.7118C59.2474 11.2748 59.8001 10.0589 60.7949 9.17459C60.7949 9.06405 60.7949 8.84298 60.9055 8.51136C61.016 8.29029 61.016 8.06922 61.016 7.95868L61.3476 7.84814L61.5687 7.62707C61.7898 7.51653 61.7898 7.29546 61.7898 7.18492C62.0108 7.18492 62.0108 7.07438 62.0108 6.96384C62.0108 6.85331 62.1214 6.74277 62.2319 6.74277C62.2319 6.63223 62.3424 6.63223 62.453 6.63223H62.7846L63.1162 6.19008C63.1162 5.96901 63.2267 5.6374 63.3373 5.30579C63.5584 4.97417 63.6689 4.64256 63.89 4.42149C63.89 4.20041 64.0005 4.08988 64.2216 4.08988C64.3321 4.08988 64.4426 4.08988 64.4426 3.97934C64.4426 3.97934 64.3321 3.8688 64.2216 3.8688C64.111 3.75827 64.0005 3.75827 64.0005 3.75827L64.2216 3.09504L64.7743 2.87397L65.327 1.87913C65.4375 1.87913 65.548 1.7686 65.7691 1.43698L65.8796 1.10537L65.9902 0.994835V0.884298L66.2112 0C66.4323 0 66.6534 0.110537 66.6534 0.331612C66.6534 0.442149 66.5429 0.663223 66.4323 0.884298L66.2112 1.10537C66.2112 1.21591 66.1007 1.21591 65.9902 1.32645C65.9902 1.43698 65.9902 1.65806 65.8796 1.7686C65.7691 1.87913 65.7691 1.87913 65.7691 1.98967C65.548 2.10021 65.548 2.32128 65.548 2.43182V2.54236C65.3269 2.54236 65.1059 2.65289 65.1059 2.87397V2.9845C64.9953 2.9845 64.9953 3.09504 64.8848 3.20558C64.8848 3.31612 64.7743 3.42665 64.7743 3.53719C64.6637 3.53719 64.6637 3.64773 64.5532 3.75827C64.5532 3.8688 64.4426 3.97934 64.4426 4.08988L64.2216 4.53203L64.111 4.97417L64.2216 5.08471C64.111 6.07955 63.7794 6.85331 63.2267 7.51653L62.8951 7.62707V8.06922C62.8951 8.17975 62.7846 8.29029 62.6741 8.29029H62.3424V8.51136L62.2319 8.73244L62.1214 9.17459C62.0108 9.61674 61.9003 9.83781 61.7898 9.94835C61.7898 9.94835 61.6792 9.94835 61.5687 10.0589C61.5687 10.0589 61.4581 10.1694 61.4581 10.28V10.3905C61.3476 10.501 61.2371 10.7221 61.1265 11.0537C61.2371 11.0537 61.3476 11.0537 61.3476 11.1643C61.3476 11.2748 61.3476 11.2748 61.3476 11.3853C61.4581 11.2748 61.5687 11.0537 61.7898 10.7221L62.0108 10.28L62.2319 9.94835C62.5635 9.28513 63.0057 8.84298 63.4478 8.84298L63.5584 9.5062L63.3373 9.61674L63.1162 9.72727C62.8951 9.83781 62.7846 9.94835 62.7846 10.0589C62.7846 10.28 62.8951 10.501 63.0057 10.8326C63.0057 10.8326 63.1162 10.7221 63.1162 10.6116V10.28C63.1162 10.1694 63.1162 10.0589 63.2267 9.94835L63.4478 9.83781L63.5584 9.72727C63.89 9.5062 64.0005 9.06405 64.111 8.51136C64.2216 8.51136 64.3321 8.29029 64.6637 8.06922L64.8848 7.7376C64.9953 7.62707 64.9953 7.51653 65.1059 7.51653C65.2164 7.51653 65.327 7.51653 65.327 7.62707C65.4375 7.7376 65.4375 7.7376 65.4375 7.84814V8.17975L64.9953 8.40083C65.2164 8.73244 65.327 9.06405 65.327 9.5062C65.327 9.72727 65.2164 9.83781 64.9953 9.83781C64.9953 9.94835 64.9953 10.1694 64.8848 10.3905L64.7743 10.7221L64.6637 10.9432C64.4427 11.0537 64.4426 11.2748 64.4426 11.6064V11.7169L64.7743 11.2748C64.8848 11.2748 64.9953 11.2748 64.9953 11.3853C64.9953 11.3853 64.8848 11.938 64.5532 13.0434C64.4426 13.375 64.3321 13.7066 64.2216 14.1488C64.2216 14.2593 64.111 14.3698 64.111 14.3698H65.1059H65.2164C65.327 14.2593 65.327 14.1488 65.4375 14.0382C65.4375 13.9277 65.548 13.8172 65.548 13.5961C65.7691 13.5961 65.7691 13.5961 65.7691 13.4855C65.7691 13.375 65.8796 13.2645 65.9902 13.2645L66.4323 12.9329H66.6534C66.7639 12.9329 66.8745 12.8223 66.8745 12.8223L66.7639 12.4907C66.985 12.3802 67.0955 12.2696 67.0955 12.0486C67.2061 11.938 67.3166 11.8275 67.4272 11.6064L67.5377 10.9432C67.7588 10.501 67.9798 10.28 68.0904 10.28H68.2009C68.2009 10.28 68.2009 10.1694 68.3115 10.0589L68.422 9.72727C68.6431 9.39566 68.6431 9.17459 68.6431 9.06405C68.7536 9.06405 68.8641 9.06405 68.9747 8.95351L69.0852 8.84298L69.3063 8.73244C69.3063 8.73244 69.4168 8.73244 69.4168 8.84298H69.5274V8.95351L69.4168 9.06405C69.4168 9.17459 69.4168 9.28512 69.5274 9.28512C69.859 9.28512 69.9695 9.39566 69.859 9.72727C69.859 9.72727 69.9695 9.72727 69.9695 9.61674L70.08 9.5062C70.08 9.17459 70.1906 9.06405 70.3011 9.06405C70.5222 9.06405 70.5222 9.17459 70.5222 9.28512C70.5222 9.39566 70.5222 9.5062 70.4117 9.72727L70.1906 10.0589L69.7484 10.28C69.7484 10.3905 69.6379 10.6116 69.5274 10.7221C69.4168 10.8326 69.3063 11.1643 69.3063 11.4959L69.0852 11.7169L68.6431 11.8275C68.6431 11.7169 68.7536 11.6064 68.8641 11.4959C69.0852 11.4959 69.0852 11.1643 69.0852 10.6116L69.1958 10.501L69.3063 10.3905C69.4168 10.28 69.4168 10.28 69.4168 10.1694C69.4168 10.1694 69.4168 10.0589 69.3063 10.0589H69.1958C68.9747 10.1694 68.6431 10.3905 68.2009 10.7221C68.2009 10.7221 68.0904 10.9432 68.0904 11.1643L67.9798 11.8275C67.8693 12.3802 67.7588 12.6012 67.5377 12.7118L66.985 13.5961L66.8745 14.1488L67.4272 13.9277L67.6482 13.4855V13.1539L68.0904 13.2645V12.7118C68.2009 12.7118 68.3115 12.7118 68.3115 12.4907L68.422 12.2696C68.422 12.1591 68.5325 12.1591 68.6431 12.1591C68.7536 12.1591 68.8641 12.2696 68.8641 12.3802V12.6012C68.8641 12.7118 68.8641 12.7118 68.7536 12.8223C68.6431 12.8223 68.6431 12.9329 68.6431 12.9329C68.6431 12.9329 68.5325 13.2645 68.422 13.8172L68.3115 14.3698C68.2009 14.5909 68.2009 14.7014 68.2009 14.7014L68.7536 14.812L69.3063 14.9225C69.7484 15.0331 70.0801 15.0331 70.3011 15.0331C70.3011 15.1436 70.3011 15.2541 70.5222 15.2541L70.7433 15.3647H71.296C71.517 15.3647 71.517 15.4752 71.6276 15.5857L73.2856 15.6963L73.5067 15.9174H74.1699C74.391 16.0279 74.5015 16.1384 74.6121 16.1384C74.6121 16.1384 74.7226 16.1384 74.7226 16.0279V15.9174L75.2753 16.0279L75.4964 15.8068C75.9385 16.1384 76.3807 16.249 76.9334 16.3595L77.486 16.9122L78.0387 17.0227L78.4809 17.1333L79.1441 17.5754C79.1441 17.3543 79.2546 17.3543 79.3652 17.3543L79.4757 17.5754L79.5863 17.686C79.8073 17.686 80.0284 17.7965 80.4705 17.907L80.9127 18.1281C81.0232 18.1281 81.1338 18.2386 81.3548 18.2386C81.3548 18.3492 81.3548 18.3492 81.4654 18.4597C81.5759 18.5703 81.5759 18.5702 81.6865 18.5702C81.9075 18.5702 81.9075 18.4597 81.9075 18.3492C82.0181 18.3492 82.1286 18.3492 82.3497 18.4597C82.5708 18.4597 82.5708 18.5702 82.6813 18.6808L82.7918 18.9019L83.4551 19.0124L84.0077 19.4545L83.234 19.6756C83.234 19.7862 83.3445 19.8967 83.4551 19.8967L83.6761 20.0072H83.8972L84.2288 19.8967L84.5604 19.7862C84.892 19.7862 85.1131 19.8967 85.2236 20.0072C85.1131 20.1178 85.0026 20.2283 84.7815 20.2283C84.7815 20.2283 84.671 20.2283 84.671 20.1178V20.0072H84.1183L84.3393 20.3388L85.0026 20.5599C84.7815 20.3388 84.7815 20.2283 85.1131 20.2283L85.5553 20.4494L85.3342 20.6705C85.5553 20.781 85.7763 20.8915 86.1079 20.8915L86.2185 21.2231L86.4396 21.4442C86.5501 21.6653 86.7712 21.7758 86.9922 21.7758L87.4344 22.218L87.766 21.9969L88.2081 22.4391L89.3135 22.9917L89.9767 24.0971C89.9767 24.3182 89.9767 24.5393 89.8662 24.6498L89.6451 24.4287L89.5346 24.3182C89.4241 24.2076 89.3135 24.0971 89.203 24.0971C89.203 23.876 89.203 23.7655 89.0924 23.7655C88.9819 23.7655 88.9819 23.7655 88.9819 23.876C88.9819 23.9866 88.8714 23.9866 88.8714 24.0971C89.0925 24.2076 89.3135 24.4287 89.6451 24.7603L90.0873 25.0919L90.5294 25.4236C90.5294 25.5341 90.5294 25.7552 90.64 25.9762L90.861 26.3079L90.9716 26.5289L90.861 26.6395L90.7505 26.75C90.64 26.8605 90.64 26.9711 90.861 26.9711C90.861 27.0816 90.861 27.1922 90.861 27.3027C90.861 27.4132 90.9716 27.4132 91.0821 27.4132C90.861 28.4081 90.7505 29.2924 90.7505 29.9556L90.5294 30.1767C90.5294 30.2872 90.5294 30.3977 90.4189 30.5083C90.4189 30.6188 90.3084 30.7293 90.1978 30.8399L90.0873 31.1715C89.8662 31.282 89.7557 31.3926 89.5346 31.6136L89.4241 32.0558C89.0925 32.6085 88.7608 32.9401 88.4292 33.0506C88.4292 33.3822 87.766 34.0455 86.329 35.0403L85.4447 35.7035L84.5604 36.3667C84.0077 36.8089 83.5656 37.1405 83.4551 37.251C83.4551 37.3616 83.4551 37.4721 83.3445 37.4721C83.234 37.4721 83.0129 37.3616 82.7918 37.251L82.5708 37.1405L82.3497 37.03C82.2391 37.03 82.1286 37.1405 82.1286 37.251L81.1338 38.0248H80.36C80.0284 38.1353 79.9179 38.3564 79.8073 38.688C79.1441 38.9091 78.5914 39.2407 78.2598 39.4618L78.1493 39.3512L78.0387 39.2407C77.9282 39.1302 77.9282 39.1302 77.9282 39.0196C77.9282 39.0196 77.9282 38.9091 78.0387 38.9091H78.1493C78.3703 38.7986 78.4809 38.5775 78.5914 38.2459H79.2546L79.8073 37.8037V37.5826L79.2546 37.8037C78.8125 37.8037 78.4809 37.9143 78.2598 38.0248C78.0387 38.1353 77.9282 38.2459 77.8177 38.3564C77.5966 38.688 77.486 38.7986 77.3755 38.7986H77.1544L76.3807 39.1302C76.3807 39.3512 76.6017 39.4618 76.9334 39.4618H77.0439C77.0439 39.2407 77.265 39.2407 77.5966 39.3512L78.0387 39.5723L78.1493 39.6829L78.2598 39.7934C78.2598 40.0145 78.1493 40.2355 77.9282 40.3461C77.7071 40.4566 77.486 40.5672 77.265 40.5672L76.0491 40.8988C76.0491 41.0093 76.1596 41.1198 76.2701 41.2304C76.3807 41.2304 76.4912 41.3409 76.7123 41.3409H76.9334C76.9334 41.4515 76.8228 41.562 76.7123 41.562H76.4912L76.3807 41.3409V41.4515C76.3807 41.562 76.2701 41.562 76.2701 41.562C76.2701 41.562 76.1596 41.562 76.1596 41.4515L76.0491 41.3409L75.828 41.1198C75.828 41.2304 75.828 41.2304 75.7174 41.3409H75.4964C75.4964 41.4515 75.3858 41.562 75.0542 41.6725L74.7226 41.8936C74.6121 42.0041 74.6121 42.1147 74.6121 42.2252C74.2805 42.6674 73.9488 43.1095 73.7278 43.22L73.2856 42.7779L72.5119 42.4463C72.5119 42.2252 72.4013 42.0041 71.9592 42.0041L71.7381 41.8936H71.517C71.4065 41.8936 71.296 41.7831 71.296 41.6725V41.562C70.6327 41.7831 70.0801 42.0041 69.6379 42.3358H69.1958L68.7536 42.4463C68.3115 42.5568 68.2009 42.6674 68.0904 42.8884H67.5377C67.5377 42.999 67.4272 43.1095 67.0955 43.1095H66.985L67.0955 43.4411C67.2061 43.3306 67.4272 43.22 67.6482 43.22L67.9798 43.3306L68.2009 43.4411C68.5325 43.3306 68.8641 43.22 69.0852 43.22C69.3063 43.22 69.4168 43.3306 69.4168 43.4411H69.5274C69.6379 43.4411 69.6379 43.4411 69.6379 43.3306L69.5274 43.22V43.1095C69.4168 42.999 69.5274 42.999 69.6379 42.999L70.3011 42.5568L70.5222 42.7779L70.8538 42.5568C71.1854 42.5568 71.4065 42.6674 71.7381 42.6674C72.0697 42.6674 72.4013 42.6674 72.6224 42.5568C72.2908 42.6674 72.2908 42.8884 72.5119 42.8884L72.954 42.999C73.1751 42.999 73.1751 43.1095 73.2856 43.1095C73.2856 43.22 73.1751 43.3306 72.954 43.3306L72.6224 43.4411H72.4013C72.5119 43.6622 72.4013 43.7727 72.1803 43.7727C71.7381 43.7727 71.517 43.8833 71.296 43.9938L70.6327 44.2149C70.5222 44.436 70.4117 44.5465 70.1906 44.5465L70.08 44.7676L69.9695 44.9886C69.859 45.2097 69.7484 45.3203 69.7484 45.3203C69.7484 45.3203 69.6379 45.3203 69.6379 45.2097C69.6379 44.9886 69.5274 44.8781 69.4168 44.8781C69.0852 44.8781 68.7536 44.9886 68.3115 45.2097C68.2009 45.2097 68.0904 45.2097 67.9798 45.2097C67.8693 45.2097 53.7205 49.7417 53.7205 50.5155L53.3889 50.2944L53.1679 50.5155C53.0573 50.5155 52.8362 50.8471 52.5046 51.6209L52.2836 51.9525L52.0625 52.2841V52.5052L51.952 52.6157L51.6203 53.0579V53.1684C51.6203 53.2789 51.6203 53.5 51.5098 53.7211C51.3993 53.9422 51.3993 54.1632 51.3993 54.2738L51.1782 54.7159L50.9571 55.1581C50.736 55.4897 50.6255 55.7108 50.515 56.0424C50.2939 56.1529 50.1834 56.2634 50.1834 56.374L50.2939 56.5951L49.9623 57.0372L50.1834 57.5899L49.6307 58.032L49.7412 58.6953C49.6307 58.8058 49.5201 58.9163 49.2991 59.1374H49.5201L49.7412 59.0269H49.9623L50.0728 58.9163L50.4044 58.8058L50.9571 59.0269C50.9571 59.1374 51.0677 59.1374 51.1782 59.1374H51.2887H51.3993C51.3993 59.0269 51.3993 59.0269 51.5098 59.0269H51.6203L51.7309 59.1374L52.173 59.0269C52.2836 59.0269 52.3941 59.1374 52.7257 59.1374C53.0573 59.2479 53.3889 59.3585 53.8311 59.469C54.8259 59.8006 55.8207 60.0217 56.705 60.2428C59.3579 61.0165 60.7949 61.4587 60.9055 61.6798V61.7903C60.9055 61.7903 60.6844 61.7903 60.4633 61.6798C60.2422 61.5692 60.0212 61.5692 59.9106 61.6798L59.8001 61.7903C59.9106 61.7903 60.0212 61.9008 60.1317 61.9008C60.2422 62.0114 60.3528 62.0114 60.4633 62.0114L60.7949 62.2324L61.1265 62.343L61.4581 62.4535C61.6792 62.5641 61.9003 62.6746 62.1214 62.7851V62.6746C62.1214 62.6746 62.1214 62.6746 62.2319 62.6746V62.7851C62.453 62.8957 62.6741 63.0062 62.8951 63.1167C62.8951 63.2273 62.8951 63.2273 63.0057 63.2273L63.1162 63.3378L63.2267 63.4484V63.5589L63.3373 63.78C62.1214 63.4484 61.1265 63.2273 60.5738 63.1167C60.4633 63.0062 60.3528 63.0062 60.2422 63.0062H60.1317H59.9106L58.4736 62.6746L57.0367 62.2324C56.9261 62.2324 56.9261 62.2324 56.8156 62.2324H56.705H56.2629L56.3734 62.5641C56.3734 62.6746 56.484 62.6746 56.705 62.6746C56.8156 62.6746 56.9261 62.7851 57.0367 62.7851V62.8957C56.9261 63.0062 56.5945 62.8957 55.9313 62.6746C55.2681 62.5641 54.9365 62.4535 54.8259 62.4535C54.8259 62.4535 54.7154 62.5641 54.8259 62.5641L54.6048 62.4535L54.4943 62.6746C54.6048 62.6746 54.7154 62.7851 54.7154 62.8957L54.9365 63.1167C54.9365 63.0062 55.2681 63.0062 55.9313 63.2273L56.3734 63.3378L56.8156 63.4484C57.1472 63.5589 57.2577 63.5589 57.3683 63.5589L57.5893 63.8905H57.6999L57.8104 63.78V63.6694C57.8104 63.6694 57.921 63.6694 58.142 63.8905H58.6947L58.8053 64.1116V64.2221H58.6947H58.5842H58.4736C58.4736 64.3326 58.142 64.3326 57.6999 64.2221C57.5893 64.2221 57.3683 64.1116 57.1472 64.001L56.484 63.8905C56.3734 63.8905 56.3734 63.8905 56.3734 63.8905V64.3327C56.484 64.4432 56.705 64.4432 56.8156 64.4432L57.3683 64.5537V64.7748L56.3734 64.4432C56.0418 64.3327 55.5997 64.2221 55.3786 64.2221C55.2681 64.3326 55.1575 64.3327 55.047 64.3327H54.8259C54.7154 64.3327 54.7154 64.3327 54.6048 64.4432L54.7154 64.5537H54.8259L55.047 64.7748L58.142 65.5486L58.3631 65.9907L58.8053 66.1012C58.8053 66.2118 59.0263 66.3223 59.3579 66.4329L59.8001 66.5434C59.9106 66.5434 60.0212 66.6539 60.0212 66.6539V66.7645C60.0212 66.875 59.9106 66.875 59.9106 66.875C59.6896 66.875 59.4685 66.875 59.3579 66.7645L59.2474 66.6539H59.1369L59.0263 66.7645C58.9158 66.7645 58.8053 66.6539 58.6947 66.5434H58.5842L58.3631 66.4329C58.2526 66.4329 58.142 66.3223 58.0315 66.4329V66.5434C58.0315 66.5434 58.142 66.6539 58.2526 66.6539H58.3631C58.4736 66.6539 58.4736 66.6539 58.4736 66.6539V66.7645H58.3631H58.2526C58.2526 66.875 58.142 66.9855 58.0315 66.875H57.8104C57.6999 66.875 57.6999 66.875 57.6999 66.875C57.5893 66.875 57.5893 67.0961 57.5893 67.3172C57.5893 67.5382 57.5893 67.6488 57.5893 67.6488C57.5893 67.6488 57.2577 67.6488 56.705 67.4277L56.3734 67.3172L56.0418 67.2066C55.8207 67.0961 55.7102 67.0961 55.5997 67.0961L55.3786 66.6539L54.0522 66.3223V66.4329C54.0522 66.5434 54.1627 66.5434 54.2732 66.5434L54.6048 66.6539C54.9365 66.6539 55.1575 66.7645 55.1575 66.875L55.2681 67.2066L54.9365 67.3172L54.8259 67.2066H54.7154C54.6048 67.2066 54.4943 67.2066 54.4943 67.0961V66.9855L54.0522 66.875C53.8311 66.875 53.7205 66.7645 53.61 66.7645C53.4995 66.875 53.3889 66.875 53.2784 66.875L53.0573 66.7645L52.7257 66.6539C52.5046 66.5434 52.2836 66.5434 52.173 66.6539C52.173 66.6539 52.173 66.7645 52.2836 66.7645L52.5046 66.875C52.6152 66.9855 52.7257 67.0961 52.6152 67.0961C51.8414 66.7645 51.0676 66.5434 50.4044 66.2118L50.1834 66.3223L50.2939 66.5434H50.0728C49.9623 66.5434 49.9623 66.5434 49.8517 66.5434L49.078 66.3223C49.078 66.4329 48.9674 66.5434 48.7464 66.4329H48.6358L48.1937 66.3223H48.0831H47.9726H47.7515C47.641 66.3223 47.5305 66.2118 47.4199 66.1012V65.9907H47.5305H47.641C47.7515 65.9907 47.7515 65.9907 47.7515 65.8802C47.4199 65.7696 47.3094 65.7696 47.1988 65.7696L46.9778 65.8802H46.5356L46.3146 65.9907H46.204H46.0935L45.9829 66.1012L45.6513 65.9907L45.5408 66.2118H45.4303C45.4303 66.1012 45.4303 66.3223 45.3197 66.5434ZM48.0831 65.9907C48.0831 66.1012 48.0831 66.1012 48.0831 66.1012L48.1937 66.2118C48.3042 66.2118 48.3042 66.2118 48.4148 66.2118C48.5253 66.1012 48.6358 66.1012 48.7464 66.2118L48.9674 66.3223C48.9674 66.3223 48.8569 66.2118 48.6358 66.2118C48.4148 66.1012 48.3042 66.1012 48.1937 66.1012L48.0831 65.9907ZM56.8156 63.0062L57.5893 63.2273H57.3683H57.1472C56.9261 63.1167 56.8156 63.1167 56.8156 63.0062ZM52.5046 67.6488H52.6152C52.7257 67.6488 52.8362 67.7593 52.8362 67.7593V67.8699C52.6152 67.8699 52.3941 67.8698 52.2836 67.6488V67.5382C52.2836 67.6488 52.5046 67.6488 52.5046 67.6488ZM54.2732 60.3533L54.6048 60.4639C54.7154 60.5744 54.8259 60.5744 54.8259 60.5744C54.8259 60.5744 54.7154 60.4639 54.6048 60.4639C54.3838 60.2428 54.2732 60.2428 54.2732 60.3533C54.2732 60.2428 54.2732 60.3533 54.2732 60.3533ZM45.6513 66.9855V67.0961C45.7619 67.2066 45.8724 67.2066 45.9829 67.2066C45.8724 67.0961 45.7619 66.9855 45.6513 66.9855ZM56.8156 65.9907L56.9261 66.1012H57.0367V65.9907C57.0367 65.9907 56.9261 65.9907 56.9261 65.8802L56.8156 65.9907ZM53.8311 67.0961L53.61 66.9855C53.61 66.9855 53.61 66.875 53.4995 66.7645L53.8311 67.0961ZM53.61 63.1167C53.7205 63.2273 53.8311 63.2273 53.9416 63.2273C53.9416 63.2273 53.8311 63.2273 53.8311 63.1167H53.61ZM45.2092 67.0961H45.3197C45.3197 67.0961 45.2092 66.9855 45.2092 67.0961ZM50.1834 65.6591L50.2939 65.7696C50.2939 65.7696 50.2939 65.7696 50.4044 65.6591H50.1834ZM58.9158 61.5692C58.9158 61.6798 58.9158 61.6798 58.9158 61.5692C58.9158 61.6798 59.0263 61.7903 59.0263 61.6798C59.0263 61.7903 59.1369 61.6798 58.9158 61.5692ZM50.8466 21.9969C50.6255 22.5496 50.515 23.1023 50.515 23.5444H51.1782V23.3234C51.3993 23.2128 51.7309 22.9917 52.173 22.8812H52.2836C52.2836 22.8812 52.3941 22.8812 52.3941 22.7707C52.3941 22.6601 52.2836 22.4391 52.173 22.4391C52.0625 22.4391 51.9519 22.3285 51.8414 22.218C51.7309 22.1074 51.6203 21.9969 51.3993 21.9969H50.8466ZM51.5098 24.0971C51.6203 24.0971 51.6203 24.0971 51.5098 24.0971L51.7309 24.2076H51.8414C51.8414 24.2076 51.8414 24.3182 51.7309 24.3182H51.6203C51.8414 24.3182 51.9519 24.3182 52.0625 24.3182C52.0625 24.2076 52.0625 24.2076 52.173 24.0971C52.173 24.0971 52.0625 23.9866 51.952 23.9866L51.7309 23.876L51.5098 24.0971C51.5098 23.9866 51.5098 24.0971 51.5098 24.0971ZM51.6203 24.9814C51.5098 25.2025 51.5098 25.5341 51.6203 25.7552C51.6203 25.8657 51.6203 25.8657 51.7309 25.8657C51.7309 25.7552 51.8414 25.5341 51.952 25.4236L52.0625 25.2025L52.173 24.9814H52.2836C52.2836 24.8709 52.2836 24.8709 52.2836 24.7603C51.9519 24.8709 51.7309 24.9814 51.6203 24.9814ZM63.7794 15.0331C63.7794 15.1436 63.6689 15.1436 63.6689 15.2541C63.6689 15.3647 63.5584 15.3647 63.5584 15.4752C63.5584 15.5857 63.6689 15.5857 63.7794 15.6963C63.89 15.6963 64.0005 15.5857 64.0005 15.4752C63.89 15.3647 63.89 15.1436 63.7794 15.0331ZM58.8053 34.7087C58.6947 35.1508 58.5842 35.4824 58.4736 35.8141C58.3631 35.8141 58.3631 35.9246 58.2526 35.9246L58.5842 35.8141L58.9158 35.7035L59.1369 34.9298L59.6896 34.3771C59.8001 34.3771 59.8001 34.3771 59.9106 34.2665C59.9106 34.156 60.0212 34.156 60.0212 34.0455L59.4685 34.2665C59.3579 34.2665 59.3579 34.3771 59.2474 34.5981V34.9298L58.8053 34.7087ZM51.8414 52.1736C51.8414 52.2841 51.7309 52.3946 51.7309 52.5052L51.8414 52.3946L51.952 52.2841C51.8414 52.2841 51.8414 52.1736 51.8414 52.1736ZM35.0398 65.9907L35.1503 65.7696L35.0398 65.6591L34.9292 65.9907H35.0398ZM34.4871 66.5434C34.3765 66.7645 34.3765 66.9855 34.266 67.2066L34.0449 67.5382L34.5976 67.6488L34.7081 66.5434H34.5976H34.4871ZM34.1555 68.2015C34.0449 68.2015 34.0449 68.2015 34.1555 68.2015C34.0449 67.9804 34.0449 67.9804 33.9344 67.9804C33.9344 67.9804 33.8238 67.9804 33.8238 68.0909V68.2015C33.8238 68.312 33.9344 68.312 34.1555 68.2015ZM36.0346 66.875C35.9241 66.875 35.9241 66.875 36.0346 66.875H35.8135C35.8135 66.9855 35.9241 66.9855 36.1451 66.9855L36.0346 66.875ZM61.6792 30.6188C61.7898 30.6188 61.7898 30.5083 61.9003 30.2872C61.9003 30.1767 62.0108 30.0661 62.0108 29.9556L62.5635 29.2924C62.5635 29.1818 62.6741 28.9607 62.7846 28.7397L63.0057 28.5186C63.1162 28.4081 63.1162 28.2975 63.1162 28.187L62.8951 27.7448C62.6741 27.7448 62.453 27.8554 62.3424 28.187L62.1214 28.6291C62.0108 28.7397 61.9003 28.9607 61.6792 28.9607C61.6792 29.1818 61.4581 29.624 60.7949 30.2872C60.2422 30.9504 59.9106 31.6136 59.9106 32.2769L59.8001 32.3874L59.6896 32.4979C59.8001 32.719 59.8001 32.8296 59.8001 32.8296C59.8001 32.8296 59.8001 32.9401 59.9106 32.9401H60.0212L60.5738 32.4979C60.5738 32.3874 60.5738 32.2769 60.5738 32.1663C60.5738 32.0558 60.6844 31.9453 60.7949 31.9453L61.2371 31.5031C61.4581 31.5031 61.6792 31.5031 61.7898 31.3926L62.0108 31.282C62.1214 31.282 62.2319 31.1715 62.3424 31.1715H62.453L62.3424 31.8347C61.9003 31.8347 61.7898 31.9453 61.7898 32.1663L61.9003 32.2769L61.7898 32.4979C61.7898 32.6085 61.6792 32.6085 61.5687 32.719V33.0506C61.5687 33.1612 61.5687 33.2717 61.4581 33.2717L61.3476 33.1612L61.2371 33.4928L61.1265 33.8244C61.016 34.0455 60.7949 34.156 60.5738 34.156L60.3528 34.5981C60.4633 34.5981 60.4633 34.7087 60.5738 34.8192C60.6844 34.9298 60.6844 34.9298 60.6844 35.0403C60.6844 35.0403 60.6844 35.1508 60.5738 35.1508H60.4633L60.2422 35.3719V35.593C60.1317 35.8141 60.0212 35.9246 60.0212 35.9246C59.8001 35.9246 59.579 36.0351 59.579 36.2562L59.4685 36.3667C59.3579 36.3667 59.3579 36.4773 59.3579 36.4773C59.3579 36.4773 59.3579 36.5878 59.4685 36.5878L59.579 36.6984C59.8001 36.6984 60.2422 36.5878 60.7949 36.3667L61.4581 36.1457C61.6792 36.0351 61.9003 36.0351 62.0108 35.9246L62.453 35.593C62.6741 35.593 62.8951 35.4824 62.8951 35.3719C63.1162 35.2614 63.3373 35.1508 63.7794 34.9298C64.111 34.9298 64.2216 34.8192 64.2216 34.4876L64.9953 34.7087L65.1059 34.4876C65.1059 34.3771 65.2164 34.2665 65.327 34.2665C65.327 34.2665 65.4375 34.156 65.548 34.156H65.8796L66.3218 33.8244L67.3166 33.7138L67.4272 33.2717H67.8693C67.8693 33.1612 67.9798 33.0506 68.0904 33.0506H68.2009C68.422 32.9401 68.7536 32.719 69.0852 32.6085C69.5274 32.4979 69.859 32.3874 70.08 32.3874L70.7433 32.0558C70.7433 31.9453 70.9644 31.8347 71.1854 31.8347C71.1854 31.5031 71.4065 31.3926 71.7381 31.5031L72.2908 31.282C72.5119 31.282 72.5119 31.282 72.5119 31.1715L72.6224 30.9504C72.6224 30.9504 72.6224 30.8399 72.7329 30.8399H73.1751L73.6172 30.7293C73.9489 30.6188 74.1699 30.3977 74.1699 30.2872V30.0661C74.1699 29.9556 74.2805 29.9556 74.391 29.9556L74.5015 29.7345L75.0542 29.845L75.9385 28.6291L75.828 28.4081L75.7174 28.187C75.6069 27.9659 75.6069 27.8554 75.4964 27.8554C75.3858 27.8554 75.2753 27.8554 75.2753 27.9659L74.5015 27.8554C74.5015 27.5238 74.2805 27.4132 73.8383 27.3027C73.3962 27.1922 73.1751 27.0816 73.1751 26.8605V26.75C72.6224 26.75 71.9592 26.6395 71.296 26.5289L69.5274 26.1973C67.9798 25.8657 66.7639 25.7552 65.7691 25.7552C65.4375 25.7552 65.327 25.9762 65.327 26.4184C65.1059 26.4184 65.1059 26.5289 65.1059 26.75C65.1059 27.0816 64.9953 27.1922 64.6637 27.1922H64.5532C64.4426 27.5238 64.3321 27.9659 64.0005 28.5186L63.4478 29.0713V29.5134L63.2267 29.845C63.0057 29.624 62.7846 29.624 62.6741 29.9556C62.6741 30.0661 62.5635 30.1767 62.5635 30.3977V30.7293L61.6792 30.6188ZM85.1131 33.8244C85.0026 33.8244 84.7815 33.9349 84.5604 34.0455L84.3393 34.156L84.1183 34.3771C84.1183 35.0403 84.0077 35.2614 83.5656 35.2614V35.3719C83.5656 35.3719 83.5656 35.4824 83.4551 35.4824C83.3445 35.4824 83.3445 35.4824 83.3445 35.3719L83.234 35.2614V35.1508L82.7918 34.7087L82.4602 34.9298L82.9024 35.593L82.4602 35.8141L82.3497 35.3719L82.1286 35.593C81.797 35.593 81.6865 35.7035 81.6865 35.9246C81.6865 36.0351 81.6865 36.0351 81.797 36.0351C81.9075 36.0351 81.9075 36.0351 81.9075 35.9246L82.0181 35.8141L82.4602 35.7035C82.4602 35.8141 82.4602 35.9246 82.3497 36.0351C82.2391 36.1457 82.2391 36.2562 82.2391 36.3667L82.7918 36.1457L83.0129 36.2562H83.234C83.455 36.2562 83.4551 36.1457 83.4551 35.9246C84.0077 35.2614 84.5604 34.7087 85.2236 34.156L85.1131 34.0455C85.0026 33.9349 85.1131 33.9349 85.1131 33.8244L85.2236 33.9349L86.5501 33.3822C86.7712 33.0506 87.1028 32.719 87.4344 32.3874L87.9871 31.9453L88.5398 31.5031C88.6503 31.5031 88.7608 31.3926 88.7608 31.282C88.7608 31.1715 88.8714 31.061 88.9819 31.061L89.4241 30.6188H89.5346C89.5346 30.6188 89.6451 30.6188 89.6451 30.5083V30.3977C89.6451 30.2872 89.6451 30.2872 89.7557 30.2872H89.8662C89.9767 30.1767 89.9767 30.1767 89.9767 30.0661C89.9767 29.9556 89.9767 29.9556 89.8662 29.845L89.6451 29.624C89.6451 29.5134 89.6451 29.5134 89.5346 29.5134C89.4241 29.5134 89.3135 29.7345 89.0924 30.0661L88.8714 30.3977L88.7608 30.6188C88.5398 31.061 88.0976 31.5031 87.4344 31.8347C87.2133 31.8347 87.1028 31.8347 86.9922 32.0558L86.8817 32.2769C86.8817 32.2769 86.7712 32.3874 86.6606 32.3874C86.329 32.4979 85.9974 32.8296 85.6658 33.1612L85.2236 33.7138L85.1131 33.8244ZM75.6069 40.0145C75.4964 40.0145 75.4964 40.0145 75.3858 39.9039V39.6829C75.2753 39.6829 74.9437 39.9039 74.2805 40.2355C74.0594 40.3461 73.8383 40.4566 73.6172 40.5672L73.2856 40.7882C73.2856 40.8988 73.2856 40.8988 73.1751 41.0093C73.0646 41.0093 72.954 41.1198 72.954 41.1198L72.7329 41.3409V41.4515C72.7329 41.562 72.8435 41.6725 72.954 41.6725C73.1751 41.6725 73.5067 41.562 73.7278 41.4515C73.8383 41.4515 73.9489 41.3409 74.1699 41.2304C74.2805 41.1198 74.391 41.0093 74.6121 41.0093H74.7226C74.9437 40.6777 75.2753 40.5672 75.7174 40.5672L75.6069 40.0145ZM79.3652 35.1508C79.1441 35.0403 78.923 35.1508 78.702 35.3719H78.3703C78.2598 35.3719 78.1493 35.4824 78.1493 35.593L78.0387 35.7035L77.8177 35.8141L77.486 36.0351C77.1544 36.2562 76.8228 36.3667 76.6017 36.3667C76.6017 36.3667 76.4912 36.4773 76.3807 36.4773L76.1596 36.5878H76.0491L75.3858 37.251L75.4964 37.1405H75.6069L76.6017 36.6984L76.9334 36.5878L77.265 36.4773C77.486 36.3667 77.7071 36.3667 77.8177 36.2562L78.1493 35.8141L78.3703 35.9246H78.5914C78.702 35.9246 78.8125 35.8141 78.8125 35.7035L79.6968 35.0403H79.4757V35.1508H79.3652ZM82.6813 32.6085C82.4602 32.6085 82.3497 32.719 82.1286 32.8296C81.9075 32.9401 81.797 33.0506 81.6865 33.0506C81.6865 33.4928 81.2443 33.8244 80.4705 33.9349L80.2495 34.3771L79.9179 34.5981L80.0284 34.7087L80.1389 34.8192C80.1389 34.8192 80.2495 34.8192 80.2495 34.7087V34.5981C80.36 34.5981 80.4705 34.4876 80.6916 34.3771C80.6916 34.2665 80.8022 34.2665 80.9127 34.2665H81.0232C81.4654 33.9349 82.0181 33.4928 82.4602 32.8296L83.0129 32.6085H82.6813ZM63.4478 25.5341C63.4478 25.6446 63.4478 25.7552 63.3373 25.8657L63.1162 26.0868C62.8951 26.1973 62.8951 26.4184 62.8951 26.5289L62.6741 26.9711C62.6741 27.0816 62.6741 27.0816 62.7846 27.1922C62.8951 27.3027 62.8951 27.3027 63.0057 27.3027C63.0057 27.3027 63.1162 27.3027 63.2267 27.1922C63.2267 27.1922 63.3373 27.0816 63.3373 26.9711L63.89 25.9762L64.0005 25.8657L64.111 25.7552C64.2216 25.7552 64.3321 25.6446 64.3321 25.6446C64.3321 25.6446 64.2216 25.5341 64.111 25.5341L63.89 25.4236L63.4478 25.5341ZM42.0036 19.344C42.0036 19.6756 42.1141 19.7862 42.4457 19.7862C42.5563 19.7862 42.7774 19.7862 43.109 19.6756L43.4406 19.5651L43.6617 19.4545L44.546 19.2335H44.767C44.8776 19.2335 44.8776 19.2335 44.8776 19.1229H44.767L42.0036 19.344ZM70.3011 7.84814C70.3011 7.95868 70.1906 8.06922 70.08 8.06922C69.9695 8.06922 69.859 8.06922 69.7484 7.84814C69.6379 7.84814 69.6379 7.84814 69.6379 7.7376C69.6379 7.7376 69.7484 7.62707 69.859 7.51653L70.08 7.40599L70.1906 7.29546C69.9695 7.18492 69.9695 7.18492 69.9695 7.07438C69.9695 6.96384 70.0801 6.96384 70.3011 6.96384H70.4117V7.84814H70.3011ZM71.0749 15.9174C71.0749 16.3595 71.4065 16.5806 72.0697 16.5806C72.0697 16.47 71.9592 16.249 71.6276 16.1384L71.296 15.9174H71.0749ZM30.0656 49.9628L29.5129 50.0734C29.0707 50.1839 28.9602 50.2944 28.9602 50.5155C29.0707 50.5155 29.4024 50.405 29.8445 50.1839C30.2867 50.0734 30.5077 49.9628 30.5077 49.8523H30.0656V49.9628ZM70.3011 7.07438C70.0801 6.96384 70.08 6.74277 70.08 6.74277C70.08 6.63223 70.1906 6.5217 70.3011 6.5217H70.7433C70.8538 6.5217 70.8538 6.5217 70.8538 6.63223C70.8538 6.74277 70.7433 6.85331 70.6327 6.96384L70.4117 7.07438H70.3011ZM71.7381 38.688C71.7381 38.7986 71.8486 38.9091 71.9592 38.9091C72.0697 38.9091 72.1803 38.7986 72.4013 38.688L72.6224 38.5775L72.8435 38.3564L72.4013 38.2459C72.2908 38.4669 71.7381 38.688 71.7381 38.688ZM46.0935 21.7758C46.3145 21.7758 46.5356 21.8864 46.5356 22.1074H46.0935C45.7619 22.1074 45.5408 21.9969 45.5408 21.7758H46.0935ZM38.9086 22.8812C39.1296 22.8812 39.2402 22.9917 39.2402 23.2128L38.6875 23.3234C38.3559 23.3234 38.2453 23.2128 38.2453 22.9917L38.9086 22.8812ZM45.2092 22.1074L45.0986 22.3285H44.8776L44.6565 22.218C44.4354 22.1074 44.3249 21.9969 44.3249 21.8864L45.2092 22.1074ZM37.9137 23.3234L37.8032 23.5444H37.4716L37.2505 23.4339C37.0294 23.4339 37.0294 23.3234 37.0294 23.2128L37.9137 23.3234ZM74.8331 16.249C75.1648 16.3595 75.4964 16.47 75.7174 16.47C75.828 16.47 75.828 16.47 75.828 16.3595C75.828 16.3595 75.7174 16.249 75.3858 16.1384C75.1648 16.0279 74.9437 16.0279 74.8331 16.0279C74.8331 16.1384 74.8331 16.1384 74.8331 16.249ZM80.9127 37.1405C80.9127 37.251 80.9127 37.251 80.8022 37.251C80.6916 37.251 80.6916 37.3616 80.6916 37.4721L81.2443 37.5826C81.2443 37.4721 81.2443 37.3616 81.3548 37.3616C81.4654 37.3616 81.4654 37.251 81.4654 37.1405H80.9127ZM68.9747 9.39566L69.0852 9.83781L69.5274 9.72727L68.9747 9.39566ZM73.6172 17.1333C73.6172 17.2438 73.6172 17.2438 73.7278 17.3543C73.8383 17.4649 73.9489 17.5754 73.9489 17.5754C73.9489 17.5754 74.0594 17.4649 74.0594 17.3543L73.6172 17.1333ZM86.5501 22.1074C86.5501 22.218 86.5501 22.218 86.6606 22.218H86.7712L86.8817 22.1074C86.8817 22.1074 86.8817 21.9969 86.7712 21.9969L86.5501 22.1074ZM80.1389 36.8089C80.1389 36.9194 80.2495 37.03 80.36 37.03C80.36 37.03 80.4705 37.03 80.4705 36.9194V36.8089C80.4705 36.8089 80.4705 36.6984 80.36 36.6984L80.1389 36.8089ZM59.8001 33.9349L59.9106 34.0455L60.0212 33.9349L60.1317 33.8244C60.1317 33.7138 60.1317 33.7138 60.0212 33.7138L59.8001 33.8244V33.9349ZM76.9334 39.7934C76.9334 39.9039 77.0439 40.0145 77.1544 40.0145H77.265L77.3755 39.9039L76.9334 39.7934ZM78.2598 34.3771C78.2598 34.4876 78.3703 34.4876 78.4809 34.4876H78.5914L78.702 34.3771H78.2598ZM60.7949 12.2696L60.6844 12.1591L60.5738 12.2696L60.4633 12.3802L60.6844 12.4907L60.7949 12.2696ZM72.6224 41.8936L72.7329 42.0041L72.8435 41.8936L72.954 41.7831L72.7329 41.6725L72.6224 41.8936ZM88.6503 24.5393L88.7608 24.6498L88.8714 24.5393L88.9819 24.4287L88.6503 24.3182V24.5393ZM79.4757 33.7138C79.4757 33.7138 79.4757 33.8244 79.5863 33.8244C79.5863 33.9349 79.5863 33.9349 79.6968 33.9349C79.8073 33.9349 79.8073 33.9349 79.8073 33.8244V33.7138H79.4757ZM83.234 32.1663C83.234 32.1663 83.234 32.2769 83.3445 32.2769C83.3445 32.3874 83.3445 32.3874 83.4551 32.3874C83.5656 32.3874 83.5656 32.3874 83.5656 32.2769V32.1663H83.234ZM75.828 40.0145C75.828 40.0145 75.828 40.125 75.9385 40.125C75.9385 40.2355 75.9385 40.2355 76.0491 40.2355C76.1596 40.2355 76.1596 40.2355 76.1596 40.125V40.0145H75.828ZM80.1389 33.3822C80.2495 33.4928 80.36 33.3822 80.36 33.2717C80.36 33.1612 80.36 33.1612 80.2495 33.1612L80.1389 33.2717V33.3822ZM75.3858 40.5672C75.3858 40.5672 75.4964 40.5672 75.4964 40.4566L75.6069 40.3461V40.2355H75.3858V40.5672ZM66.6534 14.7014C66.6534 14.5909 66.6534 14.5909 66.5429 14.5909H66.3218L66.4323 14.812L66.6534 14.7014C66.5429 14.7014 66.6534 14.7014 66.6534 14.7014ZM31.392 49.7417C31.392 49.7417 31.392 49.8523 31.5026 49.8523C31.6131 49.8523 31.6131 49.8523 31.6131 49.7417L31.5026 49.6312L31.392 49.7417ZM81.5759 36.8089C81.5759 36.9194 81.5759 36.9194 81.5759 36.8089H81.6865L81.797 36.6984L81.5759 36.5878V36.8089ZM68.9747 10.0589L68.8641 9.94835C68.8641 9.94835 68.7536 9.94835 68.7536 10.0589V10.1694L68.9747 10.28V10.0589ZM39.7929 45.7624C39.7929 45.8729 39.7929 45.8729 39.9034 45.8729H40.0139V45.7624C40.0139 45.7624 40.0139 45.6519 39.9034 45.6519L39.7929 45.7624ZM39.3507 45.9835H39.2402L39.4612 46.2046L39.5718 46.094L39.3507 45.9835ZM30.8393 50.0734C30.9499 50.1839 31.0604 50.0734 31.0604 49.9628V49.8523L30.8393 50.0734ZM37.2505 49.8523C37.2505 49.8523 37.2505 49.9628 37.2505 50.0734C37.361 49.9628 37.361 49.8523 37.2505 49.8523Z" fill="#AFF406"/>
<path fill-rule="evenodd" clip-rule="evenodd" d="M86.3296 67.1612C86.6612 68.0455 85.3347 68.5981 84.6715 68.9298C82.9029 69.8141 81.2448 70.8089 79.8079 72.0248C79.2552 72.4669 78.3709 72.9091 77.7076 73.2407C75.0548 74.7882 72.5124 76.4463 69.9701 77.5517C69.1963 78.657 67.9804 78.3254 66.9855 78.8781C65.7696 79.4308 64.2221 79.6519 63.3378 80.5362C62.1219 81.4205 60.6849 80.9783 60.0217 82.1942C58.2531 82.6364 56.595 83.189 54.8265 83.6312C54.0527 83.8523 53.1684 84.626 52.3946 84.1839C52.1736 83.9628 51.0682 84.2944 50.626 84.626C48.5258 85.9525 46.8678 85.6209 45.0992 85.7314C44.3254 85.8419 43.3306 86.3946 42.6674 86.2841C41.8936 86.1736 40.5672 87.2789 40.3461 86.2841C39.3512 86.6157 38.4669 87.2789 37.5826 86.8368C37.03 86.6157 35.9246 86.7262 35.0403 86.7262C34.4876 86.7262 34.0455 86.7262 33.6033 86.7262C31.282 87.3895 29.7345 86.7262 27.9659 86.5052C27.3027 86.5052 26.4184 86.6157 25.8657 86.5052C24.4287 86.063 23.1023 85.6209 21.6653 85.1787C20.6705 84.8471 19.8967 84.5155 19.0124 84.0733C16.47 82.6364 15.4752 80.4256 14.4804 77.9938C14.2593 77.5517 14.4804 77.1095 13.5961 77.4411L13.375 77.3306C14.1488 76.6674 13.9277 76.4463 13.1539 76.5568C13.375 76.1147 13.7066 75.4515 13.9277 74.8988C14.0382 74.3461 13.8172 73.9039 13.9277 73.4618C14.1488 72.2459 14.1488 71.251 14.3698 70.0351C14.4804 69.4824 13.5961 69.0403 15.0331 68.156C15.4752 67.8244 15.1436 66.9401 15.3647 66.2769C16.1384 64.6188 16.9122 63.0713 17.686 61.5238C17.907 60.8605 18.2386 60.1973 18.3492 59.6446C18.3492 59.4236 18.2386 59.313 18.2386 59.313C18.0176 59.313 17.686 59.313 17.4649 59.5341C16.249 60.5289 15.0331 61.6343 13.7066 62.6291C13.7066 62.6291 13.7066 62.6291 13.8172 62.5186C13.9277 62.6291 13.8172 62.7397 13.9277 62.8502C13.9277 62.8502 13.8172 62.9607 13.5961 62.9607C13.5961 62.7397 13.5961 62.7397 13.8172 62.5186C13.4855 61.6343 14.2593 60.6395 14.812 59.6446C15.1436 59.0919 15.4752 58.6498 15.8068 57.9866C16.3595 57.3233 16.47 56.7707 15.6963 56.4391C15.0331 56.1074 14.2593 56.4391 13.4855 57.2128C13.0434 57.5444 12.7118 57.876 12.2696 58.2076C12.1591 58.3182 12.0486 58.2076 11.8275 58.3182V58.0971C12.1591 57.655 12.3802 57.2128 12.8223 56.6601C13.1539 56.218 14.0382 55.7758 13.4855 55.4442C12.8223 55.0021 12.4907 54.2283 10.9432 54.8915C10.3905 55.1126 10.0589 55.5548 9.5062 55.7758C9.17459 55.8864 7.95868 56.3285 9.06405 55.2231C9.17459 55.1126 9.28513 54.781 9.28513 54.5599C9.28513 54.3388 9.28513 54.3388 9.28513 54.1178C9.17459 54.2283 8.95351 54.2283 8.73244 54.3388C8.29029 54.6705 7.95868 55.0021 7.51653 55.3337C6.96384 55.7758 6.30062 56.218 5.6374 56.7707C5.96901 56.218 6.19008 55.6653 6.63223 55.1126C6.63223 54.8915 6.85331 54.781 6.85331 54.6705C6.63223 54.6705 6.30062 54.8915 6.07955 55.0021C5.85847 55.2231 5.19525 55.6653 5.08471 55.7758C4.86364 57.3233 2.76343 58.8709 2.43182 60.5289C2.21074 61.3027 1.65806 62.187 1.54752 62.8502C1.7686 63.4029 2.32128 63.5134 2.43182 63.845C2.10021 63.9556 1.65806 64.0661 1.32645 64.2872C1.21591 64.3977 0.994835 64.7293 0.77376 64.9504C-0.221074 67.9349 0.221074 70.5878 0 73.2407C1.21591 73.6829 0.331612 75.4515 1.43698 76.0041C1.65806 76.2252 1.54752 76.7779 1.43698 77.3306C1.10537 78.2149 1.21591 78.5465 2.43182 78.1043C3.53719 77.7727 3.53719 77.9938 2.76343 78.9886C2.43182 79.4308 2.87397 80.094 4.53203 78.9886C4.7531 78.7676 4.64256 79.0992 4.53203 79.2097C4.42149 79.3202 4.31095 79.4308 4.08988 79.5413C4.08988 79.3203 4.08988 79.0992 4.08988 78.8781C4.20041 78.7676 4.64256 78.657 4.53203 78.7676C4.08988 79.5413 4.31095 79.6519 4.64256 79.7624C5.08471 79.8729 5.41632 79.8729 5.96901 79.8729C5.41632 80.5362 4.97417 80.8678 4.7531 81.1994C4.53203 81.531 4.53203 81.8626 4.42149 82.1942C4.20041 83.2996 4.20041 83.2996 5.6374 83.0785C6.07955 82.968 6.41116 82.8574 6.74277 82.8574C6.85331 82.968 7.07438 82.8574 6.96384 82.968C6.96384 83.1891 6.74277 83.2996 6.63223 83.4101C6.07955 83.6312 5.41632 83.4101 5.74793 84.5155C6.19008 85.5103 5.85847 86.7262 7.7376 86.6157C8.06922 86.6157 8.6219 86.8368 7.84814 87.6105C7.84814 87.8316 7.84814 88.2738 7.84814 88.4948C7.95868 88.6054 8.06922 88.6054 8.17975 88.7159C8.29029 88.6054 8.6219 88.3843 8.6219 88.1632C8.84298 87.9422 8.95351 87.6105 9.17459 87.5C9.94835 87.1684 9.5062 87.7211 9.5062 87.9422C9.5062 88.1632 9.39566 88.4948 9.28513 88.7159C9.06405 89.8213 9.61674 90.2634 11.0537 90.0424C11.8275 89.9318 12.2696 89.8213 11.3853 90.7056C11.2748 90.8161 11.4959 91.2583 11.7169 91.3688C12.1591 91.7004 12.3802 92.2531 13.375 91.9215C13.375 93.8006 15.9174 93.1374 17.1333 93.8006C17.7965 94.1322 18.9019 94.0217 19.4545 94.5744C19.6756 94.6849 19.8967 95.1271 20.1178 95.0165C22.7707 94.7955 24.7603 95.7903 27.0816 96.0114C29.4029 96.2324 31.8347 96.4535 34.3771 96.4535C36.4773 96.4535 38.7986 96.0114 40.7882 96.0114C42.5568 96.0114 44.5465 95.3481 46.5362 95.4587C47.8626 95.5692 49.4101 94.906 50.8471 94.4638C55.1581 93.3585 59.3585 92.2531 63.5589 90.595C67.9804 88.937 72.4019 86.9473 76.7128 84.626C79.3657 83.0785 82.0186 81.6415 84.782 79.8729C85.1136 79.7624 85.5558 79.3202 85.8874 79.0992C86.8822 78.3254 87.7665 77.4411 89.093 76.8884C89.9773 76.4463 90.751 75.4514 91.5248 74.7882C91.8564 74.3461 91.967 73.7934 92.2986 73.4618C92.9618 72.688 92.9618 73.7934 93.5145 73.2407C94.5093 72.4669 95.8358 71.6932 96.1674 70.9194C96.9411 69.3719 99.2624 68.4876 99.8151 66.8295C103.463 63.1818 106.447 58.9814 108.105 55.3337C109.1 53.2335 109.874 51.0227 110.427 48.812C110.537 48.5909 110.537 48.3698 110.537 48.1488C110.869 48.3698 111.2 48.3698 111.2 48.3698C111.864 48.4804 112.416 49.0331 113.08 49.8068C113.19 49.6963 113.301 49.6963 113.522 49.4752C113.632 49.3647 113.743 49.3647 113.853 49.3647C113.853 49.5857 113.853 49.6963 113.743 49.8068C113.632 49.9174 113.522 49.9174 113.301 50.1384C113.743 51.686 114.517 53.1229 115.511 54.2283C115.622 54.4494 116.064 54.4494 116.285 54.3388C116.506 54.2283 116.838 54.2283 116.727 54.6705C116.617 55.4442 116.838 55.9969 117.391 56.6601C117.722 57.1023 118.164 57.5444 118.496 57.876C118.827 58.3182 119.27 58.7603 119.601 59.0919C119.933 59.5341 120.596 59.7552 120.707 59.9762C120.707 60.75 121.812 60.1973 121.812 60.8605C121.923 60.9711 122.144 61.0816 122.365 61.1922C122.365 60.9711 122.475 60.75 122.475 60.5289C122.475 60.3079 122.365 60.1973 122.254 59.8657C122.144 59.7552 122.254 59.6446 122.254 59.5341C122.475 59.5341 122.475 59.6446 122.586 59.7552C122.696 59.9762 123.028 60.1973 123.249 60.5289C123.36 60.6395 124.023 61.5238 124.023 61.5238C124.797 61.1921 125.46 60.9711 125.46 60.0868C125.46 59.313 125.57 58.4287 125.239 57.655C124.575 56.4391 123.691 55.2231 122.807 54.0072C122.254 53.344 121.701 52.7913 121.701 51.7965C120.707 51.7965 121.038 50.8017 120.596 50.47C120.043 49.9174 119.712 49.2541 119.159 48.812C118.275 48.1488 118.275 46.6012 116.948 46.1591C117.28 44.7221 115.18 44.3905 115.401 42.9535C115.401 42.7324 114.959 42.5114 114.848 42.2903C114.406 41.5165 113.743 41.0744 113.632 40.1901C113.522 39.4163 112.748 38.7531 112.195 38.4215C111.643 38.2004 111.2 37.8688 110.869 37.5372C110.427 36.7634 109.763 36.3213 108.769 36.3213C108.105 36.3213 107.553 36.3213 107.663 35.437C107.663 35.2159 107.111 34.8843 106.668 34.7738C106.005 34.6632 105.01 34.7738 104.679 34.3316C104.126 33.7789 103.463 34.9948 103.131 34C103.131 34 102.579 34.1105 102.357 34.2211C100.368 34.9948 98.2676 35.5475 96.499 36.874C96.1674 37.095 95.6147 37.2056 95.2831 37.4267C94.9515 37.5372 94.5093 37.7583 94.9515 38.2004C95.3936 38.6426 94.9515 38.9742 94.6199 38.9742C93.5145 38.8636 92.6302 38.9742 92.2986 40.3006C92.188 40.4112 91.9669 40.5217 91.9669 40.5217C91.1932 39.5269 90.751 40.7428 90.3089 40.9638C89.6457 41.406 89.093 41.8481 88.3192 42.2903C87.9876 42.5114 87.4349 42.5114 87.4349 42.843C87.3244 43.6167 87.1033 43.9483 86.3296 43.8378C86.3296 43.8378 85.9979 44.28 86.1085 44.501C86.219 44.7221 86.6612 45.3853 85.7769 44.9432C85.0031 44.3905 84.6715 44.7221 84.3399 45.4959C84.0083 45.938 83.4556 46.8223 82.6818 45.938C82.6818 45.938 82.4608 46.0486 82.3502 46.1591C82.0186 46.9329 81.9081 47.7066 81.1343 48.2593C81.3554 48.3698 81.687 48.7014 81.9081 48.812C82.1291 48.7014 82.3502 48.3698 82.6818 48.3698C83.0134 48.2593 83.4556 48.2593 83.7872 48.2593C83.7872 48.812 84.0083 49.4752 83.0134 49.4752C82.7924 49.4752 82.6818 49.6963 82.6818 49.6963C82.9029 50.0279 83.124 50.249 83.4556 50.5806C83.7872 50.9122 83.7872 51.4649 84.3399 51.0227C84.6715 50.8017 85.3347 50.5806 84.782 50.0279C84.6715 49.9174 84.8926 49.8068 84.8926 49.5857C85.3347 50.3595 85.9979 49.4752 86.5506 49.6963C86.9928 49.8068 87.3244 50.249 87.656 50.47C87.3244 50.6911 87.1033 51.4649 86.7717 51.3543C85.2242 51.4649 84.8926 52.6808 84.3399 53.7862C84.1188 54.1178 84.0083 55.0021 84.561 54.8915C85.0031 54.8915 85.6663 56.1074 86.219 54.8915C86.6612 54.0072 87.7665 54.2283 88.5403 53.7862C88.6508 53.6756 88.7614 53.7862 88.8719 53.7862C88.7614 53.8967 88.7614 54.0072 88.6508 54.1178C88.5403 54.2283 88.3192 54.3388 88.2087 54.4494C87.656 54.781 87.4349 55.4442 87.656 55.7758C87.8771 56.1074 88.6508 55.9969 89.2035 55.9969C89.4246 55.9969 89.6457 55.6653 89.7562 55.6653C92.5196 53.7862 95.2831 51.7965 97.7149 49.5857C98.8203 48.5909 99.9256 47.7066 101.031 46.7118C100.92 46.9329 100.81 47.1539 100.478 47.375C99.7046 48.0382 99.9256 48.0382 100.257 49.3647C100.368 49.4752 99.8151 49.9174 99.3729 50.249C99.3729 50.47 99.2624 50.8017 99.1519 51.0227C99.7046 51.4649 98.7097 51.7965 98.3781 52.2386C98.4887 52.3492 98.3781 52.4597 98.4886 52.5702C98.2676 52.5702 98.0465 52.6808 97.8254 52.6808C97.2727 53.1229 97.3833 53.0124 97.6043 53.5651C97.936 54.0072 97.6044 54.6705 96.6095 55.2231C96.7201 56.218 95.8358 56.9917 94.7304 57.9866C94.7304 58.8709 93.5145 59.7552 92.9618 60.5289C91.7459 62.2975 89.7562 63.845 87.9876 65.282C88.2087 66.1663 87.3244 66.6085 86.3296 67.1612C86.8822 66.9401 86.6612 67.0506 86.3296 67.1612Z" fill="#AFF406"/>
</svg>
