<svg width="80" height="79" viewBox="0 0 80 79" fill="none" xmlns="http://www.w3.org/2000/svg">
<path fill-rule="evenodd" clip-rule="evenodd" d="M30.8631 54.4426H49.349C50.8085 54.4426 52.0246 55.6588 52.0246 57.1182C52.0246 58.5776 50.8085 59.7938 49.349 59.7938H30.8631C29.4037 59.7938 28.1875 58.5776 28.1875 57.1182C28.2686 55.6588 29.4037 54.4426 30.8631 54.4426Z" fill="#C5C7B1"/>
<path d="M30.8654 53.3887H49.3513C50.4054 53.3887 51.2972 53.7941 52.0269 54.5238C52.6755 55.1724 53.162 56.1453 53.162 57.1994C53.162 58.2534 52.7566 59.1453 52.0269 59.875C51.3783 60.5236 50.4054 61.0101 49.3513 61.0101H30.8654C29.8113 61.0101 28.9195 60.6047 28.1898 59.875C27.5412 59.2263 27.0547 58.2534 27.0547 57.2804C27.0547 56.2264 27.4601 55.3346 28.1898 54.6049L28.2709 54.5238C29.0006 53.713 29.8924 53.3887 30.8654 53.3887ZM49.4324 55.5778H30.9465C30.5411 55.5778 30.1357 55.74 29.8924 55.9832H29.8114C29.5681 56.2264 29.3249 56.6318 29.3249 57.0372C29.3249 57.4426 29.487 57.848 29.8114 58.0912C30.0546 58.3345 30.46 58.5777 30.8654 58.5777H49.3513C49.7567 58.5777 50.1621 58.4155 50.4053 58.0912C50.6486 57.848 50.8918 57.4426 50.8918 57.0372C50.8918 56.6318 50.7297 56.2264 50.4053 55.9832C50.081 55.74 49.8378 55.5778 49.4324 55.5778Z" fill="#201E1E"/>
<path d="M38.8906 59.7127C38.8906 59.1452 39.3771 58.5776 40.0257 58.5776C40.5933 58.5776 41.1608 59.0641 41.1608 59.7127V77.3879C41.1608 77.9554 40.6744 78.523 40.0257 78.523C39.4582 78.523 38.8906 78.0365 38.8906 77.3879V59.7127Z" fill="#201E1E"/>
<path d="M39.0547 7.98459C39.0547 7.41704 39.5412 6.84949 40.1898 6.84949C40.8384 6.84949 41.3249 7.33596 41.3249 7.98459V26.3084C41.3249 26.8759 40.8384 27.4435 40.1898 27.4435C39.5412 27.4435 39.0547 26.957 39.0547 26.3084V7.98459Z" fill="#201E1E"/>
<path fill-rule="evenodd" clip-rule="evenodd" d="M37.5944 26.3895H39.9456H40.27H42.6212C42.9455 26.3895 43.0266 26.7138 43.1888 26.9571L45.3779 31.3353C45.5401 31.6596 45.1347 31.9029 44.8104 31.9029H40.27H39.9456H35.4052C35.0809 31.9029 34.6755 31.5786 34.8377 31.3353L37.0268 26.9571C37.189 26.7138 37.2701 26.3895 37.5944 26.3895Z" fill="#C5C7B1"/>
<path d="M37.592 25.3354H42.6189C43.5918 25.3354 43.8351 25.903 44.1594 26.4705V26.5516V26.6327L46.2674 30.9299C46.3485 31.092 46.4296 31.3353 46.4296 31.4974C46.4296 31.8217 46.2674 32.1461 46.1053 32.3893C45.9431 32.5515 45.7809 32.7136 45.5377 32.7947H45.4566C45.2134 32.8758 44.9701 32.9568 44.7269 32.9568H35.3218C35.0785 32.9568 34.7542 32.8758 34.511 32.7947C34.2678 32.7136 34.1056 32.5515 33.9435 32.3893C33.7002 32.1461 33.6191 31.8217 33.6191 31.4974C33.6191 31.3353 33.7002 31.092 33.7813 30.9299L33.8624 30.8488L35.9704 26.5516L36.0515 26.4705C36.3758 25.8219 36.619 25.3354 37.592 25.3354ZM39.9433 27.5246H37.9974L36.2947 30.9299H43.9161L42.2945 27.6057V27.5246H39.9433Z" fill="#201E1E"/>
<path fill-rule="evenodd" clip-rule="evenodd" d="M73.0238 77.388H58.5918L55.1055 64.8208H67.2673L67.7537 50.4698H73.0238V77.388Z" fill="#AFF406"/>
<path d="M72.619 49.4159C73.1866 49.4159 73.7542 49.9024 73.7542 50.551C73.7542 51.1996 73.2677 51.6861 72.619 51.6861H68.8894V64.983C68.8894 65.5506 68.403 66.1181 67.7543 66.1181H55.7547L59.5654 77.2259C59.7276 77.7935 59.4843 78.4421 58.9167 78.6042C58.3492 78.7664 57.7006 78.5232 57.5384 77.9556L53.2412 65.4695C53.1602 65.3073 53.1602 65.2263 53.1602 65.0641C53.1602 64.4966 53.6466 63.929 54.2953 63.929H66.7003V50.4699C66.7003 49.9024 67.1868 49.3348 67.8354 49.3348L72.619 49.4159Z" fill="#201E1E"/>
<path d="M71.9718 41.5512L42.8645 12.2007C42.297 11.6331 41.8105 11.0656 41.2429 10.417C40.9186 10.0927 40.5943 9.68726 40.27 9.36294L8.00067 41.6323V76.2529H71.9718V41.5512ZM44.405 10.7413L73.7555 40.335C73.9987 40.4972 74.1609 40.8215 74.1609 41.1458V77.388C74.1609 77.9555 73.6744 78.5231 73.0258 78.5231H6.86557C6.29801 78.5231 5.73047 78.0366 5.73047 77.388V41.2269C5.73047 40.9836 5.81154 40.6593 6.05478 40.4161L39.5403 7.09274C39.9457 6.68735 40.6754 6.68735 41.0808 7.09274C41.7294 7.74137 42.297 8.39 42.8645 9.03863C43.4321 9.60618 43.9185 10.2548 44.405 10.7413Z" fill="#201E1E"/>
<path fill-rule="evenodd" clip-rule="evenodd" d="M7.35156 77.388H21.8646L25.2699 64.8208H13.1081L12.6217 50.4698H7.35156V77.388Z" fill="#AFF406"/>
<path d="M7.34995 51.605C6.7824 51.605 6.21484 51.1186 6.21484 50.4699C6.21484 49.8213 6.70132 49.3348 7.34995 49.3348H12.1336C12.7011 49.3348 13.2687 49.8213 13.2687 50.4699V63.7668H25.6737C26.2413 63.7668 26.8088 64.2533 26.8088 64.9019C26.8088 65.0641 26.8088 65.1452 26.7278 65.3073L22.4306 77.7935C22.2684 78.361 21.6198 78.6853 21.0522 78.4421C20.4847 78.2799 20.1604 77.6313 20.4036 77.0637L24.2143 65.956H12.2147C11.6471 65.956 11.0796 65.4695 11.0796 64.8209V51.605H7.34995Z" fill="#201E1E"/>
<path d="M79.0253 37.8216C79.1874 38.0648 79.3496 38.308 79.4306 38.5513C79.5117 38.7945 79.5928 39.1188 79.5928 39.3621V75.9285C79.5928 76.5772 79.3496 77.2258 78.8631 77.6312C78.3766 78.1177 77.8091 78.3609 77.1604 78.3609H2.81127C2.16264 78.3609 1.51402 78.1177 1.10862 77.6312C0.62215 77.1447 0.378906 76.5772 0.378906 75.9285V39.4431C0.378906 39.1999 0.378911 39.0377 0.45999 38.7945C0.541069 38.5513 0.62215 38.3891 0.703228 38.2269C0.865386 37.9837 1.43293 37.4162 1.83833 37.0918L2.16264 36.8486L37.1076 1.74154L37.1886 1.66046C38.0805 0.930749 39.0534 0.606435 39.9453 0.525356C40.9993 0.444277 41.9723 0.768592 42.7831 1.25506C43.756 1.90369 45.5398 3.84958 46.9992 5.309C47.5667 5.95763 48.0532 6.4441 48.3775 6.76841L78.5388 37.3351L78.7009 37.4972C78.782 37.5783 78.8631 37.6594 79.0253 37.8216ZM77.4037 39.281C77.4037 39.281 77.4037 39.1999 77.3226 39.1999L76.9172 38.7945L46.6748 8.30891C46.2694 7.90352 45.783 7.33597 45.2154 6.76841C43.9182 5.309 42.2155 3.52527 41.4858 3.0388C41.0804 2.79556 40.5129 2.6334 40.0264 2.6334C39.5399 2.6334 39.0534 2.87664 38.567 3.28203L3.54098 38.2269C3.4599 38.308 3.37882 38.3891 3.21666 38.5513C2.89235 38.7945 2.56804 39.1188 2.48696 39.1999C2.48696 39.1999 2.48696 39.1999 2.48696 39.281V39.3621V75.9285C2.48696 76.0096 2.48695 76.0907 2.56803 76.0907C2.64911 76.1718 2.7302 76.1718 2.7302 76.1718H77.0793C77.1604 76.1718 77.2415 76.1718 77.2415 76.0907C77.3226 76.0096 77.3226 75.9285 77.3226 75.9285V39.4431C77.4037 39.362 77.4037 39.3621 77.4037 39.281Z" fill="#201E1E"/>
</svg>
