<svg width="77" height="82" viewBox="0 0 77 82" fill="none" xmlns="http://www.w3.org/2000/svg">
<path fill-rule="evenodd" clip-rule="evenodd" d="M56.1214 7.76843C63.986 7.76843 70.3912 14.1737 70.3912 22.0383C70.3912 29.9029 63.986 36.3081 56.1214 36.3081C48.2568 36.3081 41.8516 29.9029 41.8516 22.0383C41.8516 14.1737 48.2568 7.76843 56.1214 7.76843Z" fill="#C5C7B1"/>
<path fill-rule="evenodd" clip-rule="evenodd" d="M27.742 7.68726V11.0926C27.742 12.7952 26.3637 14.0925 24.7421 14.0925H18.0936C16.391 14.0925 15.0938 12.7141 15.0938 11.0926V7.68726H27.742Z" fill="#AFF406"/>
<path d="M28.7974 7.68735V11.0927C28.7974 12.2278 28.3109 13.2818 27.5812 14.0115C26.8515 14.7412 25.7975 15.2277 24.6624 15.2277H18.0139C16.8788 15.2277 15.8248 14.7412 15.0951 14.0115C14.3654 13.2818 13.8789 12.2278 13.8789 11.0927V7.68735C13.8789 7.1198 14.3654 6.55225 15.014 6.55225H27.7434C28.3109 6.55225 28.7974 7.03872 28.7974 7.68735ZM26.6082 11.0927V8.82245H16.068V11.0927C16.068 11.6602 16.3113 12.1467 16.6356 12.471C16.9599 12.7953 17.4464 13.0385 18.0139 13.0385H24.6624C25.2299 13.0385 25.7164 12.7953 26.0407 12.471C26.365 12.0656 26.6082 11.5791 26.6082 11.0927Z" fill="#201E1E"/>
<path d="M32.1217 21.3086V24.0652C32.1217 25.3625 31.5542 26.5787 30.7434 27.4705C29.8515 28.3624 28.7164 28.8489 27.3381 28.8489H15.0141C13.7168 28.8489 12.5007 28.2813 11.6088 27.4705C10.7169 26.5787 10.2305 25.4436 10.2305 24.0652V21.3086C10.2305 20.741 10.7169 20.1735 11.3656 20.1735H30.9866C31.6352 20.1735 32.1217 20.6599 32.1217 21.3086ZM29.9326 23.9842V22.3626H12.5007V23.9842C12.5007 24.7139 12.825 25.3625 13.2304 25.849C13.7168 26.3354 14.3655 26.5787 15.0952 26.5787H27.4191C28.1488 26.5787 28.7975 26.2544 29.284 25.849C29.6083 25.3625 29.9326 24.7139 29.9326 23.9842Z" fill="#201E1E"/>
<path d="M17.6898 26.6598H24.4193C24.9869 26.6598 25.5544 27.1463 25.5544 27.7949V35.4974C25.5544 36.0649 25.068 36.6325 24.4193 36.6325C24.1761 36.6325 24.0139 36.5514 23.8518 36.4703C23.4464 36.2271 23.041 36.0649 22.6356 35.9838C22.2302 35.9028 21.7437 35.8217 21.1762 35.8217C20.6086 35.8217 20.0411 35.9028 19.5546 35.9838C19.0681 36.146 18.6627 36.3082 18.2573 36.5514C17.7709 36.8757 17.0412 36.7136 16.7169 36.2271C16.6358 36.0649 16.5547 35.8217 16.5547 35.6595V27.876C16.6358 27.1463 17.1222 26.6598 17.6898 26.6598ZM23.3653 28.8489H18.8249V33.8758L19.0681 33.7947C19.7978 33.6326 20.5276 33.5515 21.2573 33.5515C21.987 33.5515 22.6356 33.6326 23.2842 33.7947H23.3653V28.8489Z" fill="#201E1E"/>
<path d="M42.6602 27.6328C42.6602 27.0652 43.1466 26.4977 43.7953 26.4977C44.4439 26.4977 44.9303 26.9842 44.9303 27.6328V34.2812C44.9303 34.8488 44.4439 35.4163 43.7953 35.4163C43.1466 35.4163 42.6602 34.9299 42.6602 34.2812C42.6602 34.3623 42.6602 27.6328 42.6602 27.6328Z" fill="#201E1E"/>
<path d="M31.4703 32.9839C31.9567 32.6596 32.6865 32.8218 33.0108 33.3082C33.3351 33.7947 33.1729 34.5244 32.6865 34.8487L27.092 38.4973C26.6056 38.8216 25.8759 38.6594 25.5515 38.173C25.2272 37.6865 25.3894 36.9568 25.8759 36.6325L31.4703 32.9839Z" fill="#201E1E"/>
<path d="M34.7167 65.2533C34.1492 65.4154 33.5005 65.1722 33.3384 64.6047C33.1762 64.0371 33.4194 63.3885 33.987 63.2263C36.8248 62.2534 38.9328 60.9561 40.3112 59.0913C41.6895 57.2265 42.5003 54.8752 42.5813 51.8753C42.5813 51.3078 43.0678 50.8213 43.7164 50.8213C44.284 50.8213 44.7705 51.3078 44.7705 51.9564C44.6083 55.4428 43.7164 58.1995 42.0138 60.4697C40.4733 62.5777 37.9599 64.1182 34.7167 65.2533Z" fill="#201E1E"/>
<path fill-rule="evenodd" clip-rule="evenodd" d="M21.2578 80.7392H21.0145H20.7713H13.0688C8.44732 79.6041 5.12309 76.442 4.96094 71.5773C4.96094 70.6044 5.20416 69.226 5.60956 68.0909H36.3384C36.7438 69.226 37.0681 70.5233 36.987 71.5773C36.8249 76.442 33.5006 79.6041 28.8792 80.7392H21.2578Z" fill="#AFF406"/>
<path fill-rule="evenodd" clip-rule="evenodd" d="M21.0957 34.6055C24.6631 34.6055 27.582 37.5243 27.582 41.0918C27.582 44.6592 24.6631 47.5781 21.0957 47.5781C17.5282 47.5781 14.6094 44.6592 14.6094 41.0918C14.6094 37.5243 17.5282 34.6055 21.0957 34.6055Z" fill="#C5C7B1"/>
<path d="M21.095 33.4703C23.203 33.4703 25.0679 34.2811 26.4462 35.6595C27.8245 37.0378 28.6353 38.9026 28.6353 41.0107C28.6353 43.1187 27.8245 44.9835 26.4462 46.3618C25.0679 47.7402 23.203 48.551 21.095 48.551C18.9869 48.551 17.1221 47.7402 15.7438 46.3618C14.3655 44.9835 13.5547 43.1187 13.5547 41.0107C13.5547 38.9026 14.3655 37.0378 15.7438 35.6595C17.1221 34.3622 18.9869 33.4703 21.095 33.4703ZM24.8246 37.281C23.8517 36.3081 22.5544 35.7405 21.0139 35.7405C19.5545 35.7405 18.1762 36.3081 17.2032 37.281C16.2303 38.254 15.6627 39.5512 15.6627 41.0917C15.6627 42.5512 16.2303 43.9295 17.2032 44.9024C18.1762 45.8754 19.4734 46.4429 21.0139 46.4429C22.4733 46.4429 23.8517 45.8754 24.8246 44.9024C25.7976 43.9295 26.3651 42.6322 26.3651 41.0917C26.4462 39.5512 25.7976 38.254 24.8246 37.281Z" fill="#201E1E"/>
<path d="M9.49939 62.6586C9.98587 62.983 10.2291 63.6316 9.90479 64.1181C9.58047 64.6045 8.93183 64.8478 8.44536 64.5234C6.90486 63.6316 5.36438 62.4154 4.1482 61.0371C2.93201 59.6587 2.04013 58.1182 1.47258 56.4967C0.418561 53.2535 0.580718 49.9293 0.661797 46.6051C0.742876 45.3889 0.742881 44.1727 0.742881 43.0376C0.742881 41.4971 0.905053 40.1188 1.39152 38.9026C1.878 37.6864 2.68878 36.5513 3.82389 35.5783C4.63467 34.8486 5.60761 34.2811 6.58056 33.9568C7.5535 33.6325 8.60752 33.3892 9.74262 33.4703C11.2831 33.5514 12.5804 34.0379 13.7155 34.6865C14.7695 35.3351 15.6614 36.1459 16.4721 36.8756C16.8775 37.281 16.9586 38.0107 16.4721 38.4161C16.0667 38.8215 15.337 38.9026 14.9317 38.4161C14.2019 37.7675 13.4722 37.0378 12.5804 36.4702C11.7696 35.9837 10.7966 35.5783 9.74262 35.5783C8.93183 35.5783 8.20213 35.6594 7.39134 35.9837C6.66163 36.227 5.93193 36.6324 5.36438 37.1999C4.47251 37.9296 3.90495 38.7404 3.58063 39.7134C3.17524 40.6863 3.09416 41.7403 3.09416 43.0376C3.09416 44.2538 3.09418 45.47 3.0131 46.6861C2.93202 49.7671 2.76985 52.9292 3.66172 55.7669C4.06711 57.0642 4.87791 58.3615 5.85085 59.5776C6.8238 60.7938 8.12106 61.8478 9.49939 62.6586Z" fill="#201E1E"/>
<path d="M18.1742 13.0386H24.4172C24.9848 13.0386 25.5523 13.525 25.5523 14.1737V21.3086C25.5523 21.8762 25.0659 22.4437 24.4172 22.4437H18.1742C17.6066 22.4437 17.0391 21.9572 17.0391 21.3086V14.1737C17.1201 13.525 17.6066 13.0386 18.1742 13.0386ZM23.2821 15.2277H19.2282V20.1735H23.2821V15.2277Z" fill="#201E1E"/>
<path d="M20.0414 69.2261C19.4738 69.2261 18.9062 68.7397 18.9062 68.091C18.9062 67.4424 19.3927 66.9559 20.0414 66.9559H36.176C36.7436 66.9559 37.3111 67.4424 37.3111 68.091C37.3111 68.7397 36.8247 69.2261 36.176 69.2261H20.0414Z" fill="#201E1E"/>
<path d="M5.77182 69.2261C5.20426 69.2261 4.63672 68.7397 4.63672 68.091C4.63672 67.4424 5.12319 66.9559 5.77182 66.9559H14.9337C15.5012 66.9559 16.0688 67.4424 16.0688 68.091C16.0688 68.7397 15.5823 69.2261 14.9337 69.2261H5.77182Z" fill="#201E1E"/>
<path d="M55.7951 1.76868C61.4706 1.76868 66.5786 4.03888 70.2271 7.7685C73.9567 11.4981 76.2269 16.6061 76.2269 22.2005C76.2269 27.876 73.9567 32.984 70.2271 36.6325C66.4975 40.3621 61.3895 42.6323 55.7951 42.6323C54.1735 42.6323 52.633 42.4702 51.0925 42.0648C49.552 41.6594 48.0926 41.1729 46.6332 40.4432C46.2278 40.2811 46.0657 39.8757 46.0657 39.4703V35.4163H40.7145C40.3091 35.4163 39.9848 35.2542 39.8226 34.9299C38.4443 33.1461 37.3092 31.1192 36.4984 29.0111C35.7687 26.9031 35.3633 24.6329 35.3633 22.2005C35.3633 16.525 37.6335 11.417 41.3631 7.7685C45.0927 4.03888 50.2007 1.76868 55.7951 1.76868ZM68.6866 9.309C65.3624 5.98477 60.822 3.9578 55.7951 3.9578C50.7682 3.9578 46.2278 5.98477 42.9036 9.309C39.5794 12.6332 37.5524 17.1736 37.5524 22.2005C37.5524 24.3086 37.8767 26.3355 38.6064 28.2814C39.2551 30.0651 40.1469 31.7678 41.282 33.2272H47.1197C47.6872 33.2272 48.2548 33.7137 48.2548 34.3623V38.8216C49.3088 39.3081 50.4439 39.7135 51.579 39.9567C52.9573 40.2811 54.3357 40.4432 55.7951 40.4432C60.822 40.4432 65.3624 38.4162 68.6866 35.092C72.0109 31.7678 74.0378 27.2274 74.0378 22.2005C74.0378 17.1736 72.0109 12.6332 68.6866 9.309Z" fill="#201E1E"/>
<path d="M58.7975 9.06571C58.2299 8.90355 57.8245 8.336 57.9867 7.76845C58.1489 7.2009 58.7164 6.7955 59.2839 6.95766C62.8514 7.76845 65.9324 9.71434 68.1215 12.471C70.3107 15.1466 71.5268 18.5519 71.5268 22.2815C71.5268 26.5787 69.7431 30.5516 66.9054 33.3082C64.0676 36.146 60.1758 37.9297 55.8787 37.9297C51.5815 37.9297 47.6086 36.146 44.8519 33.3082C42.0142 30.4705 40.2305 26.5787 40.2305 22.2815C40.2305 18.5519 41.5277 15.1466 43.7168 12.471C45.906 9.71434 48.987 7.76845 52.5544 6.95766C53.122 6.7955 53.6895 7.2009 53.8517 7.76845C54.0139 8.336 53.6085 8.90355 53.0409 9.06571C49.9599 9.71434 47.2843 11.417 45.4195 13.7683C43.5547 16.0385 42.4196 19.0384 42.4196 22.2005C42.4196 25.9301 43.9601 29.2543 46.3925 31.6867C48.8248 34.119 52.2301 35.6595 55.8787 35.6595C59.5272 35.6595 62.9325 34.119 65.3648 31.6867C67.7972 29.2543 69.3377 25.849 69.3377 22.2005C69.3377 19.0384 68.2026 16.1196 66.4189 13.7683C64.473 11.417 61.7974 9.71434 58.7975 9.06571Z" fill="#201E1E"/>
<path d="M52.389 12.8763H59.4428C60.8212 12.8763 62.0373 13.4439 62.9292 14.3358C63.8211 15.2276 64.3887 16.4438 64.3887 17.8221V18.9572C64.3887 20.3356 63.8211 21.5518 62.9292 22.4436C62.0373 23.3355 60.8212 23.903 59.4428 23.903H52.389C51.8214 23.903 51.2539 23.4166 51.2539 22.7679V13.9304C51.2539 13.3628 51.7403 12.8763 52.389 12.8763ZM59.4428 15.0655H53.443V21.7139H59.4428C60.1725 21.7139 60.9023 21.3896 61.3887 20.9031C61.8752 20.4167 62.1995 19.687 62.1995 18.9572V17.8221C62.1995 17.0924 61.8752 16.3627 61.3887 15.8763C60.9023 15.3898 60.2536 15.0655 59.4428 15.0655Z" fill="#201E1E"/>
<path d="M51.2539 21.3086C51.2539 20.741 51.7403 20.1735 52.389 20.1735C53.0376 20.1735 53.5241 20.6599 53.5241 21.3086V30.7948C53.5241 31.3623 53.0376 31.9299 52.389 31.9299C51.7403 31.9299 51.2539 31.4434 51.2539 30.7948V21.3086Z" fill="#201E1E"/>
<path d="M48.3392 28.4435C47.7716 28.4435 47.2852 27.9571 47.2852 27.3084C47.2852 26.7409 47.7716 26.1733 48.3392 26.1733H60.7442C61.3118 26.1733 61.7983 26.6598 61.7983 27.3084C61.7983 27.876 61.3118 28.4435 60.7442 28.4435H48.3392Z" fill="#201E1E"/>
<path d="M48.3382 23.9031C47.7706 23.9031 47.2031 23.4167 47.2031 22.768C47.2031 22.2005 47.6896 21.6329 48.3382 21.6329H56.2839C56.8515 21.6329 57.419 22.1194 57.419 22.768C57.419 23.3356 56.9326 23.9031 56.2839 23.9031H48.3382Z" fill="#201E1E"/>
<path d="M22.2311 7.36307C22.2311 7.93062 21.7447 8.49818 21.096 8.49818C20.5285 8.49818 19.9609 8.0117 19.9609 7.36307V1.36325C19.9609 0.7957 20.4474 0.228149 21.096 0.228149C21.6636 0.228149 22.2311 0.714621 22.2311 1.36325V7.36307Z" fill="#201E1E"/>
<path d="M25.1463 0.309204C25.7138 0.309204 26.2814 0.795676 26.2814 1.44431C26.2814 2.01186 25.7949 2.57941 25.1463 2.57941H17.1195C16.5519 2.57941 15.9844 2.09293 15.9844 1.44431C15.9844 0.795676 16.4708 0.309204 17.1195 0.309204H25.1463Z" fill="#201E1E"/>
<path fill-rule="evenodd" clip-rule="evenodd" d="M47.2032 34.3622V48.551C47.2032 50.3347 45.6627 51.8752 43.8789 51.8752C42.0141 51.8752 40.5547 50.4158 40.5547 48.551V34.3622H47.2032Z" fill="#AFF406"/>
<path d="M48.2546 34.3622V48.5509C48.2546 49.7671 47.7681 50.8211 46.9573 51.6319C46.1465 52.4427 45.0114 52.9292 43.7953 52.9292C42.5791 52.9292 41.444 52.4427 40.6332 51.6319C39.8224 50.8211 39.3359 49.7671 39.3359 48.5509V34.3622C39.3359 33.7946 39.8224 33.2271 40.471 33.2271H47.2006C47.7681 33.2271 48.2546 33.7135 48.2546 34.3622ZM46.0655 48.5509V35.4162H41.5251V48.4698C41.5251 49.0374 41.7683 49.6049 42.1737 50.0103C42.5791 50.4157 43.1466 50.659 43.7953 50.659C44.4439 50.659 45.0114 50.4157 45.4168 50.0103C45.8222 49.686 46.0655 49.1185 46.0655 48.5509Z" fill="#201E1E"/>
<path d="M21.4172 81.7933H21.3362H21.2551H13.2283C13.1472 81.7933 13.0661 81.7933 12.9851 81.7933C10.3905 81.1447 8.20142 79.9285 6.57985 78.1448C5.03936 76.4421 4.14748 74.253 4.06641 71.6585C4.06641 71.0099 4.14748 70.2801 4.30963 69.5504C4.47179 68.8207 4.71504 68.091 4.95828 67.4424C6.25554 64.6046 8.52572 62.7398 10.7959 60.7939C13.7958 58.2805 16.7958 55.8481 16.7958 51.2267L16.9579 46.6052C16.9579 46.0376 17.4444 45.5511 18.093 45.5511C18.2552 45.5511 18.4984 45.6322 18.6606 45.7133C19.066 45.9565 19.5524 46.1187 19.9578 46.2809C20.4443 46.443 20.8497 46.443 21.4172 46.443C21.9037 46.443 22.3091 46.3619 22.7956 46.2809C23.201 46.1998 23.6875 46.0376 24.0118 45.7944C24.4982 45.4701 25.2279 45.7133 25.4712 46.1998C25.5523 46.3619 25.6333 46.5241 25.6333 46.7673L25.7955 51.3077C25.7955 55.8481 28.7954 58.3616 31.7953 60.875C34.0655 62.7398 36.3357 64.6857 37.633 67.5235C37.9573 68.1721 38.1195 68.9018 38.2816 69.6315C38.4438 70.3612 38.5248 71.0909 38.5248 71.7396C38.4438 74.3341 37.4708 76.5232 36.0114 78.2259C34.3898 80.0096 32.2007 81.3068 29.6062 81.8744C29.5251 81.8744 29.363 81.8744 29.2819 81.8744L21.4172 81.7933ZM21.0929 79.6042C23.6874 79.6042 26.282 79.6042 28.8765 79.6042C30.9845 79.0366 32.7683 78.0637 34.0655 76.6043C35.2817 75.307 36.0114 73.5233 36.0114 71.4963C36.0114 71.0099 35.9303 70.5234 35.8493 69.9558C35.6871 69.3883 35.5249 68.7397 35.2817 68.2532C34.2277 65.9019 32.1196 64.1182 30.0116 62.4155C26.6063 59.5778 23.2821 56.8211 23.2821 51.2267L23.201 48.3078L23.0388 48.3889C22.3902 48.5511 21.8226 48.6321 21.174 48.6321C20.4443 48.6321 19.7957 48.5511 19.147 48.3889L18.9038 48.3078L18.8227 51.3077C18.8227 56.9022 15.4174 59.7399 12.0932 62.4966C9.98515 64.1992 7.8771 65.983 6.82308 68.3343C6.57984 68.8207 6.4177 69.3883 6.25554 70.0369C6.09338 70.6045 6.09337 71.172 6.09337 71.5774C6.17445 73.6855 6.90416 75.3881 8.03926 76.6854C9.33652 78.1448 11.1202 79.1177 13.2283 79.6853H20.7686C20.8497 79.6853 20.8497 79.6853 20.9308 79.6853H21.0929V79.6042Z" fill="#201E1E"/>
<path d="M48.2576 34.3622V41.1728C48.2576 41.7403 47.7711 42.3079 47.1225 42.3079H40.3929C39.8254 42.3079 39.2578 41.8214 39.2578 41.1728V34.3622C39.2578 33.7946 39.7443 33.2271 40.3929 33.2271H47.1225C47.7711 33.2271 48.2576 33.7135 48.2576 34.3622ZM46.0684 40.0377V35.4162H41.528V40.0377H46.0684Z" fill="#201E1E"/>
</svg>
