<svg width="31" height="31" viewBox="0 0 31 31" fill="none" xmlns="http://www.w3.org/2000/svg">
<circle cx="15.5" cy="15.5" r="15.5" fill="#AFF406"/>
<path d="M1.26445 8.32073C0.714189 8.45534 0.163924 8.0515 0.0263579 7.37842C-0.111208 6.70534 0.30149 6.3015 0.989321 6.16688C7.04223 5.22457 7.86763 8.32073 9.24329 14.2438L9.65599 15.9938C10.3438 18.9553 12.4073 18.9553 15.4338 18.6861C16.1216 18.6861 16.8094 18.6861 17.6348 18.5515C21.074 18.4169 22.1745 15.8592 23.4126 12.763V12.6284C23.6877 11.8207 23.9629 11.1476 23.9629 10.7438C23.9629 10.6092 23.6877 10.4746 22.9999 10.4746C21.2115 10.4746 19.1481 10.4746 16.947 10.4746C15.0211 10.4746 14.0951 10.4746 12.0316 10.4746C11.3438 10.4746 10.7936 10.0707 10.7936 9.39765C10.7936 8.72457 11.3438 8.32073 11.8941 8.32073C13.9576 8.32073 14.8835 8.32073 16.8094 8.32073C19.0105 8.32073 21.074 8.32073 22.9999 8.32073C25.0634 8.32073 25.8888 9.26303 26.0264 10.4746C26.1639 11.4169 25.7512 12.4938 25.4761 13.4361L25.3385 13.7053C23.8253 17.4746 22.5872 20.84 17.4973 20.84C16.8094 20.84 16.1216 20.84 15.4338 20.9746C11.3068 21.2438 8.55546 21.3784 7.31736 16.5323L7.04223 14.7823C6.07927 10.2053 5.39144 7.78226 1.26445 8.32073ZM18.7354 21.1092C19.5608 21.1092 20.3861 21.513 20.9364 22.0515C21.4867 22.59 21.8994 23.3976 21.8994 24.2053C21.8994 25.013 21.4867 25.8207 20.9364 26.3592C20.3861 26.8976 19.5608 27.3015 18.7354 27.3015C17.91 27.3015 17.0846 26.8976 16.5343 26.3592C15.984 25.8207 15.5713 25.013 15.5713 24.2053C15.5713 23.3976 15.984 22.59 16.5343 22.0515C17.2221 21.513 18.0475 21.1092 18.7354 21.1092ZM19.4232 23.3976C19.2856 23.263 19.0105 23.1284 18.8729 23.1284C18.5978 23.1284 18.4602 23.263 18.3227 23.3976C18.0475 23.5323 17.91 23.8015 17.91 23.9361C17.91 24.2053 18.0475 24.34 18.1851 24.4746C18.3227 24.6092 18.5978 24.7438 18.7354 24.7438C19.0105 24.7438 19.1481 24.6092 19.2856 24.4746C19.4232 24.34 19.5608 24.0707 19.5608 23.9361C19.5608 23.8015 19.5608 23.5323 19.4232 23.3976ZM11.5819 21.1092C12.4073 21.1092 13.2327 21.513 13.783 22.0515C14.3332 22.59 14.7459 23.3976 14.7459 24.2053C14.7459 25.013 14.3332 25.8207 13.783 26.3592C13.2327 26.8976 12.4073 27.3015 11.5819 27.3015C10.7565 27.3015 9.93112 26.8976 9.38086 26.3592C8.83059 25.8207 8.41789 25.013 8.41789 24.2053C8.41789 23.3976 8.83059 22.59 9.38086 22.0515C9.93112 21.513 10.7565 21.1092 11.5819 21.1092ZM12.1322 23.3976C11.9946 23.263 11.7195 23.1284 11.5819 23.1284C11.3068 23.1284 11.1692 23.263 11.0316 23.3976C10.8941 23.5323 10.7565 23.8015 10.7565 23.9361C10.7565 24.2053 10.8941 24.34 11.0316 24.4746C11.1692 24.6092 11.4443 24.7438 11.5819 24.7438C11.7195 24.7438 11.9946 24.6092 12.1322 24.4746C12.2697 24.4746 12.4073 24.2053 12.4073 23.9361C12.4073 23.8015 12.2697 23.5323 12.1322 23.3976Z" fill="white"/>
</svg>
