<svg width="75" height="96" viewBox="0 0 75 96" fill="none" xmlns="http://www.w3.org/2000/svg">
<path d="M13.7029 41.4435H61.5393C62.1069 41.4435 62.6744 41.93 62.6744 42.5786V42.6597C62.6744 42.984 62.6744 43.3083 62.6744 43.6326C62.6744 45.4974 62.5933 47.3622 63.4852 48.6595C63.8095 49.146 64.377 49.7135 65.1068 50.0378C65.7554 50.3621 66.4851 50.5243 67.4581 50.5243H67.5391H67.6202C68.1878 50.5243 68.7553 51.0108 68.7553 51.5783V86.6854C68.7553 87.2529 68.2689 87.8205 67.6202 87.8205H5.83825C5.2707 87.8205 4.70312 87.334 4.70312 86.6854V51.3351C4.70312 50.7675 5.18962 50.2 5.83825 50.2C6.0004 50.2 6.08148 50.2 6.24364 50.2811C6.48688 50.3621 6.64902 50.3621 6.89226 50.4432C7.1355 50.4432 7.37873 50.5243 7.70305 50.5243C8.83815 50.5243 9.89218 50.2 10.703 49.6324C11.5138 49.0649 12.1624 48.173 12.4056 47.2811C12.6488 46.3893 12.6488 44.8488 12.5678 43.5515C12.5678 43.2272 12.5678 42.9029 12.5678 42.5786C12.6488 42.011 13.1353 41.4435 13.7029 41.4435ZM60.4853 43.6326H14.838C14.838 45.0109 14.9191 46.6325 14.5947 47.8487C14.1893 49.3081 13.2975 50.5243 12.0002 51.4162C10.8651 52.2269 9.40568 52.7134 7.78411 52.7134C7.54087 52.7134 7.29763 52.7134 6.97332 52.7134V85.6314H66.4851V52.6323C65.5932 52.5513 64.7824 52.308 64.1338 51.9837C62.9987 51.4162 62.1879 50.6865 61.6204 49.8757C60.4042 48.0109 60.4042 45.9028 60.4853 43.6326Z" fill="#201E1E"/>
<path fill-rule="evenodd" clip-rule="evenodd" d="M11.5121 56.2H41.8355C42.4841 56.2 42.9706 56.6864 42.9706 57.3351V86.7666H10.4581V57.3351C10.377 56.6864 10.8634 56.2 11.5121 56.2Z" fill="#C5C7B1"/>
<path d="M11.5124 55.1459H41.8358C42.4033 55.1459 42.9709 55.3891 43.3763 55.7945C43.7817 56.1999 44.0249 56.7675 44.0249 57.335V86.7666C44.0249 87.3341 43.5385 87.9017 42.8898 87.9017H10.3773C9.80971 87.9017 9.24219 87.4152 9.24219 86.7666V57.335C9.24219 56.7675 9.48541 56.1999 9.89081 55.7945C10.2962 55.3891 10.8638 55.1459 11.5124 55.1459ZM41.8358 57.335H11.5124V85.6315H41.8358V57.335Z" fill="#201E1E"/>
<path d="M3.32402 85.6315H71.7545C72.4842 85.6315 73.1328 85.9558 73.6193 86.4423L73.7004 86.5233C74.1058 87.0098 74.43 87.6584 74.43 88.3071V92.6042C74.43 93.334 74.1057 93.9826 73.6193 94.469C73.1328 94.9555 72.4842 95.2798 71.7545 95.2798H3.32402C2.59432 95.2798 1.9457 94.9555 1.45922 94.469C0.972752 93.9826 0.648438 93.334 0.648438 92.6042V88.3071C0.648438 87.5774 0.972752 86.9287 1.45922 86.4423C1.9457 85.9558 2.59432 85.6315 3.32402 85.6315ZM71.7545 87.8206H3.32402C3.16187 87.8206 3.08082 87.9017 2.99974 87.9828C2.91866 88.0638 2.83757 88.226 2.83757 88.3071V92.6042C2.83757 92.7664 2.91866 92.8475 2.99974 92.9286C3.08082 93.0096 3.24295 93.0907 3.32402 93.0907H71.7545C71.9166 93.0907 71.9977 93.0096 72.0788 92.9286C72.1599 92.8475 72.2409 92.6853 72.2409 92.6042V88.3071C72.2409 88.226 72.1599 88.0638 72.1599 87.9828C71.9977 87.9017 71.8355 87.8206 71.7545 87.8206Z" fill="#201E1E"/>
<path fill-rule="evenodd" clip-rule="evenodd" d="M48.7288 56.2H61.3771C62.0258 56.2 62.5122 56.6864 62.5122 57.3351V86.7666H47.5938V57.3351C47.5938 56.6864 48.0802 56.2 48.7288 56.2Z" fill="#AFF406"/>
<path d="M48.7263 55.1459H61.3746C61.9421 55.1459 62.5096 55.3891 62.915 55.7945C63.3204 56.1999 63.5637 56.7675 63.5637 57.335V86.7666C63.5637 87.3341 63.0772 87.9017 62.4286 87.9017H47.5101C46.9425 87.9017 46.375 87.4152 46.375 86.7666V57.335C46.375 56.7675 46.6182 56.1999 47.0236 55.7945C47.5101 55.3891 48.0776 55.1459 48.7263 55.1459ZM61.3746 57.335H48.7263V85.6315H61.4556L61.3746 57.335Z" fill="#201E1E"/>
<path d="M51.3242 69.0103C51.3242 68.4428 51.8107 67.9563 52.4593 67.9563C53.0269 67.9563 53.5944 68.4428 53.5944 69.0103V73.7129C53.5944 74.2804 53.108 74.7669 52.4593 74.7669C51.8918 74.7669 51.3242 74.2804 51.3242 73.7129V69.0103Z" fill="#201E1E"/>
<path d="M10.5384 79.8749C9.97084 79.8749 9.48438 79.3885 9.48438 78.7398C9.48438 78.1723 9.97084 77.6047 10.5384 77.6047H18.2409C18.8084 77.6047 19.2949 78.0912 19.2949 78.7398C19.2949 79.3074 18.8084 79.8749 18.2409 79.8749H10.5384Z" fill="#201E1E"/>
<path d="M22.136 79.8749C21.5685 79.8749 21.082 79.3885 21.082 78.7398C21.082 78.1723 21.5685 77.6047 22.136 77.6047H42.8922C43.4598 77.6047 43.9462 78.0912 43.9462 78.7398C43.9462 79.3074 43.4598 79.8749 42.8922 79.8749H22.136Z" fill="#201E1E"/>
<path fill-rule="evenodd" clip-rule="evenodd" d="M19.4611 61.7133C19.5422 61.8755 20.5152 61.6322 20.6773 61.5512C20.8395 61.4701 20.9206 61.7944 21.0827 62.0376L23.6772 66.4159C23.8394 66.6591 23.5151 66.9023 23.2718 66.9023H20.1909H19.9476H16.8666C16.6234 66.9023 16.3801 66.6591 16.4612 66.4159L19.0557 62.2809C19.2179 61.9565 19.3801 61.5511 19.4611 61.7133Z" fill="#AFF406"/>
<path d="M19.9447 60.6591C20.1069 60.6591 20.2691 60.5781 20.3501 60.5781H20.4312C21.4853 60.2537 21.7285 60.8213 21.9717 61.4699V61.551L24.5662 65.9293C24.7284 66.1725 24.7284 66.3346 24.7284 66.5779C24.7284 66.9022 24.6473 67.1454 24.4852 67.3887C24.323 67.5508 24.1608 67.713 23.9987 67.7941C23.7554 67.9562 23.5122 68.0373 23.1879 68.0373H20.1069H19.8637H19.7826H16.7827C16.5395 68.0373 16.2152 67.9562 15.9719 67.7941C15.8098 67.713 15.6476 67.5508 15.4854 67.3887C15.3233 67.1454 15.2422 66.9022 15.2422 66.5779C15.2422 66.3346 15.3233 66.0914 15.4044 65.9293L17.9989 61.7942C17.9989 61.7132 18.0799 61.7132 18.0799 61.6321C18.2421 61.3078 18.4043 60.9834 18.8097 60.8213C19.3772 60.497 19.7015 60.497 19.9447 60.6591ZM20.2691 62.8483C20.188 62.8483 20.0258 62.8483 19.9447 62.9293L18.1611 65.8482H19.8637H19.9447H20.188H22.0528L20.2691 62.8483Z" fill="#201E1E"/>
<path d="M21.0788 61.8754C21.0788 62.443 20.5923 63.0105 19.9437 63.0105C19.295 63.0105 18.8086 62.524 18.8086 61.8754V56.281C18.8086 55.7134 19.295 55.1459 19.9437 55.1459C20.5923 55.1459 21.0788 55.6323 21.0788 56.281V61.8754Z" fill="#201E1E"/>
<path fill-rule="evenodd" clip-rule="evenodd" d="M32.7541 61.7133C32.8352 61.8755 33.8081 61.6322 33.9703 61.5512C34.1324 61.4701 34.2135 61.7944 34.3757 62.0376L36.9702 66.4159C37.1323 66.6591 36.808 66.9023 36.5648 66.9023H33.4838H33.2406H30.1596C29.9163 66.9023 29.6731 66.6591 29.7542 66.4159L32.3487 62.2809C32.4298 61.9565 32.673 61.5511 32.7541 61.7133Z" fill="#AFF406"/>
<path d="M33.2426 60.6591C33.4047 60.6591 33.5669 60.5781 33.648 60.5781H33.729C34.7831 60.2537 35.0263 60.8213 35.2696 61.4699V61.551L37.8641 65.9293C38.0262 66.1725 38.0263 66.3346 38.0263 66.5779C38.0263 66.9022 37.9451 67.1454 37.783 67.3887C37.6208 67.5508 37.4587 67.713 37.2965 67.7941C37.0533 67.9562 36.8101 68.0373 36.4857 68.0373H33.4048H33.2426H33.1615H30.1616C29.9184 68.0373 29.5941 67.9562 29.3508 67.7941C29.1887 67.713 29.0265 67.5508 28.8643 67.3887C28.7022 67.1454 28.6211 66.9022 28.6211 66.5779C28.6211 66.3346 28.7022 66.0914 28.7833 65.9293L31.3778 61.7942C31.3778 61.7132 31.4588 61.7132 31.4588 61.6321C31.621 61.3078 31.7832 60.9834 32.1886 60.8213C32.594 60.497 32.9183 60.497 33.2426 60.6591ZM33.4858 62.8483C33.4047 62.8483 33.2426 62.8483 33.1615 62.9293L31.3778 65.8482H33.0804H33.1615H33.4048H35.2696L33.4858 62.8483Z" fill="#201E1E"/>
<path d="M34.2956 61.8754C34.2956 62.443 33.8091 63.0105 33.1605 63.0105C32.593 63.0105 32.0254 62.524 32.0254 61.8754V56.281C32.0254 55.7134 32.5119 55.1459 33.1605 55.1459C33.7281 55.1459 34.2956 55.6323 34.2956 56.281V61.8754Z" fill="#201E1E"/>
<path d="M27.3253 27.5791C27.8929 27.5791 28.4604 28.0656 28.4604 28.7142C28.4604 29.2818 27.974 29.8493 27.3253 29.8493H12.2447C11.4339 29.8493 10.7042 29.8493 10.2177 29.9304C9.89338 30.0115 9.56907 30.0925 9.40691 30.3358C8.92043 30.8223 8.43396 31.7952 7.78533 33.0114L7.70427 33.0925L7.29888 33.8222L3.56928 41.2814H37.4602C38.0277 41.2814 38.5952 41.7679 38.5952 42.4165C38.5952 43.0651 38.1088 43.5516 37.4602 43.5516H1.78554C1.62338 43.5516 1.4612 43.5516 1.29904 43.4705C0.731487 43.2273 0.569349 42.5787 0.812586 42.0111C2.43416 38.768 3.97465 35.4437 5.67731 32.2006V32.1195C6.40702 30.7412 6.97457 29.6871 7.70427 28.9574C8.27183 28.3899 8.8394 28.1467 9.65018 27.9845C10.2988 27.8223 11.1096 27.8223 12.0825 27.8223L27.3253 27.5791Z" fill="#201E1E"/>
<path d="M47.9985 29.7682C47.431 29.7682 46.8634 29.2818 46.8634 28.6331C46.8634 28.0656 47.3499 27.498 47.9985 27.498H63.0791C64.0521 27.498 64.7818 27.498 65.5115 27.6602C66.3223 27.8224 66.9709 28.1467 67.4574 28.6331C68.1871 29.3629 68.7547 30.4169 69.4844 31.7952V31.8763C71.187 35.1194 72.7275 38.4437 74.3491 41.6868C74.5923 42.2544 74.4302 42.903 73.8626 43.1462C73.7004 43.2273 73.5383 43.2273 73.3762 43.2273H37.7015C37.134 43.2273 36.5664 42.7408 36.5664 42.0922C36.5664 41.5247 37.0529 40.9571 37.7015 40.9571H71.5924L67.8628 33.4979L67.4574 32.7682L67.3763 32.6871C66.7277 31.4709 66.2412 30.579 65.7547 30.0115C65.5926 29.8493 65.2683 29.6872 64.9439 29.6061C64.4575 29.525 63.8088 29.525 62.917 29.525L47.9985 29.7682Z" fill="#201E1E"/>
<path d="M13.7848 41.2814H25.6222C26.1898 41.2814 26.7573 41.7678 26.7573 42.4165C26.7573 42.9029 26.7573 43.2273 26.7573 43.5516C26.7573 45.011 26.8384 46.7136 26.5141 47.9298C26.1087 49.3892 25.2168 50.6054 23.9196 51.4973C22.7845 52.3081 21.3251 52.7945 19.7035 52.7945C18.4062 52.7945 17.3522 52.5513 16.3793 52.0648C15.2442 51.4973 14.4334 50.7676 13.8658 49.9568C12.5686 48.092 12.6497 45.9029 12.7307 43.6327C12.7307 43.3083 12.7307 43.0651 12.7307 42.4165C12.7307 41.7678 13.2172 41.2814 13.7848 41.2814ZM24.5682 43.4705H14.9199V43.6327C14.9199 45.4975 14.8388 47.3623 15.7307 48.6595C16.055 49.146 16.6225 49.7136 17.3522 50.0379C18.0009 50.3622 18.7305 50.5243 19.7035 50.5243C20.8386 50.5243 21.8926 50.2 22.7034 49.6325C23.5142 49.0649 24.1628 48.1731 24.406 47.2812C24.6493 46.3083 24.5682 44.8488 24.5682 43.4705Z" fill="#201E1E"/>
<path d="M25.7847 41.2814H37.6223C38.1898 41.2814 38.7573 41.7678 38.7573 42.4165C38.7573 42.9029 38.7573 43.2273 38.7573 43.5516C38.7573 45.011 38.8384 46.7136 38.5141 47.9298C38.1087 49.3892 37.2168 50.6054 35.9196 51.4973C34.7845 52.3081 33.3251 52.7945 31.7035 52.7945C30.4062 52.7945 29.3522 52.5513 28.3793 52.0648C27.2442 51.4973 26.4334 50.7676 25.8659 49.9568C24.5686 48.092 24.6497 45.9029 24.7307 43.6327C24.7307 43.3083 24.7307 43.0651 24.7307 42.4165C24.6497 41.7678 25.1361 41.2814 25.7847 41.2814ZM36.4871 43.4705H26.8388V43.6327C26.8388 45.4975 26.7577 47.3623 27.6495 48.6595C27.9739 49.146 28.5414 49.7136 29.2711 50.0379C29.9197 50.3622 30.6495 50.5243 31.6224 50.5243C32.7575 50.5243 33.8116 50.2 34.6223 49.6325C35.4331 49.0649 36.0817 48.1731 36.325 47.2812C36.5682 46.3083 36.5682 44.8488 36.4871 43.4705Z" fill="#201E1E"/>
<path d="M37.7847 41.2814H49.6223C50.1898 41.2814 50.7573 41.7678 50.7573 42.4165C50.7573 42.9029 50.7573 43.2273 50.7573 43.5516C50.7573 45.011 50.8384 46.7136 50.5141 47.9298C50.1087 49.3892 49.2168 50.6054 47.9196 51.4973C46.7845 52.3081 45.3251 52.7945 43.7035 52.7945C42.4063 52.7945 41.3522 52.5513 40.3793 52.0648C39.2442 51.4973 38.4334 50.7676 37.8659 49.9568C36.5686 48.092 36.6497 45.9029 36.7307 43.6327C36.7307 43.3083 36.7307 43.0651 36.7307 42.4165C36.6497 41.7678 37.1361 41.2814 37.7847 41.2814ZM48.4871 43.4705H38.8388V43.6327C38.8388 45.4975 38.7577 47.3623 39.6496 48.6595C39.9739 49.146 40.5415 49.7136 41.2712 50.0379C41.9198 50.3622 42.6495 50.5243 43.6224 50.5243C44.7575 50.5243 45.8116 50.2 46.6223 49.6325C47.4331 49.0649 48.0817 48.1731 48.325 47.2812C48.5682 46.3083 48.4871 44.8488 48.4871 43.4705Z" fill="#201E1E"/>
<path d="M49.6207 41.2814H61.4582C62.0257 41.2814 62.5933 41.7678 62.5933 42.4165C62.5933 42.9029 62.5933 43.2273 62.5933 43.5516C62.5933 45.011 62.6744 46.7136 62.3501 47.9298C61.9447 49.3892 61.0528 50.6054 59.7555 51.4973C58.6204 52.3081 57.161 52.7945 55.5394 52.7945C54.2422 52.7945 53.1882 52.5513 52.2152 52.0648C51.0801 51.4973 50.2693 50.7676 49.7017 49.9568C48.4045 48.092 48.4856 45.9029 48.5667 43.6327C48.5667 43.3083 48.5667 43.0651 48.5667 42.4165C48.5667 41.7678 49.0531 41.2814 49.6207 41.2814ZM60.4041 43.4705H50.7558V43.6327C50.7558 45.4975 50.6747 47.3623 51.5665 48.6595C51.8909 49.146 52.4584 49.7136 53.1881 50.0379C53.8368 50.3622 54.5665 50.5243 55.5394 50.5243C56.6745 50.5243 57.7286 50.2 58.5393 49.6325C59.3501 49.0649 59.9987 48.1731 60.242 47.2812C60.4852 46.3083 60.4041 44.8488 60.4041 43.4705Z" fill="#201E1E"/>
<path fill-rule="evenodd" clip-rule="evenodd" d="M37.5386 1.4718C44.1059 1.4718 49.3761 6.74192 49.3761 13.3093C49.3761 15.093 48.9707 16.7146 48.322 18.174H48.4031C44.9168 24.8225 41.5114 30.2547 37.7007 35.9302L37.6197 36.0113L37.5386 35.9302C33.9711 30.5791 30.8091 25.4711 27.4848 19.3902C27.2416 18.9848 26.9983 18.5794 26.8362 18.0929C26.1875 16.6335 25.7822 14.9309 25.7822 13.2282C25.7011 6.74192 31.0523 1.4718 37.5386 1.4718ZM37.6197 7.87702C40.7007 7.87702 43.133 10.3094 43.133 13.3904C43.133 16.4714 40.7007 18.9037 37.6197 18.9037C34.5387 18.9037 32.1063 16.4714 32.1063 13.3904C32.1063 10.3905 34.5387 7.87702 37.6197 7.87702Z" fill="#AFF406"/>
<path d="M37.539 0.33667C41.1065 0.33667 44.3496 1.79609 46.7009 4.14737C49.0522 6.49865 50.5116 9.7418 50.5116 13.3093C50.5116 14.2822 50.4305 15.1741 50.1873 16.0659C50.0251 16.8767 49.7819 17.6064 49.4576 18.3361C49.4576 18.4983 49.3765 18.6605 49.2954 18.7415C47.5928 22.0658 45.809 25.0657 44.0253 27.9845C42.2416 30.9844 40.4578 33.7411 38.512 36.5788L38.4309 36.741C38.1066 37.2275 37.3768 37.3086 36.8904 36.9842C36.8093 36.9032 36.7282 36.8221 36.6472 36.741L36.566 36.6599L36.485 36.5788C34.7013 33.9032 32.9986 31.3087 31.377 28.5521C29.7555 25.8765 28.1339 23.0387 26.5123 20.0388C26.4312 19.8766 26.2691 19.6334 26.1069 19.3091C25.9448 19.0658 25.8637 18.8226 25.7826 18.5794C25.3772 17.7686 25.134 16.8767 24.8907 15.9849C24.7286 15.093 24.5664 14.2011 24.5664 13.2282C24.5664 9.66072 26.0258 6.41757 28.3771 4.06629C30.7284 1.79609 33.9715 0.33667 37.539 0.33667ZM45.1604 5.68786C43.2145 3.74197 40.5389 2.52579 37.539 2.52579C34.5391 2.52579 31.8635 3.74197 29.9176 5.68786C27.9717 7.63375 26.7555 10.3093 26.7555 13.3093C26.7555 14.12 26.8366 14.8498 26.9988 15.5795C27.1609 16.3092 27.4042 17.0389 27.6474 17.6875C27.6474 17.7686 27.7285 17.7686 27.7285 17.8497C27.8096 18.0118 27.8906 18.174 27.9717 18.3361C28.0528 18.4983 28.1339 18.6605 28.2961 18.9037V18.9848C29.9176 21.9847 31.5392 24.7414 33.1608 27.417C34.5391 29.6872 35.9985 31.8763 37.4579 34.1465C39.0795 31.7141 40.62 29.2818 42.0794 26.8494C43.7821 24.0927 45.4036 21.1739 47.1063 17.9307C47.1063 17.8497 47.1874 17.7686 47.1874 17.6875C47.5117 17.0389 47.7549 16.3092 47.9171 15.4984C48.0792 14.7687 48.1603 14.039 48.1603 13.2282C48.3225 10.3093 47.1063 7.63375 45.1604 5.68786ZM37.6201 6.82297C39.4038 6.82297 41.1065 7.55267 42.3227 8.76885C43.5388 9.98503 44.2685 11.6066 44.2685 13.4714C44.2685 15.2551 43.5388 16.9578 42.3227 18.174C41.1065 19.3902 39.4849 20.1199 37.6201 20.1199C35.8364 20.1199 34.1337 19.3902 32.9175 18.174C31.7013 16.9578 30.9716 15.3362 30.9716 13.4714C30.9716 11.6877 31.7013 9.98503 32.9175 8.76885C34.1337 7.55267 35.7553 6.82297 37.6201 6.82297ZM40.7011 10.3093C39.8903 9.49856 38.8363 9.01209 37.539 9.01209C36.3228 9.01209 35.1877 9.49856 34.377 10.3093C33.5662 11.1201 33.0797 12.1742 33.0797 13.4714C33.0797 14.6876 33.5662 15.8227 34.377 16.6335C35.1877 17.4443 36.2417 17.9307 37.539 17.9307C38.7552 17.9307 39.8903 17.4443 40.7011 16.6335C41.5119 15.8227 41.9983 14.7687 41.9983 13.4714C41.9983 12.1742 41.5119 11.1201 40.7011 10.3093Z" fill="#201E1E"/>
<path d="M37.6211 6.823C39.4049 6.823 41.1075 7.55271 42.3237 8.76889C43.5399 9.98507 44.2695 11.6066 44.2695 13.4715C44.2695 15.2552 43.5399 16.9578 42.3237 18.174C41.1075 19.3902 39.4859 20.1199 37.6211 20.1199C35.8374 20.1199 34.1347 19.3902 32.9185 18.174C31.7023 16.9578 30.9727 15.3363 30.9727 13.4715C30.9727 11.6877 31.7023 9.98507 32.9185 8.76889C34.1347 7.55271 35.7563 6.823 37.6211 6.823ZM40.7021 10.3094C39.8913 9.4986 38.8373 9.01212 37.54 9.01212C36.3238 9.01212 35.1888 9.4986 34.378 10.3094C33.5672 11.1202 33.0807 12.1742 33.0807 13.4715C33.0807 14.6876 33.5672 15.8227 34.378 16.6335C35.1888 17.4443 36.2428 17.9308 37.54 17.9308C38.7562 17.9308 39.8913 17.4443 40.7021 16.6335C41.5129 15.8227 41.9993 14.7687 41.9993 13.4715C41.9993 12.1742 41.5129 11.1202 40.7021 10.3094Z" fill="#201E1E"/>
<path d="M2.02601 41.2814H13.7824C14.35 41.2814 14.9175 41.7678 14.9175 42.4165C14.9175 42.9029 14.9175 43.2273 14.9175 43.5516C14.9175 45.011 14.9986 46.7136 14.6743 47.9298C14.2689 49.3892 13.377 50.6054 12.0798 51.4973C10.9447 52.3081 9.48526 52.7945 7.86369 52.7945C6.56643 52.7945 5.51237 52.5513 4.53943 52.0648C3.40433 51.4973 2.59356 50.7676 2.02601 49.9568C0.728751 48.092 0.80981 45.9029 0.890889 43.6327C0.890889 43.3083 0.890889 43.0651 0.890889 42.4165C0.890889 41.7678 1.37738 41.2814 2.02601 41.2814ZM12.7284 43.4705H3.08002V43.6327C3.08002 45.4975 2.99894 47.3623 3.89081 48.6595C4.21512 49.146 4.78268 49.7136 5.51238 50.0379C6.16101 50.3622 6.89074 50.5243 7.86369 50.5243C8.99879 50.5243 10.0528 50.2 10.8636 49.6325C11.6744 49.0649 12.323 48.1731 12.5662 47.2812C12.8095 46.3083 12.7284 44.8488 12.7284 43.4705Z" fill="#201E1E"/>
<path d="M61.5387 41.2814H73.3762C73.9437 41.2814 74.5113 41.7678 74.5113 42.4165C74.5113 42.9029 74.5113 43.2273 74.5113 43.5516C74.5113 45.011 74.5923 46.7136 74.268 47.9298C73.8626 49.3892 72.9708 50.6054 71.6735 51.4973C70.5384 52.3081 69.079 52.7945 67.4574 52.7945C66.1602 52.7945 65.1061 52.5513 64.1332 52.0648C62.9981 51.4973 62.1873 50.7676 61.6198 49.9568C60.3225 48.092 60.4036 45.9029 60.4846 43.6327C60.4846 43.3083 60.4846 43.0651 60.4846 42.4165C60.4846 41.7678 60.9712 41.2814 61.5387 41.2814ZM72.3222 43.4705H62.6738V43.6327C62.6738 45.4975 62.5927 47.3623 63.4846 48.6595C63.8089 49.146 64.3764 49.7136 65.1061 50.0379C65.7548 50.3622 66.4845 50.5243 67.4574 50.5243C68.5925 50.5243 69.6466 50.2 70.4574 49.6325C71.2681 49.0649 71.9168 48.1731 72.16 47.2812C72.3221 46.3083 72.3222 44.8488 72.3222 43.4705Z" fill="#201E1E"/>
</svg>
