<svg width="184" height="61" viewBox="0 0 184 61" fill="none" xmlns="http://www.w3.org/2000/svg">
<path d="M24.5582 3.52178C25.2685 3.66384 26.0143 3.84141 26.8311 3.98347C27.648 4.16104 28.4293 4.26758 29.2106 4.3031C29.992 4.33861 30.7733 4.3031 31.5546 4.19656C32.3359 4.09001 33.0462 3.80589 33.721 3.41523C34.2537 3.13111 34.7865 2.88251 35.3192 2.70493C35.8519 2.52736 36.4557 2.56288 37.0949 2.74045C37.9118 3.02457 38.551 3.55729 38.9772 4.26758C39.4034 4.97788 39.5454 5.75921 39.3324 6.64708C39.1903 7.4284 38.7996 8.06767 38.1959 8.49385C37.5921 8.95554 36.9174 9.27517 36.1005 9.48826C35.2837 9.70135 34.5023 9.80789 33.6855 9.80789C32.8687 9.80789 32.1229 9.73686 31.4836 9.63032C29.4592 9.27517 27.5059 8.67142 25.5881 7.78356C23.7058 6.89569 21.788 6.11436 19.8703 5.40406C18.1655 4.76479 16.5319 4.3031 14.8982 3.98347C13.3 3.69935 11.5953 3.87693 9.81956 4.55171C8.75412 4.97788 7.90177 5.54612 7.19147 6.25641C6.48117 7.00222 6.01948 7.81906 5.77088 8.70693C5.52227 9.5948 5.48676 10.5537 5.66433 11.4771C5.84191 12.436 6.3036 13.3594 7.08492 14.2117C7.58213 14.8155 7.97279 15.4192 8.32794 16.023C8.68309 16.6267 8.71861 17.337 8.50552 18.1539C8.25691 19.1128 7.65316 19.8586 6.69426 20.2848C5.73536 20.7109 4.84749 20.7465 3.92411 20.3558C2.82315 19.8586 2.04182 19.0062 1.54462 17.8342C1.04741 16.6267 0.834321 15.3127 0.940865 13.8921C1.01189 12.4715 1.33153 11.0154 1.93528 9.48826C2.50352 7.99664 3.32036 6.68259 4.31477 5.54612C5.62882 4.09001 7.12044 3.0956 8.78964 2.59839C10.4588 2.10119 12.1991 1.85258 14.0103 1.85258C15.8216 1.8881 17.5973 2.06567 19.4086 2.45634C21.2908 2.81148 22.9956 3.16663 24.5582 3.52178ZM7.12044 38.2197C7.36904 34.8813 7.9728 31.543 8.93169 28.2046C9.85508 24.8662 10.8495 21.5988 11.8439 18.4025C12.3766 16.8398 12.8738 15.1706 13.4066 13.4659C13.9038 11.7612 14.6141 10.1986 15.5019 8.81348C15.8571 8.31628 16.2477 7.89009 16.7449 7.46391C17.2422 7.03774 17.7394 6.75362 18.3076 6.57604C18.8403 6.39847 19.4086 6.39848 19.9768 6.54054C20.545 6.6826 21.0778 7.07325 21.5394 7.677C22.0367 8.28076 22.2497 8.88451 22.2497 9.52378C22.2142 10.163 22.0722 10.8023 21.788 11.4416C21.5039 12.0808 21.1488 12.7201 20.7581 13.3239C20.3319 13.9276 19.9768 14.5314 19.6927 15.0286C18.8403 16.7333 17.988 18.4025 17.1356 20.1072C16.2833 21.8119 15.5019 23.5521 14.7561 25.3279C14.0103 27.0326 13.2645 28.7373 12.5187 30.442C11.7729 32.1467 11.1336 33.9224 10.5299 35.7337C10.3523 36.2664 10.2102 36.8347 10.1037 37.4384C9.99714 38.0422 9.81956 38.6104 9.57096 39.0366C9.39339 39.3917 9.14478 39.5693 8.86066 39.6403C8.57655 39.7113 8.29243 39.7114 8.04383 39.5693C7.79522 39.4627 7.54662 39.2852 7.36904 39.0011C7.15595 38.859 7.08492 38.5394 7.12044 38.2197ZM47.2166 19.5745C46.5774 20.7464 45.9381 21.8829 45.3344 23.0549C44.7306 24.1914 44.1269 25.3634 43.6296 26.5709C43.3455 27.2812 43.0259 27.9915 42.7418 28.7373C42.4577 29.4831 42.2091 30.1934 41.996 30.9747C41.8184 31.614 41.5698 32.3598 41.3212 33.2121C41.0726 34.0645 41.0371 34.8458 41.2146 35.5561C41.7829 35.343 42.3156 34.9524 42.8838 34.4552C43.4166 33.958 43.9493 33.3897 44.411 32.7505C44.8727 32.1467 45.3344 31.5074 45.725 30.8327C46.1512 30.1934 46.5063 29.6251 46.7905 29.1635C47.2522 28.4887 47.6783 27.8139 48.1045 27.1036C48.5307 26.3933 48.9569 25.7185 49.383 25.0082C49.5251 24.7596 49.7382 24.511 50.0223 24.2624C50.3064 24.0493 50.5905 23.9073 50.8747 23.8362C51.1588 23.7652 51.4074 23.8362 51.6205 23.9783C51.8336 24.1204 51.9756 24.44 52.0111 24.8662C52.0822 25.3634 51.9401 25.8606 51.585 26.4288C51.2298 26.9615 50.9457 27.4232 50.6971 27.8139C50.1999 28.5597 49.5961 29.5186 48.8503 30.7261C48.1045 31.8981 47.2877 33.0346 46.3643 34.1355C45.4764 35.2365 44.5175 36.1599 43.5941 36.9767C42.6352 37.7935 41.7118 38.2197 40.8595 38.2552C40.2913 38.2908 39.7585 38.1487 39.2968 37.7936C38.7996 37.4384 38.3735 36.9767 37.9473 36.4085C37.5211 35.8402 37.166 35.2365 36.8818 34.5617C36.5977 33.9224 36.3491 33.2477 36.2071 32.6084L35.4257 33.8514C34.893 34.6327 34.2893 35.4496 33.579 36.2309C32.8687 37.0477 32.0518 37.616 31.1284 38.0066C30.3116 38.3618 29.5303 38.4328 28.7489 38.2197C28.0031 38.0422 27.2928 37.687 26.6536 37.1898C26.0143 36.6926 25.4461 36.0888 24.9489 35.343C24.4517 34.6327 24.061 33.9224 23.7769 33.2477C23.1021 31.685 22.7825 30.1224 22.8535 28.5952C22.9245 27.0681 23.2086 25.541 23.7414 23.9428C24.1675 22.6643 24.7003 21.4567 25.3395 20.3203C25.9788 19.1838 26.7956 18.1184 27.719 17.1239C28.4293 16.3781 29.2462 15.7389 30.2051 15.1706C31.1284 14.6379 32.1229 14.2472 33.1173 13.9986C34.1472 13.7856 35.1771 13.7145 36.2426 13.8211C37.308 13.9276 38.3379 14.2828 39.2968 14.851C39.6875 15.0641 40.0071 15.3837 40.2913 15.7389C40.5754 16.1295 40.824 16.5202 41.0016 16.9819C41.1791 16.6978 41.3922 16.3781 41.6053 16.094C41.8184 15.8099 42.1025 15.5258 42.3866 15.3127C43.0614 14.78 43.7717 14.5669 44.5175 14.6734C45.2633 14.78 45.9026 15.0641 46.4708 15.5258C47.0036 15.9875 47.3942 16.5912 47.5718 17.337C47.7849 18.0828 47.6428 18.8286 47.2166 19.5745ZM39.4389 20.1782C39.4389 19.6455 39.3679 19.1483 39.2258 18.6156C39.0838 18.1184 38.8351 17.7277 38.48 17.5146C37.8762 17.0884 37.2015 17.1595 36.4201 17.7277C35.6388 18.2959 34.9285 19.0062 34.2182 19.9296C33.5079 20.8175 32.9042 21.7409 32.3715 22.6998C31.8387 23.6232 31.4481 24.2624 31.2705 24.6176C30.7023 25.6475 30.2051 26.6774 29.7078 27.7429C29.2462 28.8083 28.8555 29.9093 28.6069 31.0457C28.5359 31.3299 28.4648 31.756 28.4293 32.2177C28.3938 32.7149 28.3938 33.1766 28.4293 33.6738C28.4648 34.171 28.5714 34.5972 28.7845 34.9879C28.962 35.3785 29.2817 35.5916 29.6723 35.6272C30.3116 35.6982 30.8798 35.5206 31.4126 35.0234C31.9453 34.5617 32.3715 34.1 32.6911 33.6383C33.4369 32.6794 34.1117 31.6495 34.7154 30.584C35.3192 29.5186 35.8874 28.4532 36.4201 27.3877C36.9884 26.1447 37.5211 24.8662 38.0893 23.5166C38.6576 22.2026 39.0838 21.1016 39.4389 20.1782ZM64.8675 8.1387C64.2282 8.88451 63.4469 10.092 62.488 11.7257C61.5646 13.3594 60.6057 15.1706 59.6113 17.195C58.6524 19.2193 57.6935 21.2792 56.8411 23.4101C55.9533 25.541 55.243 27.4943 54.7458 29.3055C54.2131 31.0813 53.9289 32.5729 53.8934 33.7449C53.8579 34.9168 54.1775 35.5206 54.9234 35.5916C55.4206 35.6271 55.9178 35.4141 56.486 34.9524C57.0187 34.4907 57.587 33.8869 58.1197 33.1411C58.6524 32.3953 59.1851 31.614 59.7178 30.7616C60.2506 29.9093 60.7123 29.1279 61.1384 28.3821C60.7123 27.8139 60.4281 27.2101 60.2506 26.5354C60.073 25.8606 59.9664 25.1503 59.9309 24.44C59.8954 23.7297 59.9664 23.0194 60.073 22.3091C60.1795 21.5988 60.3571 20.924 60.5702 20.2848C60.7478 19.7165 60.9964 19.0773 61.316 18.3314C61.6001 17.5856 61.9908 16.9464 62.4525 16.3426C62.9142 15.7389 63.4114 15.2772 64.0151 14.9575C64.6189 14.6379 65.2937 14.6024 66.0395 14.8865C67.247 15.3482 68.1704 15.9875 68.8451 16.8753C69.5199 17.7632 69.9816 18.7221 70.2302 19.7875C70.4788 20.853 70.5143 21.9184 70.3723 22.9839C70.2302 24.0848 69.9461 25.0793 69.591 25.9671L68.9162 27.4943C69.7685 27.2812 70.6209 26.9615 71.4377 26.5709C72.2546 26.1802 72.9649 25.612 73.5331 24.8662C73.7107 24.6531 73.9593 24.44 74.2789 24.2624C74.563 24.0848 74.8827 23.9783 75.1668 23.9073C75.4509 23.8718 75.6995 23.9428 75.9126 24.1204C76.1257 24.2979 76.2322 24.582 76.2677 25.0437C76.3033 25.4699 76.1967 25.8606 75.9481 26.2157C75.6995 26.6064 75.4154 26.9615 75.0602 27.2812C74.7051 27.6363 74.3144 27.9204 73.8883 28.2046C73.4621 28.4887 73.1424 28.7018 72.8583 28.8438C72.0415 29.27 71.0826 29.6252 69.9816 29.9448C68.8807 30.2644 67.8152 30.442 66.7143 30.4775C65.5778 31.7916 64.3703 32.9991 63.0207 34.1C61.6712 35.201 60.3216 36.1954 58.8655 37.0477C58.1197 37.5094 57.2318 37.8646 56.2374 38.1842C55.243 38.4683 54.3196 38.3973 53.4672 37.9001C52.97 37.6515 52.4728 37.2963 51.9756 36.9057C51.4784 36.515 50.9812 36.0888 50.555 35.6272C50.0933 35.1655 49.7027 34.6682 49.383 34.1C49.0634 33.5673 48.8503 32.9991 48.7438 32.4308C48.4597 30.9037 48.3886 29.4121 48.5662 27.956C48.7438 26.4998 49.0989 25.0437 49.6316 23.5876C50.6616 20.4979 51.798 17.4436 53.1121 14.3538C54.4261 11.264 56.0953 8.45833 58.0842 5.86575C58.3683 5.47509 58.7234 5.08442 59.0786 4.65825C59.4337 4.23207 59.8244 3.84141 60.2506 3.48626C60.6767 3.13112 61.1029 2.847 61.6001 2.63391C62.0973 2.42082 62.6301 2.34979 63.1628 2.42082C63.8376 2.49185 64.4058 2.74045 64.8675 3.16663C65.3292 3.59281 65.6133 4.05449 65.7554 4.62273C65.8974 5.19097 65.8974 5.79472 65.7909 6.43399C65.6133 7.03774 65.3292 7.60598 64.8675 8.1387ZM63.4824 23.268C63.6245 22.9128 63.8376 22.5222 64.0507 21.9895C64.2637 21.4923 64.4768 20.9595 64.6544 20.3913C64.832 19.8231 64.9385 19.2903 65.0096 18.7576C65.0806 18.2249 65.0096 17.7632 64.8675 17.337C64.4413 17.7277 64.0507 18.2249 63.6955 18.8642C63.3048 19.5034 63.0207 20.2137 62.7721 20.9595C62.5235 21.7053 62.3815 22.4867 62.3104 23.268C62.2394 24.0493 62.3459 24.7951 62.559 25.4699C62.7366 25.0793 62.9142 24.7241 63.0562 24.369C63.1628 24.0138 63.3404 23.6587 63.4824 23.268ZM96.9729 19.5745C96.3336 20.7464 95.6943 21.8829 95.0906 23.0549C94.4868 24.1914 93.8831 25.3634 93.3859 26.5709C93.1018 27.2812 92.7821 27.9915 92.498 28.7373C92.2139 29.4831 91.9653 30.1934 91.7522 30.9747C91.5746 31.614 91.326 32.3598 91.0774 33.2121C90.8288 34.0645 90.7933 34.8458 90.9709 35.5561C91.5391 35.343 92.0718 34.9524 92.6401 34.4552C93.1728 33.958 93.7055 33.3897 94.1672 32.7505C94.6289 32.1467 95.0906 31.5074 95.4812 30.8327C95.9074 30.1934 96.2626 29.6251 96.5467 29.1635C97.0084 28.4887 97.4346 27.8139 97.8607 27.1036C98.2869 26.3933 98.7131 25.7185 99.1393 25.0082C99.2813 24.7596 99.4944 24.511 99.7785 24.2624C100.063 24.0493 100.347 23.9073 100.631 23.8362C100.915 23.7652 101.164 23.8362 101.377 23.9783C101.59 24.1204 101.732 24.44 101.767 24.8662C101.838 25.3634 101.696 25.8606 101.341 26.4288C100.986 26.9615 100.702 27.4232 100.453 27.8139C99.9561 28.5597 99.3524 29.5186 98.6065 30.7261C97.8607 31.8981 97.0439 33.0346 96.1205 34.1355C95.2326 35.2365 94.2737 36.1599 93.3504 36.9767C92.3915 37.7935 91.4681 38.2197 90.6157 38.2552C90.0475 38.2908 89.5148 38.1487 89.0531 37.7936C88.5559 37.4384 88.1297 36.9767 87.7035 36.4085C87.2773 35.8402 86.9222 35.2365 86.6381 34.5617C86.3539 33.9224 86.1053 33.2477 85.9633 32.6084L85.182 33.8514C84.6492 34.6327 84.0455 35.4496 83.3352 36.2309C82.6249 37.0477 81.808 37.616 80.8847 38.0066C80.0678 38.3618 79.2865 38.4328 78.5052 38.2197C77.7594 38.0422 77.0491 37.687 76.4098 37.1898C75.7705 36.6926 75.2023 36.0888 74.7051 35.343C74.2079 34.6327 73.8172 33.9224 73.5331 33.2477C72.8583 31.685 72.5387 30.1224 72.6097 28.5952C72.6807 27.0681 72.9649 25.541 73.4976 23.9428C73.9238 22.6643 74.4565 21.4567 75.0958 20.3203C75.735 19.1838 76.5519 18.1184 77.4752 17.1239C78.1855 16.3781 79.0024 15.7389 79.9613 15.1706C80.8847 14.6379 81.8791 14.2472 82.8735 13.9986C83.9034 13.7856 84.9333 13.7145 85.9988 13.8211C87.0642 13.9276 88.0942 14.2828 89.0531 14.851C89.4437 15.0641 89.7634 15.3837 90.0475 15.7389C90.3316 16.1295 90.5802 16.5202 90.7578 16.9819C90.9354 16.6978 91.1484 16.3781 91.3615 16.094C91.5746 15.8099 91.8587 15.5258 92.1429 15.3127C92.8176 14.78 93.5279 14.5669 94.2738 14.6734C95.0196 14.78 95.6588 15.0641 96.2271 15.5258C96.7598 15.9875 97.1505 16.5912 97.328 17.337C97.5766 18.0828 97.4346 18.8286 96.9729 19.5745ZM89.1951 20.1782C89.1951 19.6455 89.1241 19.1483 88.982 18.6156C88.84 18.1184 88.5914 17.7277 88.2362 17.5146C87.6325 17.0884 86.9577 17.1595 86.1764 17.7277C85.395 18.2959 84.6847 19.0062 83.9744 19.9296C83.2642 20.8175 82.6604 21.7409 82.1277 22.6998C81.595 23.6232 81.2043 24.2624 81.0267 24.6176C80.4585 25.6475 79.9613 26.6774 79.4641 27.7429C79.0024 28.8083 78.6117 29.9093 78.3631 31.0457C78.2921 31.3299 78.221 31.756 78.1855 32.2177C78.15 32.7149 78.15 33.1766 78.1855 33.6738C78.221 34.171 78.3276 34.5972 78.5407 34.9879C78.7183 35.3785 79.0379 35.5916 79.4286 35.6272C80.0678 35.6982 80.6361 35.5206 81.1688 35.0234C81.7015 34.5617 82.1277 34.1 82.4473 33.6383C83.1931 32.6794 83.8679 31.6495 84.4717 30.584C85.0754 29.5186 85.6436 28.4532 86.1764 27.3877C86.7446 26.1447 87.2773 24.8662 87.8456 23.5166C88.4493 22.2026 88.8755 21.1016 89.1951 20.1782ZM124.923 22.7708C124 23.339 123.005 23.7297 122.011 23.9783C120.981 24.2269 119.951 24.44 118.921 24.6176C119.489 24.7596 120.022 24.9372 120.59 25.1148C121.123 25.2923 121.372 25.4699 121.301 25.612C120.129 28.5242 118.885 31.4719 117.536 34.3841C116.186 37.2963 114.517 40.031 112.564 42.5881C111.818 43.5114 111.037 44.3638 110.22 45.0741C109.403 45.7844 108.48 46.4236 107.379 46.9208C106.846 47.1695 106.313 47.347 105.781 47.3825C105.248 47.4536 104.715 47.2405 104.218 46.7788C103.685 46.2816 103.472 45.6778 103.508 44.932C103.579 44.1862 103.863 43.5825 104.431 43.1918C104.928 42.8367 105.425 42.6946 105.958 42.7301C106.491 42.7656 107.024 42.6236 107.521 42.3039C108.728 41.4871 109.652 40.3861 110.291 38.9655C110.93 37.5805 111.392 36.2309 111.712 34.9169C110.54 36.3019 109.261 37.2963 107.84 37.8291C106.384 38.3973 104.999 38.2908 103.685 37.5805C102.407 36.8347 101.377 35.8047 100.666 34.4552C99.7075 32.5018 99.1038 30.3354 98.8552 27.9915C98.6421 25.612 98.7131 23.268 99.1038 20.853C99.4944 18.4735 100.169 16.165 101.128 13.9986C102.087 11.7967 103.259 9.91444 104.644 8.28076C106.065 6.57605 107.698 5.19097 109.545 4.09001C111.392 2.98905 113.416 2.27876 115.618 1.99464C116.719 1.81706 117.82 1.74603 118.957 1.78155C120.093 1.81706 121.194 2.03016 122.188 2.45634C123.076 2.88251 123.822 3.48626 124.426 4.26758C124.994 5.04891 125.456 5.93678 125.74 6.86017C126.202 8.31628 126.202 9.8434 125.811 11.3705C125.42 12.8977 124.781 14.2828 123.929 15.4903C123.68 15.9164 123.289 16.3426 122.828 16.8398C122.366 17.337 121.869 17.7987 121.336 18.2604C120.803 18.7221 120.271 19.1128 119.702 19.4324C119.134 19.752 118.637 19.9651 118.175 20.0362C117.536 20.1427 116.932 20.1072 116.364 19.8586C115.796 19.6455 115.334 19.3259 114.943 18.8997C114.553 18.4735 114.269 17.9763 114.091 17.4081C113.913 16.8398 113.949 16.2361 114.127 15.6323C114.269 15.0641 114.517 14.6024 114.801 14.2828C115.085 13.9276 115.441 13.679 115.867 13.4659C116.293 13.2528 116.719 13.1108 117.216 13.0042C117.714 12.8977 118.175 12.7911 118.637 12.7201C119.383 12.578 120.093 12.2584 120.732 11.8322C121.372 11.3705 121.904 10.8378 122.295 10.1986C122.508 9.84341 122.721 9.45275 122.899 8.95554C123.076 8.45833 123.183 7.99664 123.218 7.53495C123.254 7.07326 123.147 6.64708 122.934 6.25641C122.721 5.86575 122.366 5.61715 121.833 5.40406C121.372 5.262 120.91 5.22649 120.413 5.29752C119.915 5.36855 119.454 5.5106 118.957 5.68817C118.459 5.86575 117.998 6.11436 117.536 6.36296C117.074 6.61157 116.684 6.86016 116.293 7.10877C115.263 7.74803 114.34 8.45833 113.452 9.23965C112.564 10.021 111.747 10.8733 110.93 11.7612C109.368 13.608 108.018 15.5968 106.917 17.7277C105.816 19.8586 104.964 22.096 104.253 24.369C104.076 25.0082 103.827 25.9671 103.579 27.2101C103.33 28.4532 103.188 29.7317 103.188 30.9747C103.188 32.2177 103.401 33.3187 103.827 34.2776C104.253 35.201 105.07 35.6982 106.278 35.6982C107.343 35.6982 108.231 35.343 108.941 34.6327C109.687 33.9224 110.291 33.0701 110.824 32.1112C111.356 31.1523 111.783 30.1224 112.138 29.0569C112.493 27.9915 112.812 27.0681 113.132 26.3223C112.209 26.8905 111.392 27.3522 110.753 27.6718C110.113 28.027 109.368 28.0625 108.586 27.8494C108.053 27.7074 107.627 27.4587 107.272 27.1036C106.917 26.7485 106.668 26.3578 106.491 25.8961C106.313 25.4344 106.242 24.9727 106.278 24.4755C106.313 23.9783 106.42 23.5166 106.704 23.0549C107.166 22.2381 107.805 21.6698 108.622 21.3502C109.439 21.0661 110.326 20.8885 111.285 20.8885C112.244 20.853 113.203 20.9595 114.198 21.1016C115.192 21.2437 116.009 21.4212 116.719 21.5633C117.394 21.6698 117.962 21.7764 118.424 21.8474C118.885 21.9184 119.312 21.954 119.702 21.9184C120.129 21.8829 120.555 21.8119 120.981 21.7053C121.407 21.5633 121.94 21.3857 122.544 21.1016C122.792 20.9951 123.076 20.8175 123.396 20.6399C123.68 20.4268 124 20.3558 124.284 20.3913C124.568 20.4268 124.852 20.5334 125.03 20.7465C125.243 20.924 125.385 21.1726 125.42 21.4212C125.491 21.6698 125.456 21.954 125.349 22.2381C125.349 22.4156 125.172 22.6287 124.923 22.7708ZM145.06 24.4045C146.232 22.025 147.333 19.61 148.398 17.1595C149.464 14.7089 150.21 12.1874 150.636 9.5948C150.707 9.20414 150.778 8.81348 150.813 8.35178C150.849 7.89009 150.849 7.46392 150.813 7.07326C150.778 6.64708 150.671 6.25641 150.529 5.90126C150.387 5.5106 150.139 5.19098 149.783 4.94237C149.18 4.48068 148.576 4.3031 147.937 4.33862C147.297 4.40965 146.694 4.58722 146.09 4.90685C145.486 5.22649 144.918 5.61715 144.385 6.11436C143.852 6.61156 143.391 7.03774 143 7.46391C140.798 9.73686 138.845 12.3294 137.211 15.1706C135.542 18.0118 134.121 20.8885 132.914 23.8007C132.736 24.2269 132.488 24.8307 132.168 25.6475C131.884 26.4643 131.564 27.3877 131.28 28.4176C130.996 29.4476 130.747 30.4775 130.57 31.5429C130.392 32.6084 130.321 33.5673 130.392 34.4552C130.463 35.3075 130.712 36.0178 131.138 36.586C131.564 37.1543 132.239 37.4384 133.162 37.4384C133.766 37.4384 134.37 37.3319 134.938 37.0833C135.506 36.8702 136.075 36.5505 136.572 36.1954C137.069 35.8402 137.566 35.4496 137.992 35.0234C138.454 34.5972 138.845 34.1355 139.235 33.7094C140.443 32.3243 141.508 30.8327 142.432 29.2345C143.426 27.6363 144.279 26.0382 145.06 24.4045ZM149.819 26.7129C148.008 29.6962 145.77 32.4663 143.107 35.0589C142.467 35.6627 141.793 36.2664 141.118 36.8347C140.407 37.4029 139.697 37.9356 138.88 38.3973C138.099 38.859 137.282 39.2141 136.43 39.4983C135.577 39.7824 134.725 39.9244 133.802 39.9244C132.381 39.9244 131.174 39.6048 130.215 38.9655C129.256 38.3263 128.51 37.5094 127.942 36.444C127.374 35.4141 126.983 34.2421 126.77 32.9635C126.557 31.685 126.415 30.3354 126.415 28.9504C126.379 27.5653 126.486 26.2512 126.628 24.9727C126.805 23.6942 126.983 22.5577 127.231 21.5988C127.587 20.0362 128.013 18.4735 128.617 16.9819C129.185 15.4903 129.86 13.9986 130.57 12.5781C131.529 10.6958 132.736 8.81348 134.157 6.93119C135.577 5.04891 137.247 3.5928 139.129 2.52736C140.052 1.99464 141.082 1.60398 142.148 1.31986C143.213 1.03574 144.279 0.893677 145.344 0.893677C146.409 0.893677 147.475 1.03574 148.505 1.35538C149.535 1.63949 150.494 2.1367 151.346 2.77597C152.625 3.73487 153.477 5.0134 153.903 6.50502C154.329 8.03216 154.613 9.55929 154.72 11.0864C154.826 12.507 154.755 13.9276 154.507 15.2772C154.258 16.6622 153.903 17.9763 153.477 19.2903C153.015 20.5689 152.482 21.8474 151.843 23.0904C151.204 24.369 150.529 25.5409 149.819 26.7129Z" fill="white"/>
<path d="M8.57724 46.3171C8.57724 46.4592 8.54172 46.5657 8.50621 46.6723C8.47069 46.7788 8.39966 46.8854 8.29312 46.9564C8.22209 47.0274 8.11555 47.0985 8.009 47.1695C7.90246 47.205 7.7604 47.2405 7.65385 47.2405C7.51179 47.2405 7.40525 47.205 7.2987 47.1695C7.19216 47.134 7.08562 47.0629 7.01459 46.9564C6.94356 46.8854 6.87253 46.7788 6.8015 46.6723C6.76599 46.5657 6.73047 46.4237 6.73047 46.3171C6.73047 46.2106 6.76599 46.0685 6.8015 45.962C6.83701 45.8555 6.90804 45.7489 7.01459 45.6779C7.08562 45.6068 7.19216 45.5358 7.2987 45.4648C7.40525 45.4293 7.54731 45.3938 7.65385 45.3938C7.79591 45.3938 7.90246 45.4293 8.009 45.4648C8.11555 45.5003 8.22209 45.5713 8.29312 45.6779C8.36415 45.7489 8.43518 45.8555 8.50621 45.962C8.57724 46.0685 8.57724 46.2106 8.57724 46.3171ZM14.4372 43.6535C14.4727 43.689 14.4727 43.7246 14.4727 43.7246C14.4727 43.7601 14.4372 43.7956 14.4017 43.8311L14.082 44.1152C14.0465 44.1507 14.0465 44.1507 14.011 44.1507C13.9755 44.1507 13.94 44.1152 13.94 44.0797C13.8334 43.9376 13.6914 43.8311 13.5493 43.7601C13.3717 43.689 13.2297 43.6535 13.0521 43.6535C12.768 43.6535 12.5904 43.7246 12.4483 43.8666C12.3063 44.0087 12.2353 44.2218 12.2353 44.4349V46.8499C12.2353 47.0985 12.3063 47.276 12.4839 47.4181C12.6259 47.5602 12.839 47.6312 13.1231 47.6312C13.3007 47.6312 13.4428 47.5957 13.6203 47.4891C13.7624 47.4181 13.9045 47.3116 13.9755 47.205C14.011 47.1695 14.0465 47.134 14.0465 47.134C14.082 47.0985 14.1175 47.134 14.1531 47.1695L14.4727 47.4536C14.4727 47.4536 14.5082 47.4891 14.5082 47.5246C14.5082 47.5602 14.5082 47.5602 14.5082 47.5957C14.3306 47.8088 14.1175 47.9863 13.9045 48.0929C13.6559 48.1994 13.4072 48.2705 13.1231 48.2705C12.91 48.2705 12.697 48.2349 12.4839 48.1639C12.3063 48.0929 12.1287 48.0219 11.9867 47.8798C11.8446 47.7732 11.7381 47.5957 11.667 47.4536C11.596 47.276 11.5605 47.063 11.5605 46.8499V44.3993C11.5605 44.1862 11.596 43.9732 11.667 43.7956C11.7381 43.618 11.8446 43.476 11.9867 43.3339C12.1287 43.2273 12.2708 43.1208 12.4839 43.0498C12.6614 42.9787 12.8745 42.9432 13.0876 42.9432C13.3362 42.9432 13.5848 42.9787 13.8334 43.0853C13.9755 43.2629 14.2241 43.4049 14.4372 43.6535ZM18.0242 48.1639C18.0242 48.2349 17.9887 48.2705 17.9176 48.2705H15.183C15.112 48.2705 15.0764 48.2349 15.0764 48.1639V43.1918C15.0764 43.1208 15.112 43.0853 15.183 43.0853H17.8821C17.9531 43.0853 17.9887 43.1208 17.9887 43.1918V43.618C17.9887 43.689 17.9531 43.7246 17.8821 43.7246H15.8578C15.8223 43.7246 15.7867 43.7601 15.7867 43.7956V45.2162C15.7867 45.2517 15.8223 45.2872 15.8578 45.2872H17.527C17.598 45.2872 17.6335 45.3227 17.6335 45.3938V45.8199C17.6335 45.891 17.598 45.9265 17.527 45.9265H15.8578C15.8223 45.9265 15.7867 45.962 15.7867 45.9975V47.6312C15.7867 47.6667 15.8223 47.7022 15.8578 47.7022H17.9176C17.9887 47.7022 18.0242 47.7377 18.0242 47.8088V48.1639ZM21.6112 43.618C21.6112 43.689 21.5757 43.7246 21.5046 43.7246H20.4037C20.3681 43.7246 20.3326 43.7601 20.3326 43.7956V48.1639C20.3326 48.2349 20.2971 48.2705 20.2261 48.2705H19.7289C19.6579 48.2705 19.6223 48.2349 19.6223 48.1639V43.7956C19.6223 43.7601 19.5868 43.7246 19.5513 43.7246H18.4504C18.3793 43.7246 18.3438 43.689 18.3438 43.618V43.1918C18.3438 43.1208 18.3793 43.0853 18.4504 43.0853H21.4691C21.5401 43.0853 21.5757 43.1208 21.5757 43.1563V43.618H21.6112ZM22.9607 45.1451C22.9607 45.1807 22.9962 45.2162 23.0318 45.2162H23.9551C24.2037 45.2162 24.4168 45.2517 24.6299 45.3227C24.8075 45.3938 24.9851 45.5003 25.1271 45.6424C25.2692 45.7844 25.3402 45.9265 25.4112 46.1396C25.4823 46.3171 25.5178 46.5302 25.5178 46.7433C25.5178 46.9564 25.4823 47.1695 25.4112 47.3471C25.3402 47.5246 25.2337 47.7022 25.0916 47.8443C24.9496 47.9863 24.772 48.0929 24.5944 48.1639C24.3813 48.2349 24.1682 48.2705 23.9196 48.2705H22.3925C22.3215 48.2705 22.2859 48.2349 22.2859 48.1639V43.1918C22.2859 43.1208 22.3215 43.1208 22.3925 43.1208H22.8897C22.9607 43.1208 22.9962 43.1563 22.9962 43.1918V45.1451H22.9607ZM23.8841 47.6667C24.0262 47.6667 24.1327 47.6312 24.2393 47.5957C24.3458 47.5602 24.4524 47.4891 24.5234 47.3826C24.5944 47.3116 24.6654 47.205 24.701 47.0985C24.7365 46.9919 24.772 46.8854 24.772 46.7433C24.772 46.4237 24.701 46.2106 24.5234 46.033C24.3458 45.891 24.1327 45.7844 23.8841 45.7844H23.0318C22.9962 45.7844 22.9607 45.8199 22.9607 45.8554V47.5246C22.9607 47.5602 22.9962 47.5957 23.0318 47.5957H23.8841V47.6667ZM28.1459 49.2649C28.1459 49.3359 28.1104 49.3714 28.1104 49.4069C28.0749 49.4069 28.0749 49.4424 28.0393 49.4424H27.6487C27.6132 49.4424 27.5777 49.4424 27.5421 49.4069C27.5421 49.4069 27.5066 49.3714 27.5066 49.3004V47.9153C27.5066 47.8443 27.5066 47.7732 27.5421 47.7732C27.5777 47.7377 27.6132 47.7377 27.6487 47.7022L27.7907 47.6312C27.9683 47.5602 28.0749 47.4536 28.1459 47.2405C28.2169 47.0274 28.2879 46.7788 28.3235 46.4947C28.359 46.3171 28.359 46.1396 28.3945 45.962C28.3945 45.7844 28.43 45.5713 28.43 45.3227C28.43 45.0741 28.4655 44.79 28.4655 44.4349C28.4655 44.1152 28.501 43.689 28.5366 43.2274C28.5366 43.1563 28.5721 43.1208 28.5721 43.0853C28.6076 43.0498 28.6431 43.0498 28.6786 43.0498H31.2002C31.2357 43.0498 31.2712 43.0498 31.3067 43.0853C31.3422 43.1208 31.3422 43.1563 31.3422 43.2274V47.5246V47.5602C31.3422 47.5957 31.3777 47.5957 31.3777 47.5957H31.5553C31.6263 47.5957 31.6619 47.5957 31.6619 47.6312C31.6619 47.6667 31.6974 47.7022 31.6974 47.7377V49.1938C31.6974 49.2649 31.6619 49.3004 31.6619 49.3359C31.6263 49.3359 31.6263 49.3359 31.5908 49.3359H31.2357C31.2002 49.3359 31.1646 49.3359 31.1291 49.3004C31.0936 49.3004 31.0936 49.2294 31.0936 49.1583V48.1994C31.0936 48.1639 31.0581 48.1284 31.0581 48.1284C31.0226 48.1284 31.0226 48.1284 30.9871 48.1284H28.2524C28.2169 48.1284 28.1814 48.1284 28.1814 48.1639C28.1814 48.1639 28.1459 48.1994 28.1459 48.2349V49.2649ZM29.2468 43.7246C29.2113 43.7246 29.2113 43.7246 29.1758 43.7601C29.1403 43.7956 29.1758 43.7956 29.1758 43.7956C29.1758 43.9732 29.1403 44.2218 29.1403 44.4349C29.1403 44.6835 29.1048 44.9321 29.1048 45.1451C29.1048 45.3938 29.0693 45.6424 29.0693 45.8554C29.0693 46.0685 29.0338 46.2816 29.0338 46.4592C29.0338 46.5302 28.9982 46.6368 28.9982 46.7078C28.9982 46.8143 28.9627 46.9209 28.9272 46.9919C28.8917 47.0985 28.8562 47.205 28.8207 47.276C28.7852 47.3826 28.7496 47.4536 28.7141 47.5246C28.6786 47.5602 28.7141 47.5602 28.7496 47.5602H30.5964H30.6319C30.6674 47.5602 30.6674 47.5246 30.6674 47.4891V43.7246C30.6674 43.6535 30.6319 43.618 30.5609 43.618H29.2468V43.7246ZM33.2955 45.1451C33.2955 45.1807 33.3311 45.2162 33.3666 45.2162H34.3255C34.5386 45.2162 34.7516 45.2517 34.9292 45.3227C35.1068 45.3938 35.2844 45.5003 35.3909 45.6424C35.533 45.7844 35.6395 45.9265 35.675 46.1396C35.7461 46.3171 35.7816 46.5302 35.7816 46.7433C35.7816 46.9564 35.7461 47.1695 35.675 47.3471C35.604 47.5246 35.4974 47.7022 35.3554 47.8443C35.2133 47.9863 35.0358 48.0929 34.8582 48.1639C34.6451 48.2349 34.432 48.2705 34.1834 48.2705H32.6563C32.5852 48.2705 32.5497 48.2349 32.5497 48.1639V43.1918C32.5497 43.1208 32.5852 43.1208 32.6563 43.1208H33.1535C33.2245 43.1208 33.26 43.1563 33.26 43.1918V45.1451H33.2955ZM37.0601 48.1639C37.0601 48.2349 37.0246 48.2705 36.9536 48.2705H36.4208C36.3498 48.2705 36.3143 48.2349 36.3143 48.1639V43.1918C36.3143 43.1208 36.3498 43.0853 36.4208 43.0853H36.9536C37.0246 43.0853 37.0601 43.1208 37.0601 43.1563V48.1639ZM34.2189 47.6667C34.361 47.6667 34.4675 47.6312 34.5741 47.5957C34.6806 47.5602 34.7872 47.4891 34.8582 47.3826C34.9292 47.3116 35.0002 47.205 35.0358 47.0985C35.0713 46.9919 35.1068 46.8854 35.1068 46.7433C35.1068 46.4237 35.0358 46.2106 34.8582 46.033C34.6806 45.891 34.4675 45.7844 34.2189 45.7844H33.3666C33.3311 45.7844 33.2955 45.8199 33.2955 45.8554V47.5246C33.2955 47.5602 33.3311 47.5957 33.3666 47.5957H34.2189V47.6667ZM42.3873 48.1639C42.3873 48.2349 42.3518 48.2705 42.2808 48.2705H41.8191C41.7481 48.2705 41.7125 48.2349 41.7125 48.1639V44.9321V44.8966C41.7125 44.8966 41.7125 44.8966 41.677 44.8966L41.3219 45.891L40.505 47.9863C40.505 47.9863 40.4695 48.0219 40.4695 48.0574C40.434 48.0929 40.3985 48.0929 40.363 48.0929H40.0433C40.0078 48.0929 39.9723 48.0929 39.9368 48.0574C39.9013 48.0574 39.9013 48.0218 39.8658 47.9863L39.0844 45.962L38.7293 44.9321H38.6938V48.1639C38.6938 48.2349 38.6583 48.2705 38.5872 48.2705H38.1255C38.0545 48.2705 38.019 48.2349 38.019 48.1639V43.2629C38.019 43.1563 38.0545 43.1208 38.1611 43.1208H38.4807C38.5517 43.1208 38.6228 43.1208 38.6228 43.1563C38.6228 43.1563 38.6583 43.1918 38.6938 43.2629L39.8303 46.2461L40.1499 47.1695C40.1854 47.205 40.1854 47.205 40.2209 47.1695C40.2919 47.0274 40.3275 46.8499 40.3985 46.7078C40.434 46.5302 40.505 46.3882 40.5761 46.2461L41.677 43.2629C41.7125 43.2274 41.7481 43.1918 41.7481 43.1563C41.7836 43.1563 41.8191 43.1208 41.8546 43.1208H42.1742C42.2453 43.1208 42.2808 43.1208 42.2808 43.1563C42.3163 43.1918 42.3163 43.2274 42.3163 43.2629V48.1639H42.3873ZM46.6491 48.1639C46.6491 48.2349 46.6136 48.2705 46.5425 48.2705H46.0453C45.9743 48.2705 45.9388 48.2349 45.9388 48.1639V45.962C45.9388 45.9265 45.9033 45.891 45.8678 45.891H44.092C44.0565 45.891 44.021 45.9265 44.021 45.962V48.1639C44.021 48.2349 43.9855 48.2705 43.9145 48.2705H43.4172C43.3462 48.2705 43.3107 48.2349 43.3107 48.1639V43.1918C43.3107 43.1208 43.3462 43.0853 43.4172 43.0853H43.9145C43.9855 43.0853 44.021 43.1208 44.021 43.1563V45.1807C44.021 45.2162 44.0565 45.2517 44.092 45.2517H45.8678C45.9033 45.2517 45.9388 45.2162 45.9388 45.1807V43.1563C45.9388 43.0853 45.9743 43.0498 46.0453 43.0498H46.5425C46.6136 43.0498 46.6491 43.0853 46.6491 43.1208V48.1639ZM48.3183 45.1451C48.3183 45.1807 48.3538 45.2162 48.3893 45.2162H49.3482C49.5613 45.2162 49.7744 45.2517 49.952 45.3227C50.1295 45.3938 50.3071 45.5003 50.4137 45.6424C50.5557 45.7844 50.6623 45.9265 50.6978 46.1396C50.7688 46.3171 50.8043 46.5302 50.8043 46.7433C50.8043 46.9564 50.7688 47.1695 50.6978 47.3471C50.6268 47.5246 50.5202 47.7022 50.3782 47.8443C50.2361 47.9863 50.0585 48.0929 49.8809 48.1639C49.6679 48.2349 49.4548 48.2705 49.2062 48.2705H47.679C47.608 48.2705 47.5725 48.2349 47.5725 48.1639V43.1918C47.5725 43.1208 47.608 43.1208 47.679 43.1208H48.1762C48.2473 43.1208 48.2828 43.1563 48.2828 43.1918V45.1451H48.3183ZM52.0829 48.1639C52.0829 48.2349 52.0473 48.2705 51.9763 48.2705H51.4436C51.3726 48.2705 51.337 48.2349 51.337 48.1639V43.1918C51.337 43.1208 51.3726 43.0853 51.4436 43.0853H51.9763C52.0473 43.0853 52.0829 43.1208 52.0829 43.1563V48.1639ZM49.2417 47.6667C49.3837 47.6667 49.4903 47.6312 49.5968 47.5957C49.7034 47.5602 49.8099 47.4891 49.8809 47.3826C49.952 47.3116 50.023 47.205 50.0585 47.0985C50.094 46.9919 50.1295 46.8854 50.1295 46.7433C50.1295 46.4237 50.0585 46.2106 49.8809 46.033C49.7034 45.891 49.4903 45.7844 49.2417 45.7844H48.3893C48.3538 45.7844 48.3183 45.8199 48.3183 45.8554V47.5246C48.3183 47.5602 48.3538 47.5957 48.3893 47.5957H49.2417V47.6667ZM54.5334 46.3171L54.4979 46.2816C54.4623 46.2816 54.4623 46.2816 54.4623 46.3171L53.539 48.1639C53.5034 48.1994 53.4679 48.2349 53.4679 48.2349C53.4324 48.2349 53.3969 48.2349 53.3614 48.2349H52.8287C52.7221 48.2349 52.7221 48.1994 52.7576 48.0929L54.0362 45.6424C54.0717 45.5713 54.0717 45.5358 54.0717 45.5003C54.0717 45.4648 54.0362 45.4648 54.0362 45.4293L52.8642 43.2274C52.8287 43.1563 52.8642 43.1208 52.9707 43.1208H53.539C53.5745 43.1208 53.61 43.1208 53.6455 43.1563C53.681 43.1563 53.681 43.1918 53.7165 43.2274L54.5334 44.8966C54.5689 44.9321 54.5689 44.9321 54.6044 44.8966C54.7465 44.6124 54.8885 44.3638 55.0306 44.0797C55.1726 43.7956 55.3147 43.5115 55.4568 43.2274C55.4568 43.1918 55.4923 43.1563 55.5278 43.1563C55.5633 43.1563 55.5988 43.1208 55.6343 43.1208H56.1315C56.2381 43.1208 56.2381 43.1563 56.2381 43.2274C56.0605 43.618 55.8474 43.9732 55.6343 44.3638C55.4213 44.7545 55.2437 45.1096 55.0306 45.5003C54.9951 45.5713 54.9951 45.6068 55.0306 45.6779C55.1371 45.8554 55.2437 46.0685 55.3502 46.2816C55.4568 46.4947 55.5633 46.7078 55.6698 46.9209C55.7764 47.134 55.8829 47.3471 56.025 47.5602C56.1315 47.7732 56.2381 47.9508 56.3446 48.1639C56.3802 48.2704 56.3801 48.306 56.2736 48.306H55.7409C55.7054 48.306 55.6699 48.306 55.6343 48.306C55.5988 48.306 55.5988 48.2705 55.5633 48.2349L54.5334 46.3171ZM62.9149 48.1639C62.9149 48.2349 62.8794 48.2705 62.8083 48.2705H62.3466C62.2756 48.2705 62.2401 48.2349 62.2401 48.1639V44.9321V44.8966C62.2401 44.8966 62.2401 44.8966 62.2046 44.8966L61.8494 45.891L61.0326 47.9863C61.0326 47.9863 60.9971 48.0219 60.9971 48.0574C60.9616 48.0929 60.926 48.0929 60.8905 48.0929H60.5709C60.5354 48.0929 60.4999 48.0929 60.4643 48.0574C60.4288 48.0574 60.4288 48.0218 60.3933 47.9863L59.612 45.962L59.2568 44.9321H59.2213V48.1639C59.2213 48.2349 59.1858 48.2705 59.1148 48.2705H58.6531C58.5821 48.2705 58.5466 48.2349 58.5466 48.1639V43.2629C58.5466 43.1563 58.5821 43.1208 58.6886 43.1208H59.0082C59.0793 43.1208 59.1503 43.1208 59.1503 43.1563C59.1503 43.1563 59.1858 43.1918 59.2213 43.2629L60.3578 46.2461L60.6774 47.1695C60.713 47.205 60.713 47.205 60.7485 47.1695C60.8195 47.0274 60.855 46.8499 60.926 46.7078C60.9616 46.5302 61.0326 46.3882 61.1036 46.2461L62.2046 43.2629C62.2401 43.2274 62.2756 43.1918 62.2756 43.1563C62.3111 43.1563 62.3466 43.1208 62.3822 43.1208H62.7018C62.7728 43.1208 62.8083 43.1208 62.8083 43.1563C62.8438 43.1918 62.8438 43.2274 62.8438 43.2629V48.1639H62.9149ZM66.3953 48.2705C66.3243 48.2705 66.2888 48.2349 66.2888 48.1994L66.0047 47.134C66.0047 47.0985 65.9691 47.0985 65.9691 47.0985H64.4775C64.442 47.0985 64.442 47.0985 64.442 47.0985L64.1579 48.1994C64.1579 48.2349 64.1224 48.2705 64.0513 48.2705H63.5897C63.5541 48.2705 63.5186 48.2705 63.4831 48.2349C63.4476 48.2349 63.4476 48.1994 63.4831 48.1284L64.7261 43.1918C64.7261 43.1563 64.7616 43.1563 64.7616 43.1208C64.7972 43.0853 64.7972 43.0853 64.8682 43.0853H65.5785C65.6495 43.0853 65.685 43.1208 65.7205 43.1563L66.9991 48.0929C66.9991 48.1284 66.9991 48.1639 66.9991 48.1994C66.9991 48.2349 66.9636 48.2349 66.928 48.2349H66.3953V48.2705ZM64.9747 44.8966L64.5841 46.4237C64.5841 46.4592 64.5841 46.4592 64.5841 46.4947H64.6196H65.7561C65.7916 46.4947 65.7916 46.4947 65.7916 46.4947C65.7916 46.4947 65.7916 46.4592 65.7916 46.4237L65.4364 44.9321L65.1878 43.8666C65.1878 43.8666 65.1878 43.8311 65.1523 43.8311C65.1168 43.8311 65.1523 43.8311 65.1168 43.8311L64.9747 44.8966ZM70.6216 43.618C70.6216 43.689 70.5861 43.7246 70.515 43.7246H68.5617C68.5262 43.7246 68.4907 43.7601 68.4907 43.7956V48.1639C68.4907 48.2349 68.4552 48.2705 68.3842 48.2705H67.8869C67.8159 48.2705 67.7804 48.2349 67.7804 48.1639V43.1918C67.7804 43.1208 67.8159 43.0853 67.8869 43.0853H70.515C70.5861 43.0853 70.6216 43.1208 70.6216 43.1563V43.618ZM73.2497 48.2705C73.1786 48.2705 73.1431 48.2349 73.1431 48.1994L72.859 47.0985C72.859 47.0629 72.8235 47.0629 72.8235 47.0629H71.3319C71.2964 47.0629 71.2964 47.0629 71.2964 47.0629L71.0122 48.1639C71.0122 48.1994 70.9767 48.2349 70.9057 48.2349H70.444C70.4085 48.2349 70.373 48.2349 70.3375 48.1994C70.3019 48.1994 70.3019 48.1639 70.3375 48.0929L71.5805 43.1563C71.5805 43.1208 71.616 43.1208 71.616 43.0853C71.6515 43.0498 71.6515 43.0498 71.7225 43.0498H72.4328C72.5039 43.0498 72.5394 43.0853 72.5749 43.1208L73.8534 48.0574C73.8534 48.0929 73.8534 48.1284 73.8534 48.1639C73.8534 48.1994 73.8179 48.1994 73.7824 48.1994H73.2497V48.2705ZM71.8291 44.8966L71.4384 46.4237C71.4384 46.4592 71.4384 46.4592 71.4384 46.4947H71.4739H72.6104C72.6459 46.4947 72.6459 46.4947 72.6459 46.4947C72.6459 46.4947 72.6459 46.4592 72.6459 46.4237L72.2908 44.9321L72.0422 43.8666C72.0422 43.8666 72.0422 43.8311 72.0067 43.8311C72.0067 43.8311 72.0067 43.8311 71.9711 43.8311L71.8291 44.8966ZM76.0198 43.0498C76.2684 43.0498 76.4815 43.0853 76.6946 43.1563C76.8722 43.2273 77.0498 43.3339 77.1918 43.4404C77.3339 43.547 77.4049 43.689 77.4759 43.8666C77.547 44.0442 77.5825 44.2218 77.5825 44.3993C77.5825 44.5059 77.5825 44.6124 77.547 44.719C77.5115 44.8255 77.4759 44.9321 77.4049 45.0386C77.3339 45.1452 77.2984 45.2162 77.1918 45.3227C77.1208 45.3938 77.0142 45.4648 76.9077 45.5003C76.9077 45.5003 76.9077 45.5003 76.9077 45.5358C76.9077 45.5358 76.9077 45.5358 76.9077 45.5713C77.1208 45.6424 77.2984 45.7844 77.4404 45.9975C77.5825 46.2106 77.6535 46.4592 77.6535 46.7433C77.6535 46.9919 77.618 47.205 77.547 47.3826C77.4759 47.5957 77.3339 47.7377 77.1918 47.8798C77.0498 48.0219 76.8722 48.1284 76.6591 48.1994C76.446 48.2705 76.1974 48.306 75.9488 48.306C75.8067 48.306 75.6292 48.306 75.4871 48.2705C75.345 48.2349 75.203 48.1994 75.0609 48.1639C74.9189 48.1284 74.8123 48.0218 74.6703 47.9508C74.5637 47.8443 74.4572 47.7377 74.3861 47.5957C74.3861 47.5602 74.3861 47.5246 74.3861 47.5246C74.3861 47.5246 74.4217 47.4891 74.4572 47.4536C74.4927 47.4181 74.5637 47.3826 74.6347 47.3471C74.7058 47.3116 74.7413 47.276 74.8123 47.2405C74.8478 47.205 74.8834 47.205 74.9189 47.205C74.9544 47.205 74.9544 47.2405 74.9899 47.276C75.0964 47.4181 75.203 47.5246 75.3806 47.5957C75.5581 47.7022 75.7712 47.7377 75.9488 47.7377C76.2684 47.7377 76.5526 47.6312 76.7301 47.4536C76.9077 47.276 77.0142 47.0274 77.0142 46.7788C77.0142 46.4592 76.9077 46.2106 76.7301 46.0685C76.5526 45.9265 76.3039 45.8554 76.0198 45.8554H75.4516C75.3806 45.8554 75.345 45.8199 75.345 45.7489V45.3227C75.345 45.2517 75.3806 45.2162 75.4516 45.2162H76.1619C76.4105 45.2162 76.5881 45.1452 76.7301 45.0031C76.8722 44.861 76.9432 44.6835 76.9432 44.4349C76.9432 44.2218 76.8722 44.0087 76.7301 43.8666C76.5881 43.7246 76.3395 43.6535 76.0553 43.6535C75.9133 43.6535 75.7712 43.689 75.6292 43.7601C75.4871 43.8311 75.3095 43.9376 75.203 44.0797C75.1675 44.1152 75.1675 44.1152 75.132 44.1507C75.0965 44.1863 75.0609 44.1863 75.0254 44.1507L74.7058 43.9376C74.6703 43.9021 74.6347 43.8666 74.6347 43.8311C74.6347 43.7956 74.6348 43.7601 74.6703 43.7246C74.8123 43.5115 75.0254 43.3339 75.274 43.2274C75.4161 43.0853 75.7002 43.0498 76.0198 43.0498ZM78.5769 43.1918C78.5769 43.1208 78.6124 43.1208 78.6834 43.1208H79.1451C79.2162 43.1208 79.2517 43.1563 79.2517 43.2274V46.9209C79.2517 46.9209 79.2517 46.9209 79.2517 46.8854L81.205 43.2629C81.2405 43.2274 81.276 43.1918 81.276 43.1563C81.3115 43.1208 81.347 43.1208 81.4181 43.1208H81.8087C81.8798 43.1208 81.9153 43.1563 81.9153 43.2274V48.1994C81.9153 48.2705 81.8798 48.306 81.8087 48.306H81.3471C81.276 48.306 81.2405 48.2705 81.2405 48.1994V44.4704C81.2405 44.4704 81.2405 44.4704 81.205 44.4704C80.8854 45.0741 80.5657 45.6779 80.2461 46.3171C79.9265 46.9564 79.5713 47.5957 79.2872 48.1639C79.2517 48.2349 79.2517 48.2705 79.2162 48.2705C79.1806 48.2705 79.1451 48.2705 79.0741 48.2705H78.6834C78.6124 48.2705 78.5769 48.2349 78.5769 48.1639V43.1918ZM86.2481 48.1639C86.2481 48.2349 86.2126 48.2705 86.1415 48.2705H85.6443C85.5733 48.2705 85.5378 48.2349 85.5378 48.1639V45.962C85.5378 45.9265 85.5023 45.891 85.4668 45.891H83.691C83.6555 45.891 83.62 45.9265 83.62 45.962V48.1639C83.62 48.2349 83.5845 48.2705 83.5134 48.2705H83.0162C82.9452 48.2705 82.9097 48.2349 82.9097 48.1639V43.1918C82.9097 43.1208 82.9452 43.0853 83.0162 43.0853H83.5134C83.5845 43.0853 83.62 43.1208 83.62 43.1563V45.1807C83.62 45.2162 83.6555 45.2517 83.691 45.2517H85.4668C85.5023 45.2517 85.5378 45.2162 85.5378 45.1807V43.1563C85.5378 43.0853 85.5733 43.0498 85.6443 43.0498H86.1415C86.2126 43.0498 86.2481 43.0853 86.2481 43.1208V48.1639ZM90.4033 46.8854C90.4033 47.0985 90.3678 47.3116 90.2968 47.4891C90.2257 47.6667 90.1192 47.8088 89.9771 47.9508C89.8351 48.0574 89.6575 48.1639 89.4799 48.2349C89.3024 48.306 89.0893 48.3415 88.8407 48.3415C88.6276 48.3415 88.4145 48.306 88.2014 48.2349C88.0238 48.1639 87.8463 48.0929 87.7042 47.9508C87.5621 47.8443 87.4556 47.6667 87.349 47.4891C87.278 47.3116 87.2425 47.0985 87.2425 46.8854V44.4704C87.2425 44.2573 87.278 44.0442 87.3846 43.8666C87.4556 43.689 87.5977 43.547 87.7397 43.4049C87.8818 43.2984 88.0593 43.1918 88.2369 43.1208C88.4145 43.0498 88.6276 43.0143 88.8762 43.0143C89.0893 43.0143 89.3024 43.0498 89.4799 43.1208C89.6575 43.1918 89.8351 43.2629 89.9771 43.4049C90.1192 43.5115 90.2257 43.689 90.3323 43.8666C90.4033 44.0442 90.4743 44.2573 90.4743 44.4704V46.8854H90.4033ZM89.693 44.4704C89.693 44.2218 89.622 44.0442 89.4444 43.8666C89.2668 43.7246 89.0538 43.618 88.8052 43.618C88.521 43.618 88.3079 43.689 88.1659 43.8666C88.0238 44.0442 87.9173 44.2218 87.9173 44.4704V46.8499C87.9173 47.0985 87.9883 47.3116 88.1304 47.4536C88.2724 47.5957 88.4855 47.6667 88.7696 47.6667C89.0538 47.6667 89.2668 47.5957 89.4089 47.4536C89.551 47.3116 89.6575 47.0985 89.6575 46.8499V44.4704H89.693ZM94.523 46.7433C94.523 46.9564 94.4875 47.1695 94.4165 47.3826C94.3455 47.5602 94.2389 47.7377 94.1324 47.8798C93.9903 48.0219 93.8483 48.1284 93.6707 48.1994C93.4931 48.2705 93.28 48.306 93.0669 48.306H91.4688C91.3977 48.306 91.3622 48.2705 91.3622 48.1994V43.2274C91.3622 43.1563 91.3977 43.1208 91.4688 43.1208H92.9604C93.4221 43.1208 93.7772 43.2274 94.0258 43.476C94.2744 43.689 94.4165 44.0442 94.4165 44.4704C94.4165 44.5769 94.4165 44.6479 94.381 44.7545C94.3455 44.861 94.3099 44.9321 94.2744 45.0386C94.2389 45.1452 94.1679 45.2162 94.0969 45.2872C94.0258 45.3582 93.9548 45.4293 93.8838 45.5003C93.8838 45.5358 93.8838 45.5358 93.8838 45.5713C94.0969 45.6779 94.2744 45.8554 94.4165 46.0685C94.4875 46.2461 94.523 46.4947 94.523 46.7433ZM93.8483 46.7433C93.8483 46.6368 93.8483 46.4947 93.8127 46.3882C93.7772 46.2816 93.7417 46.1751 93.6707 46.1041C93.5996 46.033 93.4931 45.962 93.3866 45.891C93.28 45.8199 93.138 45.8199 92.9604 45.8199H92.108C92.0725 45.8199 92.037 45.8554 92.037 45.891V47.5957C92.037 47.6312 92.0725 47.6667 92.108 47.6667H93.0314C93.28 47.6667 93.4931 47.5957 93.6352 47.4181C93.7772 47.2405 93.8483 47.0274 93.8483 46.7433ZM93.6707 44.4349C93.6707 44.2218 93.5996 44.0442 93.4576 43.9021C93.3155 43.7601 93.138 43.689 92.8894 43.689H92.0725C92.037 43.689 92.0015 43.7246 92.0015 43.7601V45.1096C92.0015 45.1451 92.037 45.1807 92.0725 45.1807H92.8894C93.138 45.1807 93.351 45.1096 93.4576 44.9676C93.6352 44.8255 93.6707 44.6479 93.6707 44.4349ZM99.14 46.3171C99.14 46.4592 99.1044 46.5657 99.0689 46.6723C99.0334 46.7788 98.9624 46.8854 98.8558 46.9564C98.7848 47.0274 98.6783 47.0985 98.5717 47.1695C98.4652 47.205 98.3231 47.2405 98.2166 47.2405C98.0745 47.2405 97.968 47.205 97.8614 47.1695C97.7549 47.134 97.6483 47.0629 97.5773 46.9564C97.5063 46.8854 97.4352 46.7788 97.3642 46.6723C97.3287 46.5657 97.2932 46.4237 97.2932 46.3171C97.2932 46.2106 97.3287 46.0685 97.3642 45.962C97.3997 45.8555 97.4708 45.7489 97.5773 45.6779C97.6483 45.6068 97.7549 45.5358 97.8614 45.4648C97.968 45.4293 98.11 45.3938 98.2166 45.3938C98.3586 45.3938 98.4652 45.4293 98.5717 45.4648C98.6783 45.5003 98.7848 45.5713 98.8558 45.6779C98.9269 45.7489 98.9979 45.8555 99.0689 45.962C99.1044 46.0685 99.14 46.2106 99.14 46.3171Z" fill="white"/>
<path d="M164.665 21.6699C161.788 21.812 160.439 23.197 160.616 25.0438C160.687 25.6121 160.971 26.4289 161.433 26.642C162.108 26.9971 162.96 26.8196 163.528 26.0738C164.523 24.7952 164.665 23.2681 164.665 21.6699ZM154.792 47.7378C155.786 45.5003 156.248 43.1919 155.964 40.7769C155.715 38.3974 153.797 37.1899 151.844 38.0778C150.708 38.6105 150.423 39.7114 150.317 40.8124C150.104 43.4405 151.986 46.3527 154.792 47.7378ZM126.167 55.0183C131.494 59.2446 137.461 60.1324 143.818 58.1436C148.719 56.6165 151.88 53.8463 153.655 50.2238C152.483 49.1584 151.205 48.235 150.175 47.063C147.902 44.5414 147.298 41.6292 148.612 38.3974C149.394 36.5151 151.311 35.4497 153.407 35.6627C156.035 35.9114 157.313 37.5805 157.74 39.4628C158.379 42.2685 157.811 44.9676 156.781 47.5957C156.461 48.377 156.39 48.8742 157.313 49.2649C160.687 50.6855 164.168 51.6444 167.897 51.0051C173.686 50.0462 177.77 46.8854 179.688 41.3096C181.712 35.4852 180.54 29.0215 175.355 24.8307C173.26 23.1615 170.028 21.812 167.364 21.6699C167.186 22.6643 167.08 23.6943 166.831 24.6532C166.299 26.7485 165.446 28.6308 163.067 29.1635C160.51 29.7318 158.414 28.2757 158.237 25.6831C157.988 21.883 160.084 19.8942 163.599 19.3615C163.884 19.3259 164.203 19.2549 164.665 19.1839C163.067 15.952 160.545 14.3894 157.242 13.8922C157.313 13.1108 157.313 12.294 157.278 11.4772C158.876 11.5837 160.332 11.9389 161.646 12.6492C164.132 13.9632 166.086 15.81 167.009 18.5801C167.115 18.8998 167.648 19.2549 168.039 19.2904C173.615 20.0362 177.947 22.6998 180.824 27.5299C182.458 30.229 183.097 33.2477 182.991 36.4086C182.813 42.1264 180.611 46.8499 175.994 50.2948C172.585 52.8164 168.749 53.8108 164.523 53.5977C161.54 53.4201 158.698 52.6033 156.035 51.3248C155.538 51.0762 155.182 51.0051 154.756 51.6444C152.412 55.2314 149.18 57.7529 145.096 59.0315C142.397 59.8838 139.591 60.1324 136.786 59.9549C133.021 59.6707 129.647 58.3567 126.664 55.9772C125.954 55.3735 126.025 55.2314 126.167 55.0183Z" fill="white"/>
<path d="M166.723 48.2349C171.837 47.0629 175.566 44.6479 176.738 39.4627C177.874 34.4551 176.063 30.3354 172.441 26.7839C176.205 28.5597 178.94 33.8514 178.052 38.9655C176.915 45.5002 171.766 48.2349 166.723 48.2349Z" fill="white"/>
<path d="M162.641 8.56482C166.157 8.74239 169.779 12.7556 169.566 16.2005C168.607 14.8154 167.719 13.2883 166.547 12.0098C165.411 10.7312 163.955 9.70129 162.641 8.56482Z" fill="white"/>
<path d="M122.898 38.9301C123.36 42.5526 124.426 45.962 126.343 49.0873C123.751 46.1751 122.969 42.6946 122.898 38.9301Z" fill="white"/>
<path d="M130.035 52.0704C131.385 52.6032 132.699 53.1004 133.942 53.5976C133.231 53.7752 130.994 53.1004 130.035 52.0704Z" fill="white"/>
</svg>
