<?xml version="1.0" encoding="utf-8"?><svg viewBox="0 0 139 139" xmlns="http://www.w3.org/2000/svg" xmlns:xlink="http://www.w3.org/1999/xlink"><style>:root>svg{display:none}:root>svg:target{display:block}</style><svg fill="none" viewBox="0 0 27 15" id="ic_accordion_arrow" xmlns="http://www.w3.org/2000/svg"><path fill-rule="evenodd" clip-rule="evenodd" d="M26.164.293a1 1 0 0 0-1.414 0L13.435 11.607 2.121.293A1 1 0 0 0 .707 1.707l12.02 12.021a.998.998 0 0 0 1.416 0l12.021-12.02a1 1 0 0 0 0-1.415z" fill="currentColor"/></svg><svg fill="none" viewBox="0 0 9 16" id="ic_arrow" xmlns="http://www.w3.org/2000/svg"><path d="M7.5 1.799L1.882 7.415a1 1 0 0 0 0 1.414l5.616 5.617" stroke="currentColor" stroke-width="2" stroke-linecap="round"/></svg><svg fill="none" viewBox="0 0 14 14" id="ic_close" xmlns="http://www.w3.org/2000/svg"><path d="M13.295 2.115a.997.997 0 1 0-1.41-1.41L7 5.59 2.115.705a.997.997 0 1 0-1.41 1.41L5.59 7 .705 11.885a.997.997 0 1 0 1.41 1.41L7 8.41l4.885 4.885a.997.997 0 1 0 1.41-1.41L8.41 7l4.885-4.885z" fill="currentColor"/></svg><svg fill="none" viewBox="0 0 16 13" id="ic_email" xmlns="http://www.w3.org/2000/svg"><rect x="15" y="1" width="10.571" height="14" rx="1" transform="rotate(90 15 1)" stroke="currentColor" stroke-width="2"/><path transform="scale(1.0302 .96886) rotate(45 -2.136 .885)" stroke="currentColor" stroke-width="2" d="M0-1h10.982"/><path transform="matrix(.72846 -.68509 .72846 .68509 8 9.238)" stroke="currentColor" stroke-width="2" d="M0-1h10.982"/></svg><svg fill="none" viewBox="0 0 30 30" id="ic_instagram" xmlns="http://www.w3.org/2000/svg"><path d="M21.285 30H8.715C3.909 30 0 26.09 0 21.285V8.715C0 3.909 3.91 0 8.715 0h12.57C26.091 0 30 3.91 30 8.714v12.571C30 26.091 26.09 30 21.285 30zm6.371-21.285a6.378 6.378 0 0 0-6.37-6.371H8.714a6.378 6.378 0 0 0-6.371 6.37v12.571a6.378 6.378 0 0 0 6.37 6.371h12.571a6.378 6.378 0 0 0 6.371-6.37V8.714z" fill="currentColor"/><path d="M15 23.086c-4.459 0-8.086-3.627-8.086-8.086 0-4.459 3.627-8.086 8.086-8.086 4.459 0 8.086 3.627 8.086 8.086 0 4.459-3.627 8.086-8.086 8.086zm0-13.828A5.749 5.749 0 0 0 9.258 15 5.749 5.749 0 0 0 15 20.742 5.749 5.749 0 0 0 20.742 15 5.749 5.749 0 0 0 15 9.258zM23.203 22.031a1.172 1.172 0 1 1 0 2.344 1.172 1.172 0 0 1 0-2.344z" fill="currentColor"/></svg><svg fill="none" viewBox="0 0 12 16" id="ic_location" xmlns="http://www.w3.org/2000/svg"><path d="M6 0C2.7 0 0 2.637 0 5.859c0 3.125 3.3 7.226 5.4 9.374.2.196.4.196.6.196.2 0 .4-.098.6-.196C8.7 13.085 12 8.983 12 5.86 12 2.637 9.3 0 6 0zm0 3.222c-1.5 0-2.7 1.172-2.7 2.735-.1.683.2 1.367.7 1.855.5.488 1.2.781 2 .781s1.4-.293 1.9-.781c.5-.488.8-1.172.8-1.953 0-1.465-1.2-2.637-2.7-2.637zm0 3.809c-.7 0-1.2-.488-1.2-1.172 0-.684.5-1.172 1.2-1.172.6 0 1.2.586 1.2 1.172 0 .684-.6 1.172-1.2 1.172zm0 6.445c-1.6-1.758-4.3-5.078-4.3-7.52 0-2.343 1.9-4.198 4.3-4.198s4.3 1.757 4.3 4.101c0 2.441-2.7 5.859-4.3 7.617z" fill="currentColor"/></svg><svg fill="none" viewBox="0 0 25 28" id="ic_pdf" xmlns="http://www.w3.org/2000/svg"><path d="M6.49 14.21c0-.746-.52-1.192-1.434-1.192-.374 0-.627.036-.76.072v2.398c.158.036.35.048.615.048.976 0 1.578-.494 1.578-1.325zM12.152 13.042c-.41 0-.675.036-.832.072v5.314c.157.036.41.037.64.037 1.662.011 2.746-.904 2.746-2.844.012-1.688-.976-2.579-2.554-2.579z" fill="currentColor"/><path d="M23.007 9.92h-.666V6.707c0-.02-.003-.04-.006-.06a.534.534 0 0 0-.129-.353L16.86.186l-.004-.004a.542.542 0 0 0-.251-.157l-.03-.01A.542.542 0 0 0 16.45 0H3.308c-.6 0-1.088.488-1.088 1.088V9.92h-.665C.696 9.92 0 10.616 0 11.475v8.084c0 .858.696 1.554 1.555 1.554h.665v5.534c0 .6.488 1.087 1.088 1.087h17.946c.6 0 1.087-.488 1.087-1.087v-5.534h.666c.858 0 1.555-.696 1.555-1.554v-8.084c0-.859-.697-1.555-1.555-1.555zM3.308 1.088h12.598v5.564c0 .301.244.544.544.544h4.804v2.725H3.308V1.088zM16.66 15.56c0 1.555-.567 2.627-1.351 3.29-.854.71-2.156 1.048-3.746 1.048-.952 0-1.626-.06-2.085-.12V11.8c.675-.108 1.555-.169 2.483-.169 1.541 0 2.542.278 3.325.868.843.627 1.374 1.626 1.374 3.06zM2.477 19.814V11.8c.566-.096 1.362-.169 2.482-.169 1.133 0 1.94.217 2.482.651.519.41.867 1.085.867 1.88 0 .796-.264 1.47-.747 1.928-.626.59-1.554.855-2.638.855-.241 0-.459-.012-.627-.036v2.904H2.477zm18.777 6.538H3.308v-5.239h17.946v5.24zM22.83 13.2h-3.122v1.855h2.916v1.495h-2.916v3.265h-1.842v-8.121h4.964v1.506z" fill="currentColor"/></svg><svg fill="none" viewBox="0 0 12 15" id="ic_phone" xmlns="http://www.w3.org/2000/svg"><rect x="1" y="1" width="10" height="13" rx="1" stroke="currentColor" stroke-width="2"/><circle cx="6" cy="10" r="1" fill="currentColor"/></svg><svg fill="none" viewBox="0 0 54 23" id="ic_slider_arrow" xmlns="http://www.w3.org/2000/svg"><path d="M.619 10.083l.002-.002L11.643.536c.825-.716 2.16-.713 2.983.006.822.719.818 1.881-.007 2.596l-7.4 6.41H51.89c1.165 0 2.109.822 2.109 1.836 0 1.014-.944 1.836-2.11 1.836H7.22l7.4 6.41c.825.715.828 1.877.007 2.596-.822.719-2.158.721-2.984.006L.62 12.684l-.001-.002c-.827-.717-.824-1.883 0-2.599z" fill="currentColor"/></svg><svg fill="none" viewBox="0 0 139 139" id="ic_video_play" xmlns="http://www.w3.org/2000/svg"><path d="M92.425 66.782l-28.862-20.98a3.48 3.48 0 0 0-5.528 2.807v41.948a3.47 3.47 0 0 0 5.528 2.803l28.862-20.962a3.487 3.487 0 0 0 1.444-2.808 3.455 3.455 0 0 0-1.444-2.808z" fill="currentColor"/><path d="M69.502.01C31.111.01 0 31.12 0 69.511c0 38.377 31.11 69.479 69.502 69.479 38.382 0 69.498-31.106 69.498-69.48C139.005 31.122 107.884.01 69.502.01zm0 127.385c-31.97 0-57.892-25.907-57.892-57.883 0-31.962 25.921-57.902 57.892-57.902 31.967 0 57.883 25.935 57.883 57.902.005 31.976-25.916 57.883-57.883 57.883z" fill="currentColor"/></svg></svg>